{"glyphs":{"0":{"ha":819,"x_min":24,"x_max":794,"o":"m 55 521 q 138 770 86 668 q 255 936 190 873 q 387 1027 319 999 q 519 1056 456 1056 q 652 1027 594 1056 q 747 936 711 999 q 789 770 783 873 q 763 521 794 668 q 648 207 722 324 q 485 38 574 90 q 306 -14 395 -14 q 184 15 242 -14 q 85 106 126 43 q 34 271 45 169 q 55 521 24 374 m 208 521 q 175 250 172 353 q 211 102 177 148 q 303 56 245 56 q 422 102 365 56 q 527 250 478 148 q 610 521 575 353 q 645 791 647 689 q 611 940 644 894 q 515 986 577 986 q 400 940 457 986 q 293 791 342 894 q 208 521 244 689 "},"1":{"ha":729,"x_min":-28,"x_max":563,"o":"m -28 26 l -28 56 q -22 74 -28 71 q 0 76 -15 76 l 179 76 q 205 83 198 76 q 215 106 212 89 l 368 815 q 364 840 368 833 q 342 847 360 847 l 200 847 q 177 851 185 847 q 169 871 169 854 l 169 892 q 174 917 169 910 q 199 924 179 924 q 315 932 266 924 q 402 971 363 940 q 477 1068 440 1001 q 489 1088 483 1078 q 513 1097 495 1097 l 532 1097 q 552 1094 545 1097 q 556 1079 558 1092 l 347 113 q 351 83 342 89 q 385 76 360 76 l 532 76 q 554 74 546 76 q 563 56 563 71 l 563 28 q 559 6 563 11 q 539 0 555 0 l -4 0 q -24 5 -19 0 q -28 26 -28 10 "},"2":{"ha":792,"x_min":-42,"x_max":803,"o":"m 674 226 q 646 82 679 135 q 559 8 613 30 q 444 -14 505 -14 q 344 -1 389 -14 q 260 28 299 11 q 185 57 222 44 q 111 69 149 69 q 63 56 81 69 q 35 21 45 43 q 26 6 31 12 q 8 0 22 0 l -26 0 q -39 5 -37 0 q -42 20 -42 10 q -6 157 -40 92 q 85 278 28 221 q 211 386 141 335 q 357 485 282 438 q 445 546 396 509 q 541 631 495 583 q 618 733 588 678 q 649 847 649 788 q 600 964 649 930 q 468 997 551 997 q 365 981 413 997 q 287 941 317 964 q 257 899 257 917 q 267 878 257 887 q 290 859 276 869 q 313 835 303 849 q 322 796 322 820 q 295 736 322 758 q 240 715 268 715 q 195 726 216 715 q 160 757 174 736 q 147 807 147 777 q 172 899 147 855 q 242 979 197 944 q 350 1035 287 1015 q 489 1056 413 1056 q 651 1033 580 1056 q 762 962 722 1011 q 803 833 803 913 q 779 735 803 783 q 715 643 756 688 q 621 557 674 598 q 510 481 569 517 q 392 417 451 446 q 255 333 324 383 q 131 233 186 284 q 47 142 76 182 q 33 119 38 130 q 27 100 28 108 q 32 93 26 93 q 42 99 39 93 q 49 114 45 105 q 63 133 53 123 q 134 172 87 157 q 222 187 181 187 q 293 177 261 187 q 355 156 325 168 q 416 135 384 144 q 488 126 448 126 q 576 152 549 126 q 608 227 604 179 q 611 242 609 239 q 627 246 614 246 l 656 246 q 670 242 667 246 q 674 226 673 238 "},"3":{"ha":736,"x_min":-49,"x_max":722,"o":"m -49 207 q -19 278 -49 257 q 40 299 10 299 q 94 278 69 299 q 119 218 119 257 q 113 188 119 199 q 97 167 106 176 q 82 150 88 158 q 75 129 75 141 q 95 91 75 110 q 154 58 115 71 q 251 44 193 44 q 383 86 327 44 q 468 189 438 127 q 499 313 499 251 q 485 397 499 359 q 435 461 472 435 q 329 498 398 487 q 299 500 313 501 q 276 504 285 499 q 267 529 267 509 l 267 542 q 276 568 267 563 q 299 572 285 573 q 329 574 314 572 q 473 631 417 587 q 555 736 528 675 q 582 863 582 798 q 532 961 582 924 q 404 997 481 997 q 303 970 338 997 q 269 914 269 942 q 276 893 269 902 q 292 876 283 885 q 307 856 301 867 q 314 825 314 844 q 289 766 314 787 q 235 744 263 744 q 194 753 215 744 q 160 783 174 763 q 146 836 146 803 q 176 943 146 893 q 270 1024 207 993 q 432 1056 333 1056 q 578 1033 513 1056 q 683 962 644 1010 q 722 842 722 915 q 694 713 722 763 q 617 628 666 662 q 508 565 569 594 q 459 547 469 547 q 449 535 449 547 q 466 525 449 526 q 504 516 483 524 q 578 472 549 499 q 624 405 608 444 q 639 313 639 366 q 612 183 639 242 q 536 79 585 123 q 418 10 486 35 q 265 -14 349 -14 q 90 18 160 -14 q -14 100 20 49 q -49 207 -49 150 "},"4":{"ha":750,"x_min":16,"x_max":733,"o":"m 611 58 l 611 18 q 607 3 611 6 q 590 0 602 0 l 265 0 q 248 4 252 0 q 243 22 243 8 l 243 53 q 247 72 243 67 q 264 76 251 76 l 363 76 q 380 80 374 76 q 389 94 387 84 l 431 293 q 429 314 434 309 q 408 319 424 319 l 79 319 q 58 322 64 319 q 44 331 51 324 l 26 349 q 17 365 16 359 q 24 385 18 372 q 94 492 48 443 q 199 587 140 542 q 319 678 258 633 q 438 773 381 724 q 536 879 494 822 q 596 1005 578 936 q 601 1031 600 1021 q 624 1042 603 1042 l 700 1042 q 727 1037 722 1042 q 731 1013 733 1033 q 681 881 721 942 q 581 769 640 821 q 454 673 522 718 q 323 587 387 628 q 209 507 259 546 q 135 429 159 469 q 128 411 128 419 q 138 400 128 403 q 167 396 147 396 l 438 396 q 452 400 449 396 q 458 413 456 403 l 475 500 q 483 520 478 517 q 496 531 487 524 q 532 560 513 544 q 569 598 551 576 q 597 651 587 620 q 604 667 601 660 q 620 674 607 674 l 624 674 q 640 669 638 674 q 639 652 642 664 l 590 426 q 592 402 585 408 q 619 396 599 396 l 680 396 q 698 391 694 396 q 701 372 701 386 l 701 340 q 696 323 701 326 q 676 319 691 319 l 594 319 q 572 313 578 319 q 563 292 566 307 l 521 101 q 521 81 518 86 q 540 76 524 76 l 587 76 q 606 74 600 76 q 611 58 611 72 "},"5":{"ha":715,"x_min":-35,"x_max":738,"o":"m -35 193 q -5 264 -35 243 q 54 285 24 285 q 108 264 83 285 q 133 204 133 243 q 122 166 133 179 q 100 142 111 152 q 89 115 89 131 q 128 66 89 88 q 224 44 167 44 q 325 75 275 44 q 416 161 376 106 q 481 286 457 215 q 506 438 506 358 q 455 586 506 546 q 328 626 405 626 q 241 609 279 626 q 169 558 202 592 q 154 543 160 549 q 127 538 147 538 l 98 538 q 75 545 78 538 q 76 568 72 553 l 231 1015 q 244 1036 237 1031 q 269 1042 252 1042 l 433 1042 q 551 1038 510 1042 q 615 1039 592 1035 q 658 1067 638 1044 q 668 1079 664 1072 q 685 1086 672 1086 l 725 1086 q 735 1076 738 1086 l 726 1042 q 699 974 717 999 q 640 936 681 949 q 524 920 599 924 q 326 917 449 917 l 295 917 q 275 913 280 917 q 264 894 269 908 l 182 671 q 168 634 174 648 q 167 618 163 620 q 186 625 174 615 q 217 649 197 635 q 291 682 246 669 q 393 694 337 694 q 522 667 463 694 q 615 583 580 639 q 649 444 649 528 q 613 256 649 340 q 517 111 577 172 q 384 18 457 51 q 238 -14 311 -14 q 92 14 153 -14 q -2 89 31 42 q -35 193 -35 136 "},"6":{"ha":764,"x_min":36,"x_max":731,"o":"m 611 960 q 598 985 611 974 q 544 997 585 997 q 403 947 463 997 q 301 807 344 897 q 226 597 258 717 q 219 572 222 580 q 219 563 217 565 q 228 567 223 560 q 244 583 233 573 q 344 644 287 622 q 469 667 401 667 q 603 629 547 667 q 682 516 660 592 q 681 326 705 441 q 602 140 657 215 q 474 25 548 64 q 315 -14 399 -14 q 170 13 231 -14 q 76 101 110 40 q 39 264 42 163 q 67 514 36 365 q 141 739 94 639 q 251 910 188 839 q 390 1018 314 981 q 549 1056 465 1056 q 683 1010 635 1056 q 731 904 731 964 q 702 823 731 848 q 643 799 674 799 q 585 819 610 799 q 560 879 560 840 q 573 918 560 904 q 599 942 586 933 q 611 960 611 951 m 542 326 q 537 522 567 445 q 424 599 507 599 q 315 569 367 599 q 228 492 264 540 q 180 389 192 444 q 176 141 147 234 q 308 49 205 49 q 416 86 369 49 q 494 188 463 124 q 542 326 526 251 "},"7":{"ha":728,"x_min":117,"x_max":818,"o":"m 118 807 q 167 957 133 903 q 251 1033 201 1011 q 361 1056 301 1056 q 448 1043 412 1056 q 514 1014 484 1031 q 577 985 544 997 q 653 972 610 972 q 711 988 692 972 q 740 1030 730 1004 q 745 1039 743 1037 q 758 1042 748 1042 l 806 1042 q 818 1037 817 1042 q 817 1022 818 1033 q 786 943 812 990 q 720 841 760 897 q 635 728 681 786 q 544 616 589 670 q 463 517 499 561 q 348 367 385 422 q 311 267 311 313 q 320 217 311 237 q 341 181 329 198 q 362 140 353 163 q 371 81 371 117 q 360 33 371 55 q 327 -1 349 12 q 275 -14 306 -14 q 202 24 235 -14 q 169 133 169 62 q 201 261 169 195 q 282 395 232 326 q 388 536 331 464 q 452 615 415 571 q 530 705 490 659 q 602 794 569 751 q 655 871 636 838 q 665 889 661 881 q 667 900 669 897 q 658 897 664 903 q 640 887 651 890 q 611 881 627 883 q 576 879 595 879 q 492 886 524 879 q 435 903 459 894 q 384 919 410 912 q 318 926 358 926 q 228 898 255 926 q 183 810 201 869 q 181 799 181 803 q 172 796 180 796 l 133 796 q 118 807 117 796 "},"8":{"ha":736,"x_min":-18,"x_max":726,"o":"m 138 292 q 133 177 126 233 q 173 85 141 122 q 267 49 206 49 q 377 85 329 49 q 456 177 424 122 q 499 292 487 233 q 505 406 512 350 q 465 498 497 462 q 371 535 433 535 q 261 498 309 535 q 182 406 213 462 q 138 292 151 350 m 140 792 q 205 928 157 868 q 322 1022 253 988 q 467 1056 390 1056 q 612 1022 551 1056 q 699 928 672 988 q 710 792 726 868 q 642 657 692 712 q 517 574 591 602 q 499 568 506 570 q 491 563 492 567 q 495 558 490 560 q 510 551 499 556 q 624 452 589 520 q 638 292 658 385 q 570 139 621 208 q 443 28 520 69 q 268 -14 366 -14 q 110 28 177 -14 q 13 139 43 69 q -1 292 -18 208 q 80 448 19 383 q 231 544 142 513 q 254 552 242 549 q 267 561 266 556 q 260 569 268 566 q 237 578 251 572 q 150 660 177 607 q 140 792 124 714 m 279 792 q 275 694 269 740 q 308 619 282 648 q 383 590 335 590 q 469 619 431 590 q 534 694 508 648 q 571 792 560 740 q 575 889 582 843 q 542 964 568 935 q 468 993 516 993 q 381 964 420 993 q 316 889 342 935 q 279 792 290 843 "},"9":{"ha":764,"x_min":33,"x_max":728,"o":"m 153 82 q 166 57 153 69 q 220 44 179 44 q 360 95 301 44 q 463 235 420 145 q 538 444 506 326 q 545 469 542 462 q 544 479 547 477 q 536 475 541 481 q 520 459 531 469 q 420 398 477 421 q 294 375 363 375 q 161 413 217 375 q 82 525 104 450 q 83 715 59 601 q 161 902 107 826 q 290 1017 216 978 q 449 1056 365 1056 q 593 1028 533 1056 q 688 940 654 1001 q 725 778 722 879 q 697 528 728 676 q 623 303 670 403 q 513 132 576 203 q 374 24 450 61 q 215 -14 299 -14 q 81 32 129 -14 q 33 138 33 78 q 62 218 33 194 q 121 243 90 243 q 179 223 154 243 q 203 163 203 202 q 191 123 203 138 q 165 100 178 109 q 153 82 153 92 m 222 715 q 227 520 197 597 q 340 443 257 443 q 449 472 397 443 q 536 549 500 501 q 584 653 572 597 q 588 901 617 808 q 456 993 560 993 q 348 955 394 993 q 270 854 301 917 q 222 715 238 791 "}," ":{"ha":417,"x_min":0,"x_max":0,"o":""}," ":{"ha":417,"x_min":0,"x_max":0,"o":""}," ":{"ha":694,"x_min":0,"x_max":0,"o":""}," ":{"ha":1389,"x_min":0,"x_max":0,"o":""}," ":{"ha":694,"x_min":0,"x_max":0,"o":""}," ":{"ha":1389,"x_min":0,"x_max":0,"o":""}," ":{"ha":463,"x_min":0,"x_max":0,"o":""}," ":{"ha":347,"x_min":0,"x_max":0,"o":""}," ":{"ha":231,"x_min":0,"x_max":0,"o":""}," ":{"ha":806,"x_min":0,"x_max":0,"o":""}," ":{"ha":277,"x_min":0,"x_max":0,"o":""}," ":{"ha":231,"x_min":0,"x_max":0,"o":""}," ":{"ha":139,"x_min":0,"x_max":0,"o":""},"A":{"ha":1250,"x_min":-69,"x_max":1125,"o":"m 658 839 l 391 415 q 375 390 381 399 q 401 382 369 382 l 747 382 q 776 387 774 382 q 775 414 778 392 l 709 842 q 703 880 705 869 q 693 892 701 892 q 679 876 688 892 q 658 839 671 860 m -69 24 l -69 50 q -67 71 -69 65 q -49 76 -64 76 l 54 76 q 78 83 74 76 q 90 100 83 89 l 689 1043 q 701 1058 695 1053 q 724 1063 707 1063 l 769 1063 q 789 1061 782 1063 q 798 1053 795 1059 q 803 1038 801 1048 l 969 111 q 982 81 974 86 q 1021 76 991 76 l 1101 76 q 1121 72 1117 76 q 1125 51 1125 67 l 1125 24 q 1120 4 1125 8 q 1099 0 1115 0 l 699 0 q 683 5 685 0 q 681 23 681 10 l 681 54 q 686 74 681 71 q 708 76 691 76 l 792 76 q 820 81 815 76 q 822 104 826 85 l 794 286 q 783 305 792 304 q 754 306 774 306 l 356 306 q 329 304 338 306 q 313 292 319 302 l 193 100 q 189 83 186 89 q 213 76 191 76 l 296 76 q 314 73 308 76 q 319 57 319 69 l 319 26 q 315 5 319 9 q 292 0 310 0 l -50 0 q -68 4 -66 0 q -69 24 -69 8 "},"À":{"ha":1250,"x_min":-69,"x_max":1125,"o":"m 622 1333 q 648 1356 631 1349 q 683 1360 665 1363 q 713 1344 701 1358 l 848 1213 q 849 1188 860 1201 l 825 1163 q 816 1156 819 1157 q 804 1159 812 1154 l 640 1255 q 615 1286 623 1265 q 622 1333 606 1308 m 658 839 l 391 415 q 375 390 381 399 q 401 382 369 382 l 747 382 q 776 387 774 382 q 775 414 778 392 l 709 842 q 703 880 705 869 q 693 892 701 892 q 679 876 688 892 q 658 839 671 860 m -69 24 l -69 50 q -67 71 -69 65 q -49 76 -64 76 l 54 76 q 78 83 74 76 q 90 100 83 89 l 689 1043 q 701 1058 695 1053 q 724 1063 707 1063 l 769 1063 q 789 1061 782 1063 q 798 1053 795 1059 q 803 1038 801 1048 l 969 111 q 982 81 974 86 q 1021 76 991 76 l 1101 76 q 1121 72 1117 76 q 1125 51 1125 67 l 1125 24 q 1120 4 1125 8 q 1099 0 1115 0 l 699 0 q 683 5 685 0 q 681 23 681 10 l 681 54 q 686 74 681 71 q 708 76 691 76 l 792 76 q 820 81 815 76 q 822 104 826 85 l 794 286 q 783 305 792 304 q 754 306 774 306 l 356 306 q 329 304 338 306 q 313 292 319 302 l 193 100 q 189 83 186 89 q 213 76 191 76 l 296 76 q 314 73 308 76 q 319 57 319 69 l 319 26 q 315 5 319 9 q 292 0 310 0 l -50 0 q -68 4 -66 0 q -69 24 -69 8 "},"Á":{"ha":1250,"x_min":-69,"x_max":1125,"o":"m 947 1333 q 954 1286 962 1308 q 928 1255 946 1265 l 769 1163 q 755 1157 760 1157 q 742 1165 750 1156 l 719 1190 q 719 1212 708 1201 l 855 1344 q 886 1360 868 1358 q 920 1356 903 1363 q 947 1333 938 1349 m 658 839 l 391 415 q 375 390 381 399 q 401 382 369 382 l 747 382 q 776 387 774 382 q 775 414 778 392 l 709 842 q 703 880 705 869 q 693 892 701 892 q 679 876 688 892 q 658 839 671 860 m -69 24 l -69 50 q -67 71 -69 65 q -49 76 -64 76 l 54 76 q 78 83 74 76 q 90 100 83 89 l 689 1043 q 701 1058 695 1053 q 724 1063 707 1063 l 769 1063 q 789 1061 782 1063 q 798 1053 795 1059 q 803 1038 801 1048 l 969 111 q 982 81 974 86 q 1021 76 991 76 l 1101 76 q 1121 72 1117 76 q 1125 51 1125 67 l 1125 24 q 1120 4 1125 8 q 1099 0 1115 0 l 699 0 q 683 5 685 0 q 681 23 681 10 l 681 54 q 686 74 681 71 q 708 76 691 76 l 792 76 q 820 81 815 76 q 822 104 826 85 l 794 286 q 783 305 792 304 q 754 306 774 306 l 356 306 q 329 304 338 306 q 313 292 319 302 l 193 100 q 189 83 186 89 q 213 76 191 76 l 296 76 q 314 73 308 76 q 319 57 319 69 l 319 26 q 315 5 319 9 q 292 0 310 0 l -50 0 q -68 4 -66 0 q -69 24 -69 8 "},"Â":{"ha":1250,"x_min":-69,"x_max":1125,"o":"m 593 1174 l 583 1190 q 577 1201 576 1198 q 588 1211 578 1203 l 746 1342 q 762 1351 755 1349 q 785 1353 769 1353 l 844 1353 q 863 1351 858 1353 q 874 1342 869 1348 l 978 1208 q 983 1201 983 1203 q 976 1194 983 1199 l 956 1177 q 944 1170 947 1169 q 933 1176 941 1170 l 826 1271 q 792 1272 811 1284 l 617 1169 q 603 1165 608 1164 q 593 1174 599 1167 m 658 839 l 391 415 q 375 390 381 399 q 401 382 369 382 l 747 382 q 776 387 774 382 q 775 414 778 392 l 709 842 q 703 880 705 869 q 693 892 701 892 q 679 876 688 892 q 658 839 671 860 m -69 24 l -69 50 q -67 71 -69 65 q -49 76 -64 76 l 54 76 q 78 83 74 76 q 90 100 83 89 l 689 1043 q 701 1058 695 1053 q 724 1063 707 1063 l 769 1063 q 789 1061 782 1063 q 798 1053 795 1059 q 803 1038 801 1048 l 969 111 q 982 81 974 86 q 1021 76 991 76 l 1101 76 q 1121 72 1117 76 q 1125 51 1125 67 l 1125 24 q 1120 4 1125 8 q 1099 0 1115 0 l 699 0 q 683 5 685 0 q 681 23 681 10 l 681 54 q 686 74 681 71 q 708 76 691 76 l 792 76 q 820 81 815 76 q 822 104 826 85 l 794 286 q 783 305 792 304 q 754 306 774 306 l 356 306 q 329 304 338 306 q 313 292 319 302 l 193 100 q 189 83 186 89 q 213 76 191 76 l 296 76 q 314 73 308 76 q 319 57 319 69 l 319 26 q 315 5 319 9 q 292 0 310 0 l -50 0 q -68 4 -66 0 q -69 24 -69 8 "},"Ã":{"ha":1250,"x_min":-69,"x_max":1125,"o":"m 890 1167 q 808 1183 835 1167 q 764 1222 781 1200 q 733 1258 751 1239 q 678 1276 715 1276 q 628 1254 649 1276 q 596 1190 606 1232 q 580 1181 592 1181 l 551 1181 q 539 1186 539 1181 q 541 1201 538 1191 q 576 1281 555 1246 q 630 1336 597 1316 q 713 1357 663 1357 q 795 1341 767 1357 q 838 1302 822 1324 q 864 1266 849 1285 q 912 1247 879 1247 q 960 1268 940 1247 q 992 1328 981 1289 q 997 1340 994 1336 q 1010 1343 1001 1343 l 1040 1343 q 1051 1340 1050 1343 q 1050 1328 1052 1336 q 1017 1240 1038 1276 q 965 1185 996 1204 q 890 1167 934 1167 m 658 839 l 391 415 q 375 390 381 399 q 401 382 369 382 l 747 382 q 776 387 774 382 q 775 414 778 392 l 709 842 q 703 880 705 869 q 693 892 701 892 q 679 876 688 892 q 658 839 671 860 m -69 24 l -69 50 q -67 71 -69 65 q -49 76 -64 76 l 54 76 q 78 83 74 76 q 90 100 83 89 l 689 1043 q 701 1058 695 1053 q 724 1063 707 1063 l 769 1063 q 789 1061 782 1063 q 798 1053 795 1059 q 803 1038 801 1048 l 969 111 q 982 81 974 86 q 1021 76 991 76 l 1101 76 q 1121 72 1117 76 q 1125 51 1125 67 l 1125 24 q 1120 4 1125 8 q 1099 0 1115 0 l 699 0 q 683 5 685 0 q 681 23 681 10 l 681 54 q 686 74 681 71 q 708 76 691 76 l 792 76 q 820 81 815 76 q 822 104 826 85 l 794 286 q 783 305 792 304 q 754 306 774 306 l 356 306 q 329 304 338 306 q 313 292 319 302 l 193 100 q 189 83 186 89 q 213 76 191 76 l 296 76 q 314 73 308 76 q 319 57 319 69 l 319 26 q 315 5 319 9 q 292 0 310 0 l -50 0 q -68 4 -66 0 q -69 24 -69 8 "},"Ä":{"ha":1250,"x_min":-69,"x_max":1125,"o":"m 898 1174 q 851 1193 870 1174 q 831 1240 831 1213 q 851 1288 831 1268 q 898 1308 870 1308 q 945 1288 926 1308 q 965 1240 965 1268 q 945 1193 965 1213 q 898 1174 926 1174 m 676 1174 q 628 1193 648 1174 q 609 1240 609 1213 q 628 1288 609 1268 q 676 1308 648 1308 q 723 1288 703 1308 q 742 1240 742 1268 q 723 1193 742 1213 q 676 1174 703 1174 m 658 839 l 391 415 q 375 390 381 399 q 401 382 369 382 l 747 382 q 776 387 774 382 q 775 414 778 392 l 709 842 q 703 880 705 869 q 693 892 701 892 q 679 876 688 892 q 658 839 671 860 m -69 24 l -69 50 q -67 71 -69 65 q -49 76 -64 76 l 54 76 q 78 83 74 76 q 90 100 83 89 l 689 1043 q 701 1058 695 1053 q 724 1063 707 1063 l 769 1063 q 789 1061 782 1063 q 798 1053 795 1059 q 803 1038 801 1048 l 969 111 q 982 81 974 86 q 1021 76 991 76 l 1101 76 q 1121 72 1117 76 q 1125 51 1125 67 l 1125 24 q 1120 4 1125 8 q 1099 0 1115 0 l 699 0 q 683 5 685 0 q 681 23 681 10 l 681 54 q 686 74 681 71 q 708 76 691 76 l 792 76 q 820 81 815 76 q 822 104 826 85 l 794 286 q 783 305 792 304 q 754 306 774 306 l 356 306 q 329 304 338 306 q 313 292 319 302 l 193 100 q 189 83 186 89 q 213 76 191 76 l 296 76 q 314 73 308 76 q 319 57 319 69 l 319 26 q 315 5 319 9 q 292 0 310 0 l -50 0 q -68 4 -66 0 q -69 24 -69 8 "},"Å":{"ha":1250,"x_min":-69,"x_max":1125,"o":"m 783 1218 q 838 1238 814 1218 q 869 1291 862 1258 q 860 1345 876 1324 q 814 1366 845 1366 q 759 1345 783 1366 q 728 1291 735 1324 q 736 1238 721 1258 q 783 1218 751 1218 m 772 1167 q 691 1202 719 1167 q 674 1291 663 1238 q 704 1355 681 1326 q 758 1400 726 1383 q 825 1417 790 1417 q 907 1381 878 1417 q 923 1291 935 1344 q 893 1228 916 1256 q 839 1183 870 1199 q 772 1167 807 1167 m 658 839 l 391 415 q 375 390 381 399 q 401 382 369 382 l 747 382 q 776 387 774 382 q 775 414 778 392 l 709 842 q 703 880 705 869 q 693 892 701 892 q 679 876 688 892 q 658 839 671 860 m -69 24 l -69 50 q -67 71 -69 65 q -49 76 -64 76 l 54 76 q 78 83 74 76 q 90 100 83 89 l 689 1043 q 701 1058 695 1053 q 724 1063 707 1063 l 769 1063 q 789 1061 782 1063 q 798 1053 795 1059 q 803 1038 801 1048 l 969 111 q 982 81 974 86 q 1021 76 991 76 l 1101 76 q 1121 72 1117 76 q 1125 51 1125 67 l 1125 24 q 1120 4 1125 8 q 1099 0 1115 0 l 699 0 q 683 5 685 0 q 681 23 681 10 l 681 54 q 686 74 681 71 q 708 76 691 76 l 792 76 q 820 81 815 76 q 822 104 826 85 l 794 286 q 783 305 792 304 q 754 306 774 306 l 356 306 q 329 304 338 306 q 313 292 319 302 l 193 100 q 189 83 186 89 q 213 76 191 76 l 296 76 q 314 73 308 76 q 319 57 319 69 l 319 26 q 315 5 319 9 q 292 0 310 0 l -50 0 q -68 4 -66 0 q -69 24 -69 8 "},"Ā":{"ha":1250,"x_min":-69,"x_max":1125,"o":"m 613 1189 l 613 1212 q 616 1226 613 1222 q 627 1231 618 1231 l 923 1231 q 941 1227 936 1231 q 947 1209 947 1223 l 947 1188 q 944 1172 947 1176 q 931 1167 942 1167 l 638 1167 q 619 1170 624 1167 q 613 1189 613 1174 m 658 839 l 391 415 q 375 390 381 399 q 401 382 369 382 l 747 382 q 776 387 774 382 q 775 414 778 392 l 709 842 q 703 880 705 869 q 693 892 701 892 q 679 876 688 892 q 658 839 671 860 m -69 24 l -69 50 q -67 71 -69 65 q -49 76 -64 76 l 54 76 q 78 83 74 76 q 90 100 83 89 l 689 1043 q 701 1058 695 1053 q 724 1063 707 1063 l 769 1063 q 789 1061 782 1063 q 798 1053 795 1059 q 803 1038 801 1048 l 969 111 q 982 81 974 86 q 1021 76 991 76 l 1101 76 q 1121 72 1117 76 q 1125 51 1125 67 l 1125 24 q 1120 4 1125 8 q 1099 0 1115 0 l 699 0 q 683 5 685 0 q 681 23 681 10 l 681 54 q 686 74 681 71 q 708 76 691 76 l 792 76 q 820 81 815 76 q 822 104 826 85 l 794 286 q 783 305 792 304 q 754 306 774 306 l 356 306 q 329 304 338 306 q 313 292 319 302 l 193 100 q 189 83 186 89 q 213 76 191 76 l 296 76 q 314 73 308 76 q 319 57 319 69 l 319 26 q 315 5 319 9 q 292 0 310 0 l -50 0 q -68 4 -66 0 q -69 24 -69 8 "},"Ă":{"ha":1250,"x_min":-69,"x_max":1125,"o":"m 785 1167 q 686 1188 719 1167 q 646 1245 653 1208 q 649 1333 639 1283 q 667 1346 651 1346 l 677 1346 q 688 1335 689 1346 q 707 1266 681 1288 q 784 1243 733 1243 q 868 1263 832 1243 q 919 1326 904 1283 q 924 1341 923 1335 q 938 1346 925 1346 l 956 1346 q 968 1343 967 1346 q 967 1329 969 1340 q 906 1211 949 1256 q 785 1167 863 1167 m 658 839 l 391 415 q 375 390 381 399 q 401 382 369 382 l 747 382 q 776 387 774 382 q 775 414 778 392 l 709 842 q 703 880 705 869 q 693 892 701 892 q 679 876 688 892 q 658 839 671 860 m -69 24 l -69 50 q -67 71 -69 65 q -49 76 -64 76 l 54 76 q 78 83 74 76 q 90 100 83 89 l 689 1043 q 701 1058 695 1053 q 724 1063 707 1063 l 769 1063 q 789 1061 782 1063 q 798 1053 795 1059 q 803 1038 801 1048 l 969 111 q 982 81 974 86 q 1021 76 991 76 l 1101 76 q 1121 72 1117 76 q 1125 51 1125 67 l 1125 24 q 1120 4 1125 8 q 1099 0 1115 0 l 699 0 q 683 5 685 0 q 681 23 681 10 l 681 54 q 686 74 681 71 q 708 76 691 76 l 792 76 q 820 81 815 76 q 822 104 826 85 l 794 286 q 783 305 792 304 q 754 306 774 306 l 356 306 q 329 304 338 306 q 313 292 319 302 l 193 100 q 189 83 186 89 q 213 76 191 76 l 296 76 q 314 73 308 76 q 319 57 319 69 l 319 26 q 315 5 319 9 q 292 0 310 0 l -50 0 q -68 4 -66 0 q -69 24 -69 8 "},"Ą":{"ha":1250,"x_min":-69,"x_max":1125,"o":"m 819 -291 q 748 -281 781 -291 q 700 -248 716 -272 q 692 -185 683 -225 q 721 -128 698 -156 q 776 -74 744 -100 q 844 -26 809 -49 q 912 16 880 -3 q 934 26 925 24 q 947 23 944 28 q 944 10 950 17 q 928 -8 938 2 q 888 -48 908 -26 q 851 -97 867 -71 q 828 -151 835 -122 q 833 -200 823 -177 q 879 -224 843 -224 q 926 -211 905 -224 q 962 -181 947 -198 q 983 -176 974 -167 l 991 -183 q 996 -192 997 -188 q 990 -203 995 -195 q 920 -266 960 -241 q 819 -291 881 -291 m 658 839 l 391 415 q 375 390 381 399 q 401 382 369 382 l 747 382 q 776 387 774 382 q 775 414 778 392 l 709 842 q 703 880 705 869 q 693 892 701 892 q 679 876 688 892 q 658 839 671 860 m -69 24 l -69 50 q -67 71 -69 65 q -49 76 -64 76 l 54 76 q 78 83 74 76 q 90 100 83 89 l 689 1043 q 701 1058 695 1053 q 724 1063 707 1063 l 769 1063 q 789 1061 782 1063 q 798 1053 795 1059 q 803 1038 801 1048 l 969 111 q 982 81 974 86 q 1021 76 991 76 l 1101 76 q 1121 72 1117 76 q 1125 51 1125 67 l 1125 24 q 1120 4 1125 8 q 1099 0 1115 0 l 699 0 q 683 5 685 0 q 681 23 681 10 l 681 54 q 686 74 681 71 q 708 76 691 76 l 792 76 q 820 81 815 76 q 822 104 826 85 l 794 286 q 783 305 792 304 q 754 306 774 306 l 356 306 q 329 304 338 306 q 313 292 319 302 l 193 100 q 189 83 186 89 q 213 76 191 76 l 296 76 q 314 73 308 76 q 319 57 319 69 l 319 26 q 315 5 319 9 q 292 0 310 0 l -50 0 q -68 4 -66 0 q -69 24 -69 8 "},"B":{"ha":1031,"x_min":-56,"x_max":1003,"o":"m 517 0 l -28 0 q -50 5 -45 0 q -56 28 -56 10 l -56 59 q -52 73 -56 69 q -39 76 -48 76 l 81 76 q 110 81 101 76 q 122 103 119 86 l 301 940 q 300 961 304 957 q 274 965 296 965 l 164 965 q 142 969 149 965 q 136 990 136 973 l 136 1027 q 141 1039 136 1037 q 156 1042 145 1042 l 711 1042 q 880 1004 816 1042 q 974 910 944 967 q 1003 799 1003 854 q 945 631 1003 692 q 781 545 887 569 q 762 543 767 542 q 756 539 756 544 q 763 535 756 534 q 780 533 769 536 q 907 457 867 510 q 947 319 947 403 q 927 200 947 257 q 858 97 906 142 q 726 26 809 52 q 517 0 642 0 m 503 76 q 646 100 590 76 q 735 162 703 124 q 781 241 767 199 q 794 319 794 283 q 774 415 794 374 q 714 478 754 456 q 614 500 674 500 l 371 500 q 349 494 353 500 q 340 474 344 489 l 261 105 q 260 84 258 91 q 281 76 261 76 l 503 76 m 392 576 l 600 576 q 685 590 640 576 q 772 631 731 603 q 838 700 813 658 q 864 799 864 742 q 827 918 864 871 q 711 965 790 965 l 468 965 q 447 962 450 965 q 440 944 444 958 l 368 605 q 367 583 365 589 q 392 576 370 576 "},"C":{"ha":1107,"x_min":63,"x_max":1149,"o":"m 994 356 q 917 229 963 294 q 808 109 871 164 q 664 20 745 53 q 479 -14 582 -14 q 265 35 359 -14 q 117 181 171 83 q 63 424 63 278 q 91 601 63 512 q 174 773 120 691 q 304 918 228 854 q 473 1018 379 981 q 674 1056 566 1056 q 867 1022 791 1056 q 988 935 943 988 q 1001 922 999 922 q 1012 938 1003 922 l 1066 1031 q 1075 1039 1069 1037 q 1092 1042 1081 1042 l 1133 1042 q 1146 1039 1144 1042 q 1147 1027 1149 1037 l 1078 710 q 1071 692 1075 696 q 1049 688 1067 688 l 1021 688 q 1002 692 1005 688 q 1000 710 999 697 q 966 845 1006 786 q 853 937 926 903 q 685 971 780 971 q 489 920 575 971 q 343 789 403 870 q 253 611 284 707 q 222 424 222 515 q 252 233 222 311 q 343 114 282 155 q 497 74 404 74 q 629 101 567 74 q 743 171 691 128 q 835 265 794 215 q 902 363 875 315 q 913 376 907 371 q 932 382 919 382 l 968 382 q 997 376 992 382 q 994 356 1002 371 "},"Ç":{"ha":1107,"x_min":63,"x_max":1149,"o":"m 201 -344 l 204 -332 q 213 -317 207 -320 q 229 -313 219 -314 q 286 -303 258 -311 q 334 -281 314 -296 q 359 -244 354 -267 q 351 -201 365 -216 q 309 -179 336 -185 q 252 -169 283 -172 q 231 -163 233 -167 q 238 -149 228 -158 l 372 -9 q 394 -2 378 -2 l 412 -2 q 432 -5 428 -2 q 428 -16 435 -8 l 349 -98 q 339 -111 338 -110 q 358 -115 340 -113 q 444 -143 414 -119 q 461 -226 474 -167 q 429 -289 453 -263 q 370 -331 405 -315 q 296 -355 336 -347 q 215 -364 256 -362 q 201 -344 197 -365 m 994 356 q 917 229 963 294 q 808 109 871 164 q 664 20 745 53 q 479 -14 582 -14 q 265 35 359 -14 q 117 181 171 83 q 63 424 63 278 q 91 601 63 512 q 174 773 120 691 q 304 918 228 854 q 473 1018 379 981 q 674 1056 566 1056 q 867 1022 791 1056 q 988 935 943 988 q 1001 922 999 922 q 1012 938 1003 922 l 1066 1031 q 1075 1039 1069 1037 q 1092 1042 1081 1042 l 1133 1042 q 1146 1039 1144 1042 q 1147 1027 1149 1037 l 1078 710 q 1071 692 1075 696 q 1049 688 1067 688 l 1021 688 q 1002 692 1005 688 q 1000 710 999 697 q 966 845 1006 786 q 853 937 926 903 q 685 971 780 971 q 489 920 575 971 q 343 789 403 870 q 253 611 284 707 q 222 424 222 515 q 252 233 222 311 q 343 114 282 155 q 497 74 404 74 q 629 101 567 74 q 743 171 691 128 q 835 265 794 215 q 902 363 875 315 q 913 376 907 371 q 932 382 919 382 l 968 382 q 997 376 992 382 q 994 356 1002 371 "},"Ć":{"ha":1107,"x_min":63,"x_max":1149,"o":"m 913 1333 q 920 1286 928 1308 q 894 1255 913 1265 l 736 1163 q 722 1157 727 1157 q 709 1165 717 1156 l 685 1190 q 685 1212 674 1201 l 822 1344 q 852 1360 835 1358 q 887 1356 870 1363 q 913 1333 904 1349 m 994 356 q 917 229 963 294 q 808 109 871 164 q 664 20 745 53 q 479 -14 582 -14 q 265 35 359 -14 q 117 181 171 83 q 63 424 63 278 q 91 601 63 512 q 174 773 120 691 q 304 918 228 854 q 473 1018 379 981 q 674 1056 566 1056 q 867 1022 791 1056 q 988 935 943 988 q 1001 922 999 922 q 1012 938 1003 922 l 1066 1031 q 1075 1039 1069 1037 q 1092 1042 1081 1042 l 1133 1042 q 1146 1039 1144 1042 q 1147 1027 1149 1037 l 1078 710 q 1071 692 1075 696 q 1049 688 1067 688 l 1021 688 q 1002 692 1005 688 q 1000 710 999 697 q 966 845 1006 786 q 853 937 926 903 q 685 971 780 971 q 489 920 575 971 q 343 789 403 870 q 253 611 284 707 q 222 424 222 515 q 252 233 222 311 q 343 114 282 155 q 497 74 404 74 q 629 101 567 74 q 743 171 691 128 q 835 265 794 215 q 902 363 875 315 q 913 376 907 371 q 932 382 919 382 l 968 382 q 997 376 992 382 q 994 356 1002 371 "},"Ĉ":{"ha":1107,"x_min":63,"x_max":1149,"o":"m 560 1174 l 549 1190 q 544 1201 543 1198 q 554 1211 545 1203 l 713 1342 q 729 1351 722 1349 q 751 1353 736 1353 l 810 1353 q 830 1351 824 1353 q 840 1342 835 1348 l 945 1208 q 949 1201 949 1203 q 942 1194 949 1199 l 922 1177 q 910 1170 913 1169 q 900 1176 908 1170 l 793 1271 q 758 1272 778 1284 l 584 1169 q 570 1165 575 1164 q 560 1174 565 1167 m 994 356 q 917 229 963 294 q 808 109 871 164 q 664 20 745 53 q 479 -14 582 -14 q 265 35 359 -14 q 117 181 171 83 q 63 424 63 278 q 91 601 63 512 q 174 773 120 691 q 304 918 228 854 q 473 1018 379 981 q 674 1056 566 1056 q 867 1022 791 1056 q 988 935 943 988 q 1001 922 999 922 q 1012 938 1003 922 l 1066 1031 q 1075 1039 1069 1037 q 1092 1042 1081 1042 l 1133 1042 q 1146 1039 1144 1042 q 1147 1027 1149 1037 l 1078 710 q 1071 692 1075 696 q 1049 688 1067 688 l 1021 688 q 1002 692 1005 688 q 1000 710 999 697 q 966 845 1006 786 q 853 937 926 903 q 685 971 780 971 q 489 920 575 971 q 343 789 403 870 q 253 611 284 707 q 222 424 222 515 q 252 233 222 311 q 343 114 282 155 q 497 74 404 74 q 629 101 567 74 q 743 171 691 128 q 835 265 794 215 q 902 363 875 315 q 913 376 907 371 q 932 382 919 382 l 968 382 q 997 376 992 382 q 994 356 1002 371 "},"Ċ":{"ha":1107,"x_min":63,"x_max":1149,"o":"m 763 1201 q 704 1226 728 1201 q 679 1285 679 1251 q 704 1344 679 1319 q 763 1368 728 1368 q 822 1344 797 1368 q 846 1285 846 1319 q 822 1226 846 1251 q 763 1201 797 1201 m 994 356 q 917 229 963 294 q 808 109 871 164 q 664 20 745 53 q 479 -14 582 -14 q 265 35 359 -14 q 117 181 171 83 q 63 424 63 278 q 91 601 63 512 q 174 773 120 691 q 304 918 228 854 q 473 1018 379 981 q 674 1056 566 1056 q 867 1022 791 1056 q 988 935 943 988 q 1001 922 999 922 q 1012 938 1003 922 l 1066 1031 q 1075 1039 1069 1037 q 1092 1042 1081 1042 l 1133 1042 q 1146 1039 1144 1042 q 1147 1027 1149 1037 l 1078 710 q 1071 692 1075 696 q 1049 688 1067 688 l 1021 688 q 1002 692 1005 688 q 1000 710 999 697 q 966 845 1006 786 q 853 937 926 903 q 685 971 780 971 q 489 920 575 971 q 343 789 403 870 q 253 611 284 707 q 222 424 222 515 q 252 233 222 311 q 343 114 282 155 q 497 74 404 74 q 629 101 567 74 q 743 171 691 128 q 835 265 794 215 q 902 363 875 315 q 913 376 907 371 q 932 382 919 382 l 968 382 q 997 376 992 382 q 994 356 1002 371 "},"Č":{"ha":1107,"x_min":63,"x_max":1149,"o":"m 669 1195 l 580 1310 q 572 1325 573 1319 q 583 1338 572 1330 l 597 1347 q 615 1355 610 1356 q 631 1346 620 1353 l 724 1275 q 758 1261 742 1262 q 797 1275 774 1261 l 930 1356 q 947 1361 942 1363 q 959 1349 952 1359 l 965 1344 q 973 1329 972 1335 q 962 1314 974 1324 l 813 1190 q 797 1178 803 1183 q 774 1174 791 1174 l 719 1174 q 687 1180 697 1174 q 669 1195 677 1185 m 994 356 q 917 229 963 294 q 808 109 871 164 q 664 20 745 53 q 479 -14 582 -14 q 265 35 359 -14 q 117 181 171 83 q 63 424 63 278 q 91 601 63 512 q 174 773 120 691 q 304 918 228 854 q 473 1018 379 981 q 674 1056 566 1056 q 867 1022 791 1056 q 988 935 943 988 q 1001 922 999 922 q 1012 938 1003 922 l 1066 1031 q 1075 1039 1069 1037 q 1092 1042 1081 1042 l 1133 1042 q 1146 1039 1144 1042 q 1147 1027 1149 1037 l 1078 710 q 1071 692 1075 696 q 1049 688 1067 688 l 1021 688 q 1002 692 1005 688 q 1000 710 999 697 q 966 845 1006 786 q 853 937 926 903 q 685 971 780 971 q 489 920 575 971 q 343 789 403 870 q 253 611 284 707 q 222 424 222 515 q 252 233 222 311 q 343 114 282 155 q 497 74 404 74 q 629 101 567 74 q 743 171 691 128 q 835 265 794 215 q 902 363 875 315 q 913 376 907 371 q 932 382 919 382 l 968 382 q 997 376 992 382 q 994 356 1002 371 "},"D":{"ha":1136,"x_min":-56,"x_max":1074,"o":"m -56 22 l -56 54 q -49 74 -56 71 q -26 76 -43 76 l 79 76 q 102 84 97 76 q 110 106 107 92 l 285 929 q 285 960 291 954 q 249 965 280 965 l 161 965 q 138 972 142 965 q 135 997 135 978 l 135 1013 q 139 1036 135 1031 q 160 1042 142 1042 l 657 1042 q 859 1006 778 1042 q 987 913 940 971 q 1054 785 1034 855 q 1074 646 1074 715 q 1020 385 1074 503 q 877 181 967 267 q 676 47 788 94 q 449 0 565 0 l -33 0 q -51 4 -47 0 q -56 22 -56 8 m 276 76 l 449 76 q 629 122 544 76 q 777 249 713 167 q 877 439 841 331 q 914 674 914 548 q 905 784 914 732 q 871 878 897 837 q 794 942 845 919 q 657 965 742 965 l 476 965 q 438 959 447 965 q 424 929 430 953 l 249 106 q 249 82 244 88 q 276 76 253 76 "},"Ď":{"ha":1136,"x_min":-56,"x_max":1074,"o":"m 543 1195 l 453 1310 q 446 1325 447 1319 q 456 1338 445 1330 l 471 1347 q 489 1355 484 1356 q 504 1346 494 1353 l 597 1275 q 631 1261 615 1262 q 671 1275 647 1261 l 803 1356 q 821 1361 816 1363 q 833 1349 826 1359 l 838 1344 q 847 1329 846 1335 q 835 1314 847 1324 l 686 1190 q 671 1178 677 1183 q 648 1174 665 1174 l 592 1174 q 561 1180 571 1174 q 543 1195 551 1185 m -56 22 l -56 54 q -49 74 -56 71 q -26 76 -43 76 l 79 76 q 102 84 97 76 q 110 106 107 92 l 285 929 q 285 960 291 954 q 249 965 280 965 l 161 965 q 138 972 142 965 q 135 997 135 978 l 135 1013 q 139 1036 135 1031 q 160 1042 142 1042 l 657 1042 q 859 1006 778 1042 q 987 913 940 971 q 1054 785 1034 855 q 1074 646 1074 715 q 1020 385 1074 503 q 877 181 967 267 q 676 47 788 94 q 449 0 565 0 l -33 0 q -51 4 -47 0 q -56 22 -56 8 m 276 76 l 449 76 q 629 122 544 76 q 777 249 713 167 q 877 439 841 331 q 914 674 914 548 q 905 784 914 732 q 871 878 897 837 q 794 942 845 919 q 657 965 742 965 l 476 965 q 438 959 447 965 q 424 929 430 953 l 249 106 q 249 82 244 88 q 276 76 253 76 "},"E":{"ha":1013,"x_min":-56,"x_max":1066,"o":"m 342 481 l 258 108 q 258 82 253 87 q 292 76 264 76 l 553 76 q 703 98 644 76 q 800 175 763 120 q 865 328 838 230 q 873 348 869 342 q 896 354 876 354 l 917 354 q 936 351 933 354 q 938 336 940 348 l 866 32 q 854 6 861 12 q 821 0 847 0 l -31 0 q -49 3 -43 0 q -56 21 -56 7 l -56 44 q -51 70 -56 65 q -28 76 -47 76 l 82 76 q 110 81 106 76 q 118 106 114 86 l 307 934 q 305 960 312 956 q 272 965 299 965 l 172 965 q 149 972 153 965 q 144 997 144 978 l 144 1019 q 155 1038 144 1035 q 178 1042 165 1042 l 1022 1042 q 1059 1037 1053 1042 q 1060 1008 1066 1033 l 1000 744 q 991 720 995 725 q 963 715 987 715 l 942 715 q 926 725 925 715 q 930 746 928 734 q 936 877 946 829 q 888 945 927 925 q 771 965 848 965 l 493 965 q 454 958 459 965 q 442 924 449 950 l 369 599 q 368 572 364 578 q 400 567 373 567 l 463 567 q 593 602 543 567 q 667 696 642 638 q 674 717 672 708 q 694 726 677 726 l 715 726 q 736 721 734 726 q 734 700 738 715 l 656 369 q 651 350 653 356 q 632 344 649 344 l 610 344 q 592 356 592 344 q 593 379 592 367 q 570 474 599 436 q 463 511 542 511 l 382 511 q 352 506 356 511 q 342 481 347 501 "},"È":{"ha":1013,"x_min":-56,"x_max":1066,"o":"m 503 1333 q 530 1356 513 1349 q 565 1360 547 1363 q 595 1344 583 1358 l 730 1213 q 731 1188 742 1201 l 707 1163 q 698 1156 701 1157 q 686 1159 694 1154 l 522 1255 q 497 1286 505 1265 q 503 1333 488 1308 m 342 481 l 258 108 q 258 82 253 87 q 292 76 264 76 l 553 76 q 703 98 644 76 q 800 175 763 120 q 865 328 838 230 q 873 348 869 342 q 896 354 876 354 l 917 354 q 936 351 933 354 q 938 336 940 348 l 866 32 q 854 6 861 12 q 821 0 847 0 l -31 0 q -49 3 -43 0 q -56 21 -56 7 l -56 44 q -51 70 -56 65 q -28 76 -47 76 l 82 76 q 110 81 106 76 q 118 106 114 86 l 307 934 q 305 960 312 956 q 272 965 299 965 l 172 965 q 149 972 153 965 q 144 997 144 978 l 144 1019 q 155 1038 144 1035 q 178 1042 165 1042 l 1022 1042 q 1059 1037 1053 1042 q 1060 1008 1066 1033 l 1000 744 q 991 720 995 725 q 963 715 987 715 l 942 715 q 926 725 925 715 q 930 746 928 734 q 936 877 946 829 q 888 945 927 925 q 771 965 848 965 l 493 965 q 454 958 459 965 q 442 924 449 950 l 369 599 q 368 572 364 578 q 400 567 373 567 l 463 567 q 593 602 543 567 q 667 696 642 638 q 674 717 672 708 q 694 726 677 726 l 715 726 q 736 721 734 726 q 734 700 738 715 l 656 369 q 651 350 653 356 q 632 344 649 344 l 610 344 q 592 356 592 344 q 593 379 592 367 q 570 474 599 436 q 463 511 542 511 l 382 511 q 352 506 356 511 q 342 481 347 501 "},"É":{"ha":1013,"x_min":-56,"x_max":1066,"o":"m 828 1333 q 836 1286 844 1308 q 810 1255 828 1265 l 651 1163 q 637 1157 642 1157 q 624 1165 632 1156 l 601 1190 q 601 1212 590 1201 l 737 1344 q 768 1360 750 1358 q 802 1356 785 1363 q 828 1333 819 1349 m 342 481 l 258 108 q 258 82 253 87 q 292 76 264 76 l 553 76 q 703 98 644 76 q 800 175 763 120 q 865 328 838 230 q 873 348 869 342 q 896 354 876 354 l 917 354 q 936 351 933 354 q 938 336 940 348 l 866 32 q 854 6 861 12 q 821 0 847 0 l -31 0 q -49 3 -43 0 q -56 21 -56 7 l -56 44 q -51 70 -56 65 q -28 76 -47 76 l 82 76 q 110 81 106 76 q 118 106 114 86 l 307 934 q 305 960 312 956 q 272 965 299 965 l 172 965 q 149 972 153 965 q 144 997 144 978 l 144 1019 q 155 1038 144 1035 q 178 1042 165 1042 l 1022 1042 q 1059 1037 1053 1042 q 1060 1008 1066 1033 l 1000 744 q 991 720 995 725 q 963 715 987 715 l 942 715 q 926 725 925 715 q 930 746 928 734 q 936 877 946 829 q 888 945 927 925 q 771 965 848 965 l 493 965 q 454 958 459 965 q 442 924 449 950 l 369 599 q 368 572 364 578 q 400 567 373 567 l 463 567 q 593 602 543 567 q 667 696 642 638 q 674 717 672 708 q 694 726 677 726 l 715 726 q 736 721 734 726 q 734 700 738 715 l 656 369 q 651 350 653 356 q 632 344 649 344 l 610 344 q 592 356 592 344 q 593 379 592 367 q 570 474 599 436 q 463 511 542 511 l 382 511 q 352 506 356 511 q 342 481 347 501 "},"Ê":{"ha":1013,"x_min":-56,"x_max":1066,"o":"m 475 1174 l 465 1190 q 459 1201 458 1198 q 469 1211 460 1203 l 628 1342 q 644 1351 637 1349 q 667 1353 651 1353 l 726 1353 q 745 1351 740 1353 q 756 1342 751 1348 l 860 1208 q 865 1201 865 1203 q 858 1194 865 1199 l 838 1177 q 826 1170 828 1169 q 815 1176 823 1170 l 708 1271 q 674 1272 693 1284 l 499 1169 q 485 1165 490 1164 q 475 1174 481 1167 m 342 481 l 258 108 q 258 82 253 87 q 292 76 264 76 l 553 76 q 703 98 644 76 q 800 175 763 120 q 865 328 838 230 q 873 348 869 342 q 896 354 876 354 l 917 354 q 936 351 933 354 q 938 336 940 348 l 866 32 q 854 6 861 12 q 821 0 847 0 l -31 0 q -49 3 -43 0 q -56 21 -56 7 l -56 44 q -51 70 -56 65 q -28 76 -47 76 l 82 76 q 110 81 106 76 q 118 106 114 86 l 307 934 q 305 960 312 956 q 272 965 299 965 l 172 965 q 149 972 153 965 q 144 997 144 978 l 144 1019 q 155 1038 144 1035 q 178 1042 165 1042 l 1022 1042 q 1059 1037 1053 1042 q 1060 1008 1066 1033 l 1000 744 q 991 720 995 725 q 963 715 987 715 l 942 715 q 926 725 925 715 q 930 746 928 734 q 936 877 946 829 q 888 945 927 925 q 771 965 848 965 l 493 965 q 454 958 459 965 q 442 924 449 950 l 369 599 q 368 572 364 578 q 400 567 373 567 l 463 567 q 593 602 543 567 q 667 696 642 638 q 674 717 672 708 q 694 726 677 726 l 715 726 q 736 721 734 726 q 734 700 738 715 l 656 369 q 651 350 653 356 q 632 344 649 344 l 610 344 q 592 356 592 344 q 593 379 592 367 q 570 474 599 436 q 463 511 542 511 l 382 511 q 352 506 356 511 q 342 481 347 501 "},"Ë":{"ha":1013,"x_min":-56,"x_max":1066,"o":"m 780 1174 q 733 1193 752 1174 q 713 1240 713 1213 q 733 1288 713 1268 q 780 1308 752 1308 q 827 1288 808 1308 q 847 1240 847 1268 q 827 1193 847 1213 q 780 1174 808 1174 m 558 1174 q 510 1193 530 1174 q 491 1240 491 1213 q 510 1288 491 1268 q 558 1308 530 1308 q 605 1288 585 1308 q 624 1240 624 1268 q 605 1193 624 1213 q 558 1174 585 1174 m 342 481 l 258 108 q 258 82 253 87 q 292 76 264 76 l 553 76 q 703 98 644 76 q 800 175 763 120 q 865 328 838 230 q 873 348 869 342 q 896 354 876 354 l 917 354 q 936 351 933 354 q 938 336 940 348 l 866 32 q 854 6 861 12 q 821 0 847 0 l -31 0 q -49 3 -43 0 q -56 21 -56 7 l -56 44 q -51 70 -56 65 q -28 76 -47 76 l 82 76 q 110 81 106 76 q 118 106 114 86 l 307 934 q 305 960 312 956 q 272 965 299 965 l 172 965 q 149 972 153 965 q 144 997 144 978 l 144 1019 q 155 1038 144 1035 q 178 1042 165 1042 l 1022 1042 q 1059 1037 1053 1042 q 1060 1008 1066 1033 l 1000 744 q 991 720 995 725 q 963 715 987 715 l 942 715 q 926 725 925 715 q 930 746 928 734 q 936 877 946 829 q 888 945 927 925 q 771 965 848 965 l 493 965 q 454 958 459 965 q 442 924 449 950 l 369 599 q 368 572 364 578 q 400 567 373 567 l 463 567 q 593 602 543 567 q 667 696 642 638 q 674 717 672 708 q 694 726 677 726 l 715 726 q 736 721 734 726 q 734 700 738 715 l 656 369 q 651 350 653 356 q 632 344 649 344 l 610 344 q 592 356 592 344 q 593 379 592 367 q 570 474 599 436 q 463 511 542 511 l 382 511 q 352 506 356 511 q 342 481 347 501 "},"Ē":{"ha":1013,"x_min":-56,"x_max":1066,"o":"m 495 1189 l 495 1212 q 498 1226 495 1222 q 509 1231 500 1231 l 805 1231 q 823 1227 818 1231 q 828 1209 828 1223 l 828 1188 q 826 1172 828 1176 q 813 1167 824 1167 l 519 1167 q 501 1170 506 1167 q 495 1189 495 1174 m 342 481 l 258 108 q 258 82 253 87 q 292 76 264 76 l 553 76 q 703 98 644 76 q 800 175 763 120 q 865 328 838 230 q 873 348 869 342 q 896 354 876 354 l 917 354 q 936 351 933 354 q 938 336 940 348 l 866 32 q 854 6 861 12 q 821 0 847 0 l -31 0 q -49 3 -43 0 q -56 21 -56 7 l -56 44 q -51 70 -56 65 q -28 76 -47 76 l 82 76 q 110 81 106 76 q 118 106 114 86 l 307 934 q 305 960 312 956 q 272 965 299 965 l 172 965 q 149 972 153 965 q 144 997 144 978 l 144 1019 q 155 1038 144 1035 q 178 1042 165 1042 l 1022 1042 q 1059 1037 1053 1042 q 1060 1008 1066 1033 l 1000 744 q 991 720 995 725 q 963 715 987 715 l 942 715 q 926 725 925 715 q 930 746 928 734 q 936 877 946 829 q 888 945 927 925 q 771 965 848 965 l 493 965 q 454 958 459 965 q 442 924 449 950 l 369 599 q 368 572 364 578 q 400 567 373 567 l 463 567 q 593 602 543 567 q 667 696 642 638 q 674 717 672 708 q 694 726 677 726 l 715 726 q 736 721 734 726 q 734 700 738 715 l 656 369 q 651 350 653 356 q 632 344 649 344 l 610 344 q 592 356 592 344 q 593 379 592 367 q 570 474 599 436 q 463 511 542 511 l 382 511 q 352 506 356 511 q 342 481 347 501 "},"Ĕ":{"ha":1013,"x_min":-56,"x_max":1066,"o":"m 667 1167 q 568 1188 601 1167 q 528 1245 535 1208 q 531 1333 521 1283 q 549 1346 533 1346 l 559 1346 q 569 1335 571 1346 q 589 1266 563 1288 q 666 1243 615 1243 q 750 1263 714 1243 q 801 1326 786 1283 q 806 1341 805 1335 q 819 1346 807 1346 l 838 1346 q 850 1343 849 1346 q 849 1329 851 1340 q 788 1211 831 1256 q 667 1167 745 1167 m 342 481 l 258 108 q 258 82 253 87 q 292 76 264 76 l 553 76 q 703 98 644 76 q 800 175 763 120 q 865 328 838 230 q 873 348 869 342 q 896 354 876 354 l 917 354 q 936 351 933 354 q 938 336 940 348 l 866 32 q 854 6 861 12 q 821 0 847 0 l -31 0 q -49 3 -43 0 q -56 21 -56 7 l -56 44 q -51 70 -56 65 q -28 76 -47 76 l 82 76 q 110 81 106 76 q 118 106 114 86 l 307 934 q 305 960 312 956 q 272 965 299 965 l 172 965 q 149 972 153 965 q 144 997 144 978 l 144 1019 q 155 1038 144 1035 q 178 1042 165 1042 l 1022 1042 q 1059 1037 1053 1042 q 1060 1008 1066 1033 l 1000 744 q 991 720 995 725 q 963 715 987 715 l 942 715 q 926 725 925 715 q 930 746 928 734 q 936 877 946 829 q 888 945 927 925 q 771 965 848 965 l 493 965 q 454 958 459 965 q 442 924 449 950 l 369 599 q 368 572 364 578 q 400 567 373 567 l 463 567 q 593 602 543 567 q 667 696 642 638 q 674 717 672 708 q 694 726 677 726 l 715 726 q 736 721 734 726 q 734 700 738 715 l 656 369 q 651 350 653 356 q 632 344 649 344 l 610 344 q 592 356 592 344 q 593 379 592 367 q 570 474 599 436 q 463 511 542 511 l 382 511 q 352 506 356 511 q 342 481 347 501 "},"Ė":{"ha":1013,"x_min":-56,"x_max":1066,"o":"m 678 1201 q 619 1226 644 1201 q 594 1285 594 1251 q 619 1344 594 1319 q 678 1368 644 1368 q 737 1344 713 1368 q 761 1285 761 1319 q 737 1226 761 1251 q 678 1201 713 1201 m 342 481 l 258 108 q 258 82 253 87 q 292 76 264 76 l 553 76 q 703 98 644 76 q 800 175 763 120 q 865 328 838 230 q 873 348 869 342 q 896 354 876 354 l 917 354 q 936 351 933 354 q 938 336 940 348 l 866 32 q 854 6 861 12 q 821 0 847 0 l -31 0 q -49 3 -43 0 q -56 21 -56 7 l -56 44 q -51 70 -56 65 q -28 76 -47 76 l 82 76 q 110 81 106 76 q 118 106 114 86 l 307 934 q 305 960 312 956 q 272 965 299 965 l 172 965 q 149 972 153 965 q 144 997 144 978 l 144 1019 q 155 1038 144 1035 q 178 1042 165 1042 l 1022 1042 q 1059 1037 1053 1042 q 1060 1008 1066 1033 l 1000 744 q 991 720 995 725 q 963 715 987 715 l 942 715 q 926 725 925 715 q 930 746 928 734 q 936 877 946 829 q 888 945 927 925 q 771 965 848 965 l 493 965 q 454 958 459 965 q 442 924 449 950 l 369 599 q 368 572 364 578 q 400 567 373 567 l 463 567 q 593 602 543 567 q 667 696 642 638 q 674 717 672 708 q 694 726 677 726 l 715 726 q 736 721 734 726 q 734 700 738 715 l 656 369 q 651 350 653 356 q 632 344 649 344 l 610 344 q 592 356 592 344 q 593 379 592 367 q 570 474 599 436 q 463 511 542 511 l 382 511 q 352 506 356 511 q 342 481 347 501 "},"Ę":{"ha":1013,"x_min":-56,"x_max":1066,"o":"m 653 -291 q 582 -281 614 -291 q 533 -248 549 -272 q 525 -185 517 -225 q 554 -128 531 -156 q 610 -74 577 -100 q 678 -26 642 -49 q 745 16 713 -3 q 768 26 758 24 q 780 23 777 28 q 777 10 783 17 q 761 -8 772 2 q 721 -48 742 -26 q 684 -97 700 -71 q 662 -151 668 -122 q 666 -200 656 -177 q 713 -224 676 -224 q 759 -211 738 -224 q 795 -181 780 -198 q 816 -176 807 -167 l 824 -183 q 829 -192 830 -188 q 823 -203 828 -195 q 754 -266 794 -241 q 653 -291 714 -291 m 342 481 l 258 108 q 258 82 253 87 q 292 76 264 76 l 553 76 q 703 98 644 76 q 800 175 763 120 q 865 328 838 230 q 873 348 869 342 q 896 354 876 354 l 917 354 q 936 351 933 354 q 938 336 940 348 l 866 32 q 854 6 861 12 q 821 0 847 0 l -31 0 q -49 3 -43 0 q -56 21 -56 7 l -56 44 q -51 70 -56 65 q -28 76 -47 76 l 82 76 q 110 81 106 76 q 118 106 114 86 l 307 934 q 305 960 312 956 q 272 965 299 965 l 172 965 q 149 972 153 965 q 144 997 144 978 l 144 1019 q 155 1038 144 1035 q 178 1042 165 1042 l 1022 1042 q 1059 1037 1053 1042 q 1060 1008 1066 1033 l 1000 744 q 991 720 995 725 q 963 715 987 715 l 942 715 q 926 725 925 715 q 930 746 928 734 q 936 877 946 829 q 888 945 927 925 q 771 965 848 965 l 493 965 q 454 958 459 965 q 442 924 449 950 l 369 599 q 368 572 364 578 q 400 567 373 567 l 463 567 q 593 602 543 567 q 667 696 642 638 q 674 717 672 708 q 694 726 677 726 l 715 726 q 736 721 734 726 q 734 700 738 715 l 656 369 q 651 350 653 356 q 632 344 649 344 l 610 344 q 592 356 592 344 q 593 379 592 367 q 570 474 599 436 q 463 511 542 511 l 382 511 q 352 506 356 511 q 342 481 347 501 "},"Ě":{"ha":1013,"x_min":-56,"x_max":1066,"o":"m 585 1195 l 495 1310 q 488 1325 488 1319 q 498 1338 487 1330 l 513 1347 q 531 1355 526 1356 q 546 1346 535 1353 l 639 1275 q 673 1261 657 1262 q 713 1275 689 1261 l 845 1356 q 863 1361 858 1363 q 874 1349 867 1359 l 880 1344 q 888 1329 888 1335 q 877 1314 889 1324 l 728 1190 q 713 1178 719 1183 q 690 1174 706 1174 l 634 1174 q 602 1180 613 1174 q 585 1195 592 1185 m 342 481 l 258 108 q 258 82 253 87 q 292 76 264 76 l 553 76 q 703 98 644 76 q 800 175 763 120 q 865 328 838 230 q 873 348 869 342 q 896 354 876 354 l 917 354 q 936 351 933 354 q 938 336 940 348 l 866 32 q 854 6 861 12 q 821 0 847 0 l -31 0 q -49 3 -43 0 q -56 21 -56 7 l -56 44 q -51 70 -56 65 q -28 76 -47 76 l 82 76 q 110 81 106 76 q 118 106 114 86 l 307 934 q 305 960 312 956 q 272 965 299 965 l 172 965 q 149 972 153 965 q 144 997 144 978 l 144 1019 q 155 1038 144 1035 q 178 1042 165 1042 l 1022 1042 q 1059 1037 1053 1042 q 1060 1008 1066 1033 l 1000 744 q 991 720 995 725 q 963 715 987 715 l 942 715 q 926 725 925 715 q 930 746 928 734 q 936 877 946 829 q 888 945 927 925 q 771 965 848 965 l 493 965 q 454 958 459 965 q 442 924 449 950 l 369 599 q 368 572 364 578 q 400 567 373 567 l 463 567 q 593 602 543 567 q 667 696 642 638 q 674 717 672 708 q 694 726 677 726 l 715 726 q 736 721 734 726 q 734 700 738 715 l 656 369 q 651 350 653 356 q 632 344 649 344 l 610 344 q 592 356 592 344 q 593 379 592 367 q 570 474 599 436 q 463 511 542 511 l 382 511 q 352 506 356 511 q 342 481 347 501 "},"F":{"ha":999,"x_min":-56,"x_max":1066,"o":"m -56 29 l -56 54 q -49 73 -56 69 q -28 76 -42 76 l 88 76 q 111 81 108 76 q 117 101 114 85 l 307 938 q 307 960 311 956 q 279 965 303 965 l 179 965 q 151 969 158 965 q 144 994 144 973 l 144 1018 q 151 1038 144 1034 q 172 1042 157 1042 l 1029 1042 q 1063 1036 1059 1042 q 1060 1006 1066 1031 l 1000 744 q 993 721 996 727 q 967 715 990 715 l 947 715 q 928 722 930 715 q 929 742 926 729 q 937 875 946 826 q 889 945 928 924 q 771 965 849 965 l 493 965 q 457 960 465 965 q 444 931 450 955 l 363 569 q 364 556 360 558 q 382 553 368 553 l 463 553 q 594 589 544 553 q 668 685 644 626 q 674 704 672 695 q 692 713 676 713 l 719 713 q 736 709 733 713 q 737 696 739 706 l 653 332 q 647 319 651 322 q 630 317 642 317 l 614 317 q 593 324 594 317 q 593 347 592 332 q 572 444 600 406 q 463 483 543 483 l 364 483 q 348 482 354 483 q 340 472 342 481 l 256 101 q 257 81 253 86 q 279 76 260 76 l 394 76 q 410 71 408 76 q 413 53 413 66 l 413 24 q 406 4 413 8 q 385 0 400 0 l -32 0 q -52 6 -49 0 q -56 29 -56 12 "},"G":{"ha":1204,"x_min":63,"x_max":1176,"o":"m 733 514 l 1150 514 q 1169 511 1162 514 q 1176 494 1176 508 l 1176 451 q 1171 428 1176 433 q 1146 424 1165 424 l 1039 424 q 1018 416 1020 424 q 1012 394 1016 408 l 975 267 q 967 243 971 253 q 956 222 963 233 q 859 117 923 172 q 703 24 795 63 q 492 -14 610 -14 q 271 34 368 -14 q 118 179 174 82 q 63 424 63 276 q 91 601 63 512 q 174 773 120 691 q 304 918 228 854 q 473 1018 379 981 q 674 1056 566 1056 q 857 1026 783 1056 q 975 949 930 996 q 992 930 987 937 q 1002 926 997 923 q 1016 946 1006 929 l 1062 1025 q 1074 1038 1067 1035 q 1096 1042 1081 1042 l 1126 1042 q 1145 1038 1142 1042 q 1144 1022 1147 1035 l 1078 713 q 1070 693 1076 699 q 1047 688 1065 688 l 1018 688 q 1001 692 1004 688 q 999 708 999 697 q 967 844 1006 785 q 853 937 927 903 q 685 971 780 971 q 489 920 575 971 q 343 789 403 870 q 253 611 284 707 q 222 424 222 515 q 253 237 222 318 q 343 111 283 156 q 493 65 403 65 q 660 95 592 65 q 788 178 729 124 q 807 200 800 190 q 819 229 813 210 l 869 403 q 868 420 873 417 q 849 424 864 424 l 743 424 q 723 428 728 424 q 718 447 718 432 l 718 496 q 721 510 718 506 q 733 514 724 514 "},"Ĝ":{"ha":1204,"x_min":63,"x_max":1176,"o":"m 560 1174 l 549 1190 q 544 1201 543 1198 q 554 1211 545 1203 l 713 1342 q 729 1351 722 1349 q 751 1353 736 1353 l 810 1353 q 830 1351 824 1353 q 840 1342 835 1348 l 945 1208 q 949 1201 949 1203 q 942 1194 949 1199 l 922 1177 q 910 1170 913 1169 q 900 1176 908 1170 l 793 1271 q 758 1272 778 1284 l 584 1169 q 570 1165 575 1164 q 560 1174 565 1167 m 733 514 l 1150 514 q 1169 511 1162 514 q 1176 494 1176 508 l 1176 451 q 1171 428 1176 433 q 1146 424 1165 424 l 1039 424 q 1018 416 1020 424 q 1012 394 1016 408 l 975 267 q 967 243 971 253 q 956 222 963 233 q 859 117 923 172 q 703 24 795 63 q 492 -14 610 -14 q 271 34 368 -14 q 118 179 174 82 q 63 424 63 276 q 91 601 63 512 q 174 773 120 691 q 304 918 228 854 q 473 1018 379 981 q 674 1056 566 1056 q 857 1026 783 1056 q 975 949 930 996 q 992 930 987 937 q 1002 926 997 923 q 1016 946 1006 929 l 1062 1025 q 1074 1038 1067 1035 q 1096 1042 1081 1042 l 1126 1042 q 1145 1038 1142 1042 q 1144 1022 1147 1035 l 1078 713 q 1070 693 1076 699 q 1047 688 1065 688 l 1018 688 q 1001 692 1004 688 q 999 708 999 697 q 967 844 1006 785 q 853 937 927 903 q 685 971 780 971 q 489 920 575 971 q 343 789 403 870 q 253 611 284 707 q 222 424 222 515 q 253 237 222 318 q 343 111 283 156 q 493 65 403 65 q 660 95 592 65 q 788 178 729 124 q 807 200 800 190 q 819 229 813 210 l 869 403 q 868 420 873 417 q 849 424 864 424 l 743 424 q 723 428 728 424 q 718 447 718 432 l 718 496 q 721 510 718 506 q 733 514 724 514 "},"Ğ":{"ha":1204,"x_min":63,"x_max":1176,"o":"m 752 1167 q 653 1188 685 1167 q 613 1245 620 1208 q 615 1333 606 1283 q 634 1346 618 1346 l 644 1346 q 654 1335 656 1346 q 674 1266 648 1288 q 751 1243 700 1243 q 835 1263 799 1243 q 886 1326 871 1283 q 891 1341 890 1335 q 904 1346 892 1346 l 923 1346 q 935 1343 934 1346 q 933 1329 936 1340 q 873 1211 915 1256 q 752 1167 830 1167 m 733 514 l 1150 514 q 1169 511 1162 514 q 1176 494 1176 508 l 1176 451 q 1171 428 1176 433 q 1146 424 1165 424 l 1039 424 q 1018 416 1020 424 q 1012 394 1016 408 l 975 267 q 967 243 971 253 q 956 222 963 233 q 859 117 923 172 q 703 24 795 63 q 492 -14 610 -14 q 271 34 368 -14 q 118 179 174 82 q 63 424 63 276 q 91 601 63 512 q 174 773 120 691 q 304 918 228 854 q 473 1018 379 981 q 674 1056 566 1056 q 857 1026 783 1056 q 975 949 930 996 q 992 930 987 937 q 1002 926 997 923 q 1016 946 1006 929 l 1062 1025 q 1074 1038 1067 1035 q 1096 1042 1081 1042 l 1126 1042 q 1145 1038 1142 1042 q 1144 1022 1147 1035 l 1078 713 q 1070 693 1076 699 q 1047 688 1065 688 l 1018 688 q 1001 692 1004 688 q 999 708 999 697 q 967 844 1006 785 q 853 937 927 903 q 685 971 780 971 q 489 920 575 971 q 343 789 403 870 q 253 611 284 707 q 222 424 222 515 q 253 237 222 318 q 343 111 283 156 q 493 65 403 65 q 660 95 592 65 q 788 178 729 124 q 807 200 800 190 q 819 229 813 210 l 869 403 q 868 420 873 417 q 849 424 864 424 l 743 424 q 723 428 728 424 q 718 447 718 432 l 718 496 q 721 510 718 506 q 733 514 724 514 "},"Ġ":{"ha":1204,"x_min":63,"x_max":1176,"o":"m 763 1201 q 704 1226 728 1201 q 679 1285 679 1251 q 704 1344 679 1319 q 763 1368 728 1368 q 822 1344 797 1368 q 846 1285 846 1319 q 822 1226 846 1251 q 763 1201 797 1201 m 733 514 l 1150 514 q 1169 511 1162 514 q 1176 494 1176 508 l 1176 451 q 1171 428 1176 433 q 1146 424 1165 424 l 1039 424 q 1018 416 1020 424 q 1012 394 1016 408 l 975 267 q 967 243 971 253 q 956 222 963 233 q 859 117 923 172 q 703 24 795 63 q 492 -14 610 -14 q 271 34 368 -14 q 118 179 174 82 q 63 424 63 276 q 91 601 63 512 q 174 773 120 691 q 304 918 228 854 q 473 1018 379 981 q 674 1056 566 1056 q 857 1026 783 1056 q 975 949 930 996 q 992 930 987 937 q 1002 926 997 923 q 1016 946 1006 929 l 1062 1025 q 1074 1038 1067 1035 q 1096 1042 1081 1042 l 1126 1042 q 1145 1038 1142 1042 q 1144 1022 1147 1035 l 1078 713 q 1070 693 1076 699 q 1047 688 1065 688 l 1018 688 q 1001 692 1004 688 q 999 708 999 697 q 967 844 1006 785 q 853 937 927 903 q 685 971 780 971 q 489 920 575 971 q 343 789 403 870 q 253 611 284 707 q 222 424 222 515 q 253 237 222 318 q 343 111 283 156 q 493 65 403 65 q 660 95 592 65 q 788 178 729 124 q 807 200 800 190 q 819 229 813 210 l 869 403 q 868 420 873 417 q 849 424 864 424 l 743 424 q 723 428 728 424 q 718 447 718 432 l 718 496 q 721 510 718 506 q 733 514 724 514 "},"Ģ":{"ha":1204,"x_min":63,"x_max":1176,"o":"m 356 -206 q 377 -159 356 -178 q 430 -140 399 -140 q 469 -151 452 -140 q 497 -186 487 -162 q 508 -244 508 -209 q 492 -313 508 -281 q 449 -372 476 -346 q 389 -413 422 -397 q 322 -433 356 -429 q 312 -432 315 -433 q 309 -424 309 -431 l 309 -400 q 313 -391 309 -393 q 323 -387 317 -388 q 379 -366 348 -383 q 431 -323 410 -349 q 449 -265 453 -297 q 445 -260 449 -258 q 438 -264 442 -261 q 425 -269 432 -267 q 409 -271 418 -271 q 368 -252 381 -271 q 356 -206 356 -233 m 733 514 l 1150 514 q 1169 511 1162 514 q 1176 494 1176 508 l 1176 451 q 1171 428 1176 433 q 1146 424 1165 424 l 1039 424 q 1018 416 1020 424 q 1012 394 1016 408 l 975 267 q 967 243 971 253 q 956 222 963 233 q 859 117 923 172 q 703 24 795 63 q 492 -14 610 -14 q 271 34 368 -14 q 118 179 174 82 q 63 424 63 276 q 91 601 63 512 q 174 773 120 691 q 304 918 228 854 q 473 1018 379 981 q 674 1056 566 1056 q 857 1026 783 1056 q 975 949 930 996 q 992 930 987 937 q 1002 926 997 923 q 1016 946 1006 929 l 1062 1025 q 1074 1038 1067 1035 q 1096 1042 1081 1042 l 1126 1042 q 1145 1038 1142 1042 q 1144 1022 1147 1035 l 1078 713 q 1070 693 1076 699 q 1047 688 1065 688 l 1018 688 q 1001 692 1004 688 q 999 708 999 697 q 967 844 1006 785 q 853 937 927 903 q 685 971 780 971 q 489 920 575 971 q 343 789 403 870 q 253 611 284 707 q 222 424 222 515 q 253 237 222 318 q 343 111 283 156 q 493 65 403 65 q 660 95 592 65 q 788 178 729 124 q 807 200 800 190 q 819 229 813 210 l 869 403 q 868 420 873 417 q 849 424 864 424 l 743 424 q 723 428 728 424 q 718 447 718 432 l 718 496 q 721 510 718 506 q 733 514 724 514 "},"H":{"ha":1246,"x_min":-56,"x_max":1301,"o":"m -56 31 l -56 56 q -48 73 -56 70 q -28 76 -41 76 l 63 76 q 105 81 92 76 q 122 111 117 86 l 300 939 q 299 961 303 956 q 275 965 294 965 l 163 965 q 141 968 147 965 q 135 988 135 972 l 135 1017 q 138 1036 135 1031 q 154 1042 140 1042 l 583 1042 q 604 1036 601 1042 q 607 1013 607 1030 l 607 993 q 602 970 607 976 q 581 965 598 965 l 482 965 q 448 960 455 965 q 437 933 442 955 l 367 606 q 367 581 363 586 q 396 576 372 576 l 882 576 q 909 583 906 576 q 916 608 912 590 l 986 936 q 986 960 990 955 q 961 965 983 965 l 856 965 q 835 969 840 965 q 829 988 829 972 l 829 1019 q 834 1038 829 1033 q 853 1042 840 1042 l 1278 1042 q 1299 1039 1296 1042 q 1301 1018 1301 1036 l 1301 996 q 1296 970 1301 976 q 1271 965 1291 965 l 1169 965 q 1135 960 1141 965 q 1124 932 1130 956 l 948 108 q 948 82 943 88 q 979 76 952 76 l 1089 76 q 1108 71 1104 76 q 1111 50 1111 66 l 1111 22 q 1107 5 1111 9 q 1089 0 1103 0 l 669 0 q 645 4 652 0 q 639 26 639 8 l 639 51 q 646 73 639 69 q 669 76 653 76 l 771 76 q 800 81 795 76 q 808 104 804 85 l 886 467 q 887 494 891 488 q 856 500 883 500 l 375 500 q 344 491 347 500 q 336 460 341 482 l 259 103 q 259 82 256 87 q 283 76 263 76 l 390 76 q 413 70 410 76 q 417 44 417 64 l 417 26 q 413 5 417 10 q 393 0 409 0 l -26 0 q -51 6 -46 0 q -56 31 -56 12 "},"Ĥ":{"ha":1246,"x_min":-56,"x_max":1301,"o":"m 567 1174 l 556 1190 q 551 1201 550 1198 q 561 1211 552 1203 l 719 1342 q 736 1351 728 1349 q 758 1353 743 1353 l 817 1353 q 837 1351 831 1353 q 847 1342 842 1348 l 952 1208 q 956 1201 956 1203 q 949 1194 956 1199 l 929 1177 q 917 1170 920 1169 q 907 1176 915 1170 l 800 1271 q 765 1272 785 1284 l 591 1169 q 577 1165 582 1164 q 567 1174 572 1167 m -56 31 l -56 56 q -48 73 -56 70 q -28 76 -41 76 l 63 76 q 105 81 92 76 q 122 111 117 86 l 300 939 q 299 961 303 956 q 275 965 294 965 l 163 965 q 141 968 147 965 q 135 988 135 972 l 135 1017 q 138 1036 135 1031 q 154 1042 140 1042 l 583 1042 q 604 1036 601 1042 q 607 1013 607 1030 l 607 993 q 602 970 607 976 q 581 965 598 965 l 482 965 q 448 960 455 965 q 437 933 442 955 l 367 606 q 367 581 363 586 q 396 576 372 576 l 882 576 q 909 583 906 576 q 916 608 912 590 l 986 936 q 986 960 990 955 q 961 965 983 965 l 856 965 q 835 969 840 965 q 829 988 829 972 l 829 1019 q 834 1038 829 1033 q 853 1042 840 1042 l 1278 1042 q 1299 1039 1296 1042 q 1301 1018 1301 1036 l 1301 996 q 1296 970 1301 976 q 1271 965 1291 965 l 1169 965 q 1135 960 1141 965 q 1124 932 1130 956 l 948 108 q 948 82 943 88 q 979 76 952 76 l 1089 76 q 1108 71 1104 76 q 1111 50 1111 66 l 1111 22 q 1107 5 1111 9 q 1089 0 1103 0 l 669 0 q 645 4 652 0 q 639 26 639 8 l 639 51 q 646 73 639 69 q 669 76 653 76 l 771 76 q 800 81 795 76 q 808 104 804 85 l 886 467 q 887 494 891 488 q 856 500 883 500 l 375 500 q 344 491 347 500 q 336 460 341 482 l 259 103 q 259 82 256 87 q 283 76 263 76 l 390 76 q 413 70 410 76 q 417 44 417 64 l 417 26 q 413 5 417 10 q 393 0 409 0 l -26 0 q -51 6 -46 0 q -56 31 -56 12 "},"I":{"ha":553,"x_min":-56,"x_max":608,"o":"m -56 24 l -56 57 q -51 73 -56 69 q -35 76 -46 76 l 79 76 q 110 81 103 76 q 122 105 117 85 l 306 936 q 305 961 310 956 q 274 965 300 965 l 168 965 q 152 969 155 965 q 150 987 150 974 l 150 1017 q 154 1037 150 1033 q 174 1042 158 1042 l 583 1042 q 603 1038 598 1042 q 608 1018 608 1034 l 608 988 q 603 969 608 972 q 582 965 598 965 l 475 965 q 451 959 453 965 q 444 935 448 952 l 262 104 q 263 80 257 84 q 294 76 269 76 l 386 76 q 413 70 408 76 q 417 42 417 64 l 417 26 q 413 6 417 11 q 394 0 410 0 l -29 0 q -50 4 -45 0 q -56 24 -56 8 "},"Ì":{"ha":553,"x_min":-56,"x_max":608,"o":"m 269 1333 q 295 1356 278 1349 q 330 1360 312 1363 q 360 1344 348 1358 l 495 1213 q 496 1188 508 1201 l 472 1163 q 463 1156 467 1157 q 451 1159 459 1154 l 288 1255 q 262 1286 270 1265 q 269 1333 253 1308 m -56 24 l -56 57 q -51 73 -56 69 q -35 76 -46 76 l 79 76 q 110 81 103 76 q 122 105 117 85 l 306 936 q 305 961 310 956 q 274 965 300 965 l 168 965 q 152 969 155 965 q 150 987 150 974 l 150 1017 q 154 1037 150 1033 q 174 1042 158 1042 l 583 1042 q 603 1038 598 1042 q 608 1018 608 1034 l 608 988 q 603 969 608 972 q 582 965 598 965 l 475 965 q 451 959 453 965 q 444 935 448 952 l 262 104 q 263 80 257 84 q 294 76 269 76 l 386 76 q 413 70 408 76 q 417 42 417 64 l 417 26 q 413 6 417 11 q 394 0 410 0 l -29 0 q -50 4 -45 0 q -56 24 -56 8 "},"Í":{"ha":553,"x_min":-56,"x_max":609,"o":"m 594 1333 q 601 1286 609 1308 q 575 1255 593 1265 l 417 1163 q 402 1157 408 1157 q 390 1165 397 1156 l 366 1190 q 366 1212 355 1201 l 502 1344 q 533 1360 515 1358 q 568 1356 551 1363 q 594 1333 585 1349 m -56 24 l -56 57 q -51 73 -56 69 q -35 76 -46 76 l 79 76 q 110 81 103 76 q 122 105 117 85 l 306 936 q 305 961 310 956 q 274 965 300 965 l 168 965 q 152 969 155 965 q 150 987 150 974 l 150 1017 q 154 1037 150 1033 q 174 1042 158 1042 l 583 1042 q 603 1038 598 1042 q 608 1018 608 1034 l 608 988 q 603 969 608 972 q 582 965 598 965 l 475 965 q 451 959 453 965 q 444 935 448 952 l 262 104 q 263 80 257 84 q 294 76 269 76 l 386 76 q 413 70 408 76 q 417 42 417 64 l 417 26 q 413 6 417 11 q 394 0 410 0 l -29 0 q -50 4 -45 0 q -56 24 -56 8 "},"Î":{"ha":553,"x_min":-56,"x_max":630,"o":"m 240 1174 l 230 1190 q 225 1201 224 1198 q 235 1211 226 1203 l 393 1342 q 409 1351 402 1349 q 432 1353 417 1353 l 491 1353 q 510 1351 505 1353 q 521 1342 516 1348 l 626 1208 q 630 1201 630 1203 q 623 1194 630 1199 l 603 1177 q 591 1170 594 1169 q 581 1176 588 1170 l 474 1271 q 439 1272 458 1284 l 265 1169 q 251 1165 256 1164 q 240 1174 246 1167 m -56 24 l -56 57 q -51 73 -56 69 q -35 76 -46 76 l 79 76 q 110 81 103 76 q 122 105 117 85 l 306 936 q 305 961 310 956 q 274 965 300 965 l 168 965 q 152 969 155 965 q 150 987 150 974 l 150 1017 q 154 1037 150 1033 q 174 1042 158 1042 l 583 1042 q 603 1038 598 1042 q 608 1018 608 1034 l 608 988 q 603 969 608 972 q 582 965 598 965 l 475 965 q 451 959 453 965 q 444 935 448 952 l 262 104 q 263 80 257 84 q 294 76 269 76 l 386 76 q 413 70 408 76 q 417 42 417 64 l 417 26 q 413 6 417 11 q 394 0 410 0 l -29 0 q -50 4 -45 0 q -56 24 -56 8 "},"Ï":{"ha":553,"x_min":-56,"x_max":612,"o":"m 545 1174 q 498 1193 517 1174 q 478 1240 478 1213 q 498 1288 478 1268 q 545 1308 517 1308 q 592 1288 573 1308 q 612 1240 612 1268 q 592 1193 612 1213 q 545 1174 573 1174 m 323 1174 q 276 1193 295 1174 q 256 1240 256 1213 q 276 1288 256 1268 q 323 1308 295 1308 q 370 1288 351 1308 q 390 1240 390 1268 q 370 1193 390 1213 q 323 1174 351 1174 m -56 24 l -56 57 q -51 73 -56 69 q -35 76 -46 76 l 79 76 q 110 81 103 76 q 122 105 117 85 l 306 936 q 305 961 310 956 q 274 965 300 965 l 168 965 q 152 969 155 965 q 150 987 150 974 l 150 1017 q 154 1037 150 1033 q 174 1042 158 1042 l 583 1042 q 603 1038 598 1042 q 608 1018 608 1034 l 608 988 q 603 969 608 972 q 582 965 598 965 l 475 965 q 451 959 453 965 q 444 935 448 952 l 262 104 q 263 80 257 84 q 294 76 269 76 l 386 76 q 413 70 408 76 q 417 42 417 64 l 417 26 q 413 6 417 11 q 394 0 410 0 l -29 0 q -50 4 -45 0 q -56 24 -56 8 "},"Ĩ":{"ha":553,"x_min":-56,"x_max":699,"o":"m 537 1167 q 456 1183 483 1167 q 411 1222 428 1200 q 380 1258 398 1239 q 325 1276 362 1276 q 275 1254 297 1276 q 243 1190 253 1232 q 227 1181 240 1181 l 198 1181 q 186 1186 186 1181 q 188 1201 185 1191 q 223 1281 202 1246 q 277 1336 244 1316 q 360 1357 310 1357 q 442 1341 415 1357 q 485 1302 469 1324 q 511 1266 497 1285 q 559 1247 526 1247 q 607 1268 587 1247 q 639 1328 628 1289 q 644 1340 641 1336 q 658 1343 648 1343 l 688 1343 q 698 1340 697 1343 q 697 1328 699 1336 q 664 1240 685 1276 q 612 1185 643 1204 q 537 1167 581 1167 m -56 24 l -56 57 q -51 73 -56 69 q -35 76 -46 76 l 79 76 q 110 81 103 76 q 122 105 117 85 l 306 936 q 305 961 310 956 q 274 965 300 965 l 168 965 q 152 969 155 965 q 150 987 150 974 l 150 1017 q 154 1037 150 1033 q 174 1042 158 1042 l 583 1042 q 603 1038 598 1042 q 608 1018 608 1034 l 608 988 q 603 969 608 972 q 582 965 598 965 l 475 965 q 451 959 453 965 q 444 935 448 952 l 262 104 q 263 80 257 84 q 294 76 269 76 l 386 76 q 413 70 408 76 q 417 42 417 64 l 417 26 q 413 6 417 11 q 394 0 410 0 l -29 0 q -50 4 -45 0 q -56 24 -56 8 "},"Ī":{"ha":553,"x_min":-56,"x_max":608,"o":"m 260 1189 l 260 1212 q 263 1226 260 1222 q 274 1231 265 1231 l 570 1231 q 589 1227 583 1231 q 594 1209 594 1223 l 594 1188 q 592 1172 594 1176 q 578 1167 590 1167 l 285 1167 q 266 1170 272 1167 q 260 1189 260 1174 m -56 24 l -56 57 q -51 73 -56 69 q -35 76 -46 76 l 79 76 q 110 81 103 76 q 122 105 117 85 l 306 936 q 305 961 310 956 q 274 965 300 965 l 168 965 q 152 969 155 965 q 150 987 150 974 l 150 1017 q 154 1037 150 1033 q 174 1042 158 1042 l 583 1042 q 603 1038 598 1042 q 608 1018 608 1034 l 608 988 q 603 969 608 972 q 582 965 598 965 l 475 965 q 451 959 453 965 q 444 935 448 952 l 262 104 q 263 80 257 84 q 294 76 269 76 l 386 76 q 413 70 408 76 q 417 42 417 64 l 417 26 q 413 6 417 11 q 394 0 410 0 l -29 0 q -50 4 -45 0 q -56 24 -56 8 "},"Ĭ":{"ha":553,"x_min":-56,"x_max":617,"o":"m 433 1167 q 333 1188 366 1167 q 293 1245 301 1208 q 296 1333 286 1283 q 315 1346 299 1346 l 324 1346 q 335 1335 336 1346 q 355 1266 328 1288 q 431 1243 381 1243 q 515 1263 479 1243 q 567 1326 551 1283 q 571 1341 570 1335 q 585 1346 572 1346 l 603 1346 q 616 1343 615 1346 q 614 1329 617 1340 q 553 1211 596 1256 q 433 1167 510 1167 m -56 24 l -56 57 q -51 73 -56 69 q -35 76 -46 76 l 79 76 q 110 81 103 76 q 122 105 117 85 l 306 936 q 305 961 310 956 q 274 965 300 965 l 168 965 q 152 969 155 965 q 150 987 150 974 l 150 1017 q 154 1037 150 1033 q 174 1042 158 1042 l 583 1042 q 603 1038 598 1042 q 608 1018 608 1034 l 608 988 q 603 969 608 972 q 582 965 598 965 l 475 965 q 451 959 453 965 q 444 935 448 952 l 262 104 q 263 80 257 84 q 294 76 269 76 l 386 76 q 413 70 408 76 q 417 42 417 64 l 417 26 q 413 6 417 11 q 394 0 410 0 l -29 0 q -50 4 -45 0 q -56 24 -56 8 "},"Į":{"ha":553,"x_min":-56,"x_max":608,"o":"m 94 -291 q 23 -281 56 -291 q -25 -248 -9 -272 q -33 -185 -42 -225 q -4 -128 -27 -156 q 51 -74 19 -100 q 119 -26 84 -49 q 187 16 155 -3 q 209 26 200 24 q 222 23 219 28 q 219 10 225 17 q 203 -8 213 2 q 163 -48 183 -26 q 126 -97 142 -71 q 103 -151 110 -122 q 108 -200 98 -177 q 154 -224 118 -224 q 201 -211 180 -224 q 237 -181 222 -198 q 258 -176 249 -167 l 266 -183 q 271 -192 272 -188 q 265 -203 270 -195 q 195 -266 235 -241 q 94 -291 156 -291 m -56 24 l -56 57 q -51 73 -56 69 q -35 76 -46 76 l 79 76 q 110 81 103 76 q 122 105 117 85 l 306 936 q 305 961 310 956 q 274 965 300 965 l 168 965 q 152 969 155 965 q 150 987 150 974 l 150 1017 q 154 1037 150 1033 q 174 1042 158 1042 l 583 1042 q 603 1038 598 1042 q 608 1018 608 1034 l 608 988 q 603 969 608 972 q 582 965 598 965 l 475 965 q 451 959 453 965 q 444 935 448 952 l 262 104 q 263 80 257 84 q 294 76 269 76 l 386 76 q 413 70 408 76 q 417 42 417 64 l 417 26 q 413 6 417 11 q 394 0 410 0 l -29 0 q -50 4 -45 0 q -56 24 -56 8 "},"İ":{"ha":553,"x_min":-56,"x_max":608,"o":"m 443 1201 q 384 1226 409 1201 q 360 1285 360 1251 q 384 1344 360 1319 q 443 1368 409 1368 q 502 1344 478 1368 q 526 1285 526 1319 q 502 1226 526 1251 q 443 1201 478 1201 m -56 24 l -56 57 q -51 73 -56 69 q -35 76 -46 76 l 79 76 q 110 81 103 76 q 122 105 117 85 l 306 936 q 305 961 310 956 q 274 965 300 965 l 168 965 q 152 969 155 965 q 150 987 150 974 l 150 1017 q 154 1037 150 1033 q 174 1042 158 1042 l 583 1042 q 603 1038 598 1042 q 608 1018 608 1034 l 608 988 q 603 969 608 972 q 582 965 598 965 l 475 965 q 451 959 453 965 q 444 935 448 952 l 262 104 q 263 80 257 84 q 294 76 269 76 l 386 76 q 413 70 408 76 q 417 42 417 64 l 417 26 q 413 6 417 11 q 394 0 410 0 l -29 0 q -50 4 -45 0 q -56 24 -56 8 "},"J":{"ha":828,"x_min":-42,"x_max":911,"o":"m -42 201 q -26 274 -42 244 q 15 318 -10 303 q 68 333 40 333 q 131 311 105 333 q 157 251 157 289 q 148 206 157 221 q 126 184 138 192 q 105 166 115 176 q 96 133 96 156 q 105 105 96 122 q 136 75 113 88 q 203 63 160 63 q 349 129 277 63 q 453 333 420 195 l 591 946 q 589 963 594 960 q 567 965 584 965 l 447 965 q 424 968 430 965 q 418 989 418 972 l 418 1014 q 424 1037 418 1033 q 447 1042 430 1042 l 886 1042 q 903 1039 896 1042 q 911 1025 911 1036 l 911 992 q 906 970 911 974 q 883 965 901 965 l 756 965 q 733 960 736 965 q 727 939 731 954 l 592 375 q 510 176 564 264 q 378 37 456 88 q 203 -14 301 -14 q 55 20 108 -14 q -20 103 1 53 q -42 201 -42 153 "},"Ĵ":{"ha":828,"x_min":-42,"x_max":911,"o":"m 469 1174 l 459 1190 q 454 1201 453 1198 q 464 1211 455 1203 l 622 1342 q 639 1351 631 1349 q 661 1353 646 1353 l 720 1353 q 740 1351 734 1353 q 750 1342 745 1348 l 855 1208 q 859 1201 859 1203 q 852 1194 859 1199 l 832 1177 q 820 1170 823 1169 q 810 1176 817 1170 l 703 1271 q 668 1272 688 1284 l 494 1169 q 480 1165 485 1164 q 469 1174 475 1167 m -42 201 q -26 274 -42 244 q 15 318 -10 303 q 68 333 40 333 q 131 311 105 333 q 157 251 157 289 q 148 206 157 221 q 126 184 138 192 q 105 166 115 176 q 96 133 96 156 q 105 105 96 122 q 136 75 113 88 q 203 63 160 63 q 349 129 277 63 q 453 333 420 195 l 591 946 q 589 963 594 960 q 567 965 584 965 l 447 965 q 424 968 430 965 q 418 989 418 972 l 418 1014 q 424 1037 418 1033 q 447 1042 430 1042 l 886 1042 q 903 1039 896 1042 q 911 1025 911 1036 l 911 992 q 906 970 911 974 q 883 965 901 965 l 756 965 q 733 960 736 965 q 727 939 731 954 l 592 375 q 510 176 564 264 q 378 37 456 88 q 203 -14 301 -14 q 55 20 108 -14 q -20 103 1 53 q -42 201 -42 153 "},"K":{"ha":1200,"x_min":-56,"x_max":1186,"o":"m -56 26 l -56 60 q -50 74 -56 72 q -33 76 -45 76 l 68 76 q 98 81 92 76 q 108 105 103 85 l 292 942 q 292 960 295 956 q 269 965 288 965 l 178 965 q 162 970 165 965 q 160 989 160 976 l 160 1028 q 165 1040 160 1038 q 179 1042 169 1042 l 567 1042 q 586 1037 582 1042 q 590 1017 590 1033 l 590 996 q 587 972 590 978 q 565 965 583 965 l 453 965 q 436 960 438 965 q 431 943 434 955 l 333 500 q 330 461 324 457 q 361 486 336 465 l 876 942 q 889 956 885 951 q 886 963 892 960 q 857 965 879 965 l 793 965 q 771 971 776 965 q 767 993 767 976 l 767 1018 q 770 1037 767 1032 q 788 1042 774 1042 l 1168 1042 q 1184 1036 1181 1042 q 1186 1018 1186 1031 l 1186 992 q 1182 971 1186 977 q 1162 965 1178 965 l 1069 965 q 1031 960 1041 965 q 1007 942 1021 955 l 619 604 q 594 580 597 585 q 619 558 592 574 q 724 472 685 522 q 785 368 763 422 q 822 262 808 314 q 851 168 836 210 q 889 101 865 126 q 954 76 913 76 l 1063 76 q 1087 71 1082 76 q 1092 46 1092 66 l 1092 26 q 1086 5 1092 9 q 1064 0 1081 0 l 918 0 q 791 26 836 0 q 722 95 745 51 q 688 192 699 138 q 663 302 676 245 q 624 411 650 358 q 547 503 599 463 q 519 514 527 517 q 494 495 512 510 l 324 347 q 300 322 308 333 q 286 285 292 311 l 245 99 q 247 80 242 84 q 269 76 251 76 l 351 76 q 371 71 367 76 q 375 49 375 65 l 375 21 q 369 3 375 6 q 347 0 363 0 l -33 0 q -52 6 -49 0 q -56 26 -56 11 "},"Ķ":{"ha":1200,"x_min":-56,"x_max":1186,"o":"m 392 -206 q 414 -159 392 -178 q 467 -140 435 -140 q 506 -151 489 -140 q 534 -186 524 -162 q 544 -244 544 -209 q 529 -313 544 -281 q 486 -372 513 -346 q 426 -413 459 -397 q 358 -433 393 -429 q 349 -432 352 -433 q 346 -424 346 -431 l 346 -400 q 350 -391 346 -393 q 360 -387 353 -388 q 416 -366 385 -383 q 468 -323 447 -349 q 486 -265 490 -297 q 482 -260 485 -258 q 474 -264 478 -261 q 462 -269 469 -267 q 446 -271 455 -271 q 405 -252 418 -271 q 392 -206 392 -233 m -56 26 l -56 60 q -50 74 -56 72 q -33 76 -45 76 l 68 76 q 98 81 92 76 q 108 105 103 85 l 292 942 q 292 960 295 956 q 269 965 288 965 l 178 965 q 162 970 165 965 q 160 989 160 976 l 160 1028 q 165 1040 160 1038 q 179 1042 169 1042 l 567 1042 q 586 1037 582 1042 q 590 1017 590 1033 l 590 996 q 587 972 590 978 q 565 965 583 965 l 453 965 q 436 960 438 965 q 431 943 434 955 l 333 500 q 330 461 324 457 q 361 486 336 465 l 876 942 q 889 956 885 951 q 886 963 892 960 q 857 965 879 965 l 793 965 q 771 971 776 965 q 767 993 767 976 l 767 1018 q 770 1037 767 1032 q 788 1042 774 1042 l 1168 1042 q 1184 1036 1181 1042 q 1186 1018 1186 1031 l 1186 992 q 1182 971 1186 977 q 1162 965 1178 965 l 1069 965 q 1031 960 1041 965 q 1007 942 1021 955 l 619 604 q 594 580 597 585 q 619 558 592 574 q 724 472 685 522 q 785 368 763 422 q 822 262 808 314 q 851 168 836 210 q 889 101 865 126 q 954 76 913 76 l 1063 76 q 1087 71 1082 76 q 1092 46 1092 66 l 1092 26 q 1086 5 1092 9 q 1064 0 1081 0 l 918 0 q 791 26 836 0 q 722 95 745 51 q 688 192 699 138 q 663 302 676 245 q 624 411 650 358 q 547 503 599 463 q 519 514 527 517 q 494 495 512 510 l 324 347 q 300 322 308 333 q 286 285 292 311 l 245 99 q 247 80 242 84 q 269 76 251 76 l 351 76 q 371 71 367 76 q 375 49 375 65 l 375 21 q 369 3 375 6 q 347 0 363 0 l -33 0 q -52 6 -49 0 q -56 26 -56 11 "},"L":{"ha":994,"x_min":-56,"x_max":923,"o":"m -56 22 l -56 58 q -48 73 -56 70 q -29 76 -40 76 l 82 76 q 114 81 108 76 q 124 107 119 85 l 303 942 q 303 962 307 958 q 282 965 300 965 l 165 965 q 147 971 150 965 q 144 992 144 976 l 144 1017 q 147 1036 144 1031 q 164 1042 150 1042 l 588 1042 q 606 1038 601 1042 q 611 1018 611 1033 l 611 989 q 608 970 611 975 q 590 965 604 965 l 467 965 q 447 960 449 965 q 441 942 444 956 l 265 115 q 266 84 260 92 q 303 76 273 76 l 536 76 q 686 98 627 76 q 783 175 745 120 q 848 326 821 229 q 859 348 853 342 q 886 354 865 354 l 906 354 q 920 350 917 354 q 921 338 923 347 l 849 29 q 838 6 844 12 q 810 0 832 0 l -28 0 q -50 3 -44 0 q -56 22 -56 6 "},"Ĺ":{"ha":994,"x_min":-56,"x_max":923,"o":"m 578 1333 q 586 1286 594 1308 q 560 1255 578 1265 l 401 1163 q 387 1157 392 1157 q 374 1165 382 1156 l 351 1190 q 351 1212 340 1201 l 487 1344 q 518 1360 500 1358 q 552 1356 535 1363 q 578 1333 569 1349 m -56 22 l -56 58 q -48 73 -56 70 q -29 76 -40 76 l 82 76 q 114 81 108 76 q 124 107 119 85 l 303 942 q 303 962 307 958 q 282 965 300 965 l 165 965 q 147 971 150 965 q 144 992 144 976 l 144 1017 q 147 1036 144 1031 q 164 1042 150 1042 l 588 1042 q 606 1038 601 1042 q 611 1018 611 1033 l 611 989 q 608 970 611 975 q 590 965 604 965 l 467 965 q 447 960 449 965 q 441 942 444 956 l 265 115 q 266 84 260 92 q 303 76 273 76 l 536 76 q 686 98 627 76 q 783 175 745 120 q 848 326 821 229 q 859 348 853 342 q 886 354 865 354 l 906 354 q 920 350 917 354 q 921 338 923 347 l 849 29 q 838 6 844 12 q 810 0 832 0 l -28 0 q -50 3 -44 0 q -56 22 -56 6 "},"Ļ":{"ha":994,"x_min":-56,"x_max":923,"o":"m 251 -206 q 272 -159 251 -178 q 325 -140 294 -140 q 365 -151 347 -140 q 392 -186 382 -162 q 403 -244 403 -209 q 387 -313 403 -281 q 344 -372 372 -346 q 284 -413 317 -397 q 217 -433 251 -429 q 207 -432 210 -433 q 204 -424 204 -431 l 204 -400 q 208 -391 204 -393 q 218 -387 212 -388 q 274 -366 243 -383 q 326 -323 305 -349 q 344 -265 348 -297 q 340 -260 344 -258 q 333 -264 337 -261 q 320 -269 327 -267 q 304 -271 313 -271 q 264 -252 276 -271 q 251 -206 251 -233 m -56 22 l -56 58 q -48 73 -56 70 q -29 76 -40 76 l 82 76 q 114 81 108 76 q 124 107 119 85 l 303 942 q 303 962 307 958 q 282 965 300 965 l 165 965 q 147 971 150 965 q 144 992 144 976 l 144 1017 q 147 1036 144 1031 q 164 1042 150 1042 l 588 1042 q 606 1038 601 1042 q 611 1018 611 1033 l 611 989 q 608 970 611 975 q 590 965 604 965 l 467 965 q 447 960 449 965 q 441 942 444 956 l 265 115 q 266 84 260 92 q 303 76 273 76 l 536 76 q 686 98 627 76 q 783 175 745 120 q 848 326 821 229 q 859 348 853 342 q 886 354 865 354 l 906 354 q 920 350 917 354 q 921 338 923 347 l 849 29 q 838 6 844 12 q 810 0 832 0 l -28 0 q -50 3 -44 0 q -56 22 -56 6 "},"Ľ":{"ha":994,"x_min":-56,"x_max":944,"o":"m 753 974 q 780 1032 753 1008 q 847 1056 807 1056 q 896 1041 874 1056 q 931 998 918 1027 q 944 925 944 969 q 924 839 944 880 q 870 766 904 798 q 795 714 837 733 q 711 690 754 694 q 699 690 703 689 q 695 700 695 691 l 695 730 q 700 742 695 740 q 713 746 705 745 q 783 772 744 751 q 848 826 822 793 q 871 899 875 860 q 866 906 870 908 q 856 900 861 903 q 840 894 849 896 q 820 892 831 892 q 770 916 786 892 q 753 974 753 940 m -56 22 l -56 58 q -48 73 -56 70 q -29 76 -40 76 l 82 76 q 114 81 108 76 q 124 107 119 85 l 303 942 q 303 962 307 958 q 282 965 300 965 l 165 965 q 147 971 150 965 q 144 992 144 976 l 144 1017 q 147 1036 144 1031 q 164 1042 150 1042 l 588 1042 q 606 1038 601 1042 q 611 1018 611 1033 l 611 989 q 608 970 611 975 q 590 965 604 965 l 467 965 q 447 960 449 965 q 441 942 444 956 l 265 115 q 266 84 260 92 q 303 76 273 76 l 536 76 q 686 98 627 76 q 783 175 745 120 q 848 326 821 229 q 859 348 853 342 q 886 354 865 354 l 906 354 q 920 350 917 354 q 921 338 923 347 l 849 29 q 838 6 844 12 q 810 0 832 0 l -28 0 q -50 3 -44 0 q -56 22 -56 6 "},"M":{"ha":1421,"x_min":-69,"x_max":1435,"o":"m 1092 847 l 632 4 q 618 -10 626 -7 q 592 -14 610 -14 l 547 -14 q 528 -7 533 -14 q 523 13 524 1 l 410 901 q 408 929 408 917 q 403 940 409 940 q 397 932 399 940 q 392 907 395 923 l 193 101 q 194 80 188 83 q 222 76 199 76 l 326 76 q 342 73 338 76 q 347 57 347 69 l 347 19 q 342 3 347 6 q 322 0 336 0 l -43 0 q -64 3 -58 0 q -69 21 -69 6 l -69 51 q -66 72 -69 67 q -47 76 -62 76 l 51 76 q 88 81 81 76 q 101 108 95 85 l 310 935 q 311 961 316 956 q 278 965 306 965 l 189 965 q 168 969 174 965 q 163 988 163 972 l 163 1015 q 170 1038 163 1035 q 196 1042 178 1042 l 464 1042 q 509 1035 499 1042 q 522 996 519 1028 l 609 250 q 613 194 614 211 q 623 177 613 177 q 643 199 633 177 q 669 250 653 220 l 1084 1019 q 1100 1038 1092 1033 q 1129 1042 1108 1042 l 1411 1042 q 1429 1038 1424 1042 q 1435 1021 1435 1035 l 1435 992 q 1429 969 1435 974 q 1404 965 1423 965 l 1296 965 q 1274 963 1281 965 q 1265 947 1267 960 l 1119 103 q 1121 81 1117 85 q 1146 76 1125 76 l 1267 76 q 1290 70 1286 76 q 1293 45 1293 65 l 1293 26 q 1287 3 1293 7 q 1261 0 1281 0 l 844 0 q 825 5 829 0 q 821 25 821 10 l 821 47 q 826 71 821 65 q 850 76 831 76 l 965 76 q 985 79 980 76 q 992 88 991 81 q 995 106 993 94 l 1126 833 q 1137 885 1133 865 q 1142 915 1142 906 q 1138 924 1143 924 q 1120 903 1128 924 q 1092 847 1112 883 "},"N":{"ha":1247,"x_min":-56,"x_max":1303,"o":"m 260 965 l 192 965 q 172 969 177 965 q 167 987 167 972 l 167 1022 q 172 1038 167 1034 q 188 1042 176 1042 l 429 1042 q 460 1037 451 1042 q 475 1019 468 1033 l 872 283 q 883 259 880 269 q 892 250 886 250 q 899 258 897 250 q 903 284 900 266 l 1043 941 q 1039 960 1047 956 q 1015 965 1032 965 l 919 965 q 897 971 901 965 q 893 995 893 976 l 893 1019 q 899 1038 893 1034 q 918 1042 904 1042 l 1281 1042 q 1299 1037 1296 1042 q 1303 1016 1303 1032 l 1303 988 q 1299 970 1303 974 q 1279 965 1294 965 l 1160 965 q 1139 962 1142 965 q 1132 944 1135 958 l 933 1 q 929 -10 932 -7 q 916 -14 926 -14 l 908 -14 q 891 -10 897 -14 q 881 1 885 -6 l 391 866 q 380 887 383 880 q 372 894 376 894 q 366 886 367 894 q 362 862 365 878 l 199 98 q 200 78 195 80 q 225 76 204 76 l 335 76 q 354 73 347 76 q 361 56 361 70 l 361 28 q 354 4 361 8 q 328 0 347 0 l -33 0 q -51 3 -47 0 q -56 19 -56 6 l -56 52 q -52 72 -56 67 q -35 76 -49 76 l 86 76 q 106 81 103 76 q 111 98 108 85 l 290 933 q 290 959 294 953 q 260 965 286 965 "},"Ñ":{"ha":1247,"x_min":-56,"x_max":1303,"o":"m 877 1167 q 796 1183 823 1167 q 751 1222 769 1200 q 720 1258 738 1239 q 665 1276 702 1276 q 615 1254 637 1276 q 583 1190 594 1232 q 567 1181 580 1181 l 538 1181 q 526 1186 526 1181 q 528 1201 526 1191 q 563 1281 542 1246 q 617 1336 584 1316 q 701 1357 651 1357 q 782 1341 755 1357 q 825 1302 810 1324 q 852 1266 837 1285 q 899 1247 867 1247 q 948 1268 927 1247 q 979 1328 968 1289 q 985 1340 981 1336 q 998 1343 988 1343 l 1028 1343 q 1039 1340 1038 1343 q 1038 1328 1040 1336 q 1004 1240 1025 1276 q 952 1185 983 1204 q 877 1167 922 1167 m 260 965 l 192 965 q 172 969 177 965 q 167 987 167 972 l 167 1022 q 172 1038 167 1034 q 188 1042 176 1042 l 429 1042 q 460 1037 451 1042 q 475 1019 468 1033 l 872 283 q 883 259 880 269 q 892 250 886 250 q 899 258 897 250 q 903 284 900 266 l 1043 941 q 1039 960 1047 956 q 1015 965 1032 965 l 919 965 q 897 971 901 965 q 893 995 893 976 l 893 1019 q 899 1038 893 1034 q 918 1042 904 1042 l 1281 1042 q 1299 1037 1296 1042 q 1303 1016 1303 1032 l 1303 988 q 1299 970 1303 974 q 1279 965 1294 965 l 1160 965 q 1139 962 1142 965 q 1132 944 1135 958 l 933 1 q 929 -10 932 -7 q 916 -14 926 -14 l 908 -14 q 891 -10 897 -14 q 881 1 885 -6 l 391 866 q 380 887 383 880 q 372 894 376 894 q 366 886 367 894 q 362 862 365 878 l 199 98 q 200 78 195 80 q 225 76 204 76 l 335 76 q 354 73 347 76 q 361 56 361 70 l 361 28 q 354 4 361 8 q 328 0 347 0 l -33 0 q -51 3 -47 0 q -56 19 -56 6 l -56 52 q -52 72 -56 67 q -35 76 -49 76 l 86 76 q 106 81 103 76 q 111 98 108 85 l 290 933 q 290 959 294 953 q 260 965 286 965 "},"Ń":{"ha":1247,"x_min":-56,"x_max":1303,"o":"m 934 1333 q 941 1286 949 1308 q 915 1255 933 1265 l 757 1163 q 743 1157 748 1157 q 730 1165 738 1156 l 706 1190 q 706 1212 695 1201 l 842 1344 q 873 1360 856 1358 q 908 1356 891 1363 q 934 1333 925 1349 m 260 965 l 192 965 q 172 969 177 965 q 167 987 167 972 l 167 1022 q 172 1038 167 1034 q 188 1042 176 1042 l 429 1042 q 460 1037 451 1042 q 475 1019 468 1033 l 872 283 q 883 259 880 269 q 892 250 886 250 q 899 258 897 250 q 903 284 900 266 l 1043 941 q 1039 960 1047 956 q 1015 965 1032 965 l 919 965 q 897 971 901 965 q 893 995 893 976 l 893 1019 q 899 1038 893 1034 q 918 1042 904 1042 l 1281 1042 q 1299 1037 1296 1042 q 1303 1016 1303 1032 l 1303 988 q 1299 970 1303 974 q 1279 965 1294 965 l 1160 965 q 1139 962 1142 965 q 1132 944 1135 958 l 933 1 q 929 -10 932 -7 q 916 -14 926 -14 l 908 -14 q 891 -10 897 -14 q 881 1 885 -6 l 391 866 q 380 887 383 880 q 372 894 376 894 q 366 886 367 894 q 362 862 365 878 l 199 98 q 200 78 195 80 q 225 76 204 76 l 335 76 q 354 73 347 76 q 361 56 361 70 l 361 28 q 354 4 361 8 q 328 0 347 0 l -33 0 q -51 3 -47 0 q -56 19 -56 6 l -56 52 q -52 72 -56 67 q -35 76 -49 76 l 86 76 q 106 81 103 76 q 111 98 108 85 l 290 933 q 290 959 294 953 q 260 965 286 965 "},"Ņ":{"ha":1247,"x_min":-56,"x_max":1303,"o":"m 452 -206 q 474 -159 452 -178 q 526 -140 495 -140 q 566 -151 549 -140 q 594 -186 583 -162 q 604 -244 604 -209 q 589 -313 604 -281 q 546 -372 573 -346 q 486 -413 519 -397 q 418 -433 453 -429 q 409 -432 412 -433 q 406 -424 406 -431 l 406 -400 q 409 -391 406 -393 q 419 -387 413 -388 q 475 -366 444 -383 q 528 -323 506 -349 q 546 -265 549 -297 q 542 -260 545 -258 q 534 -264 538 -261 q 522 -269 528 -267 q 506 -271 515 -271 q 465 -252 478 -271 q 452 -206 452 -233 m 260 965 l 192 965 q 172 969 177 965 q 167 987 167 972 l 167 1022 q 172 1038 167 1034 q 188 1042 176 1042 l 429 1042 q 460 1037 451 1042 q 475 1019 468 1033 l 872 283 q 883 259 880 269 q 892 250 886 250 q 899 258 897 250 q 903 284 900 266 l 1043 941 q 1039 960 1047 956 q 1015 965 1032 965 l 919 965 q 897 971 901 965 q 893 995 893 976 l 893 1019 q 899 1038 893 1034 q 918 1042 904 1042 l 1281 1042 q 1299 1037 1296 1042 q 1303 1016 1303 1032 l 1303 988 q 1299 970 1303 974 q 1279 965 1294 965 l 1160 965 q 1139 962 1142 965 q 1132 944 1135 958 l 933 1 q 929 -10 932 -7 q 916 -14 926 -14 l 908 -14 q 891 -10 897 -14 q 881 1 885 -6 l 391 866 q 380 887 383 880 q 372 894 376 894 q 366 886 367 894 q 362 862 365 878 l 199 98 q 200 78 195 80 q 225 76 204 76 l 335 76 q 354 73 347 76 q 361 56 361 70 l 361 28 q 354 4 361 8 q 328 0 347 0 l -33 0 q -51 3 -47 0 q -56 19 -56 6 l -56 52 q -52 72 -56 67 q -35 76 -49 76 l 86 76 q 106 81 103 76 q 111 98 108 85 l 290 933 q 290 959 294 953 q 260 965 286 965 "},"Ň":{"ha":1247,"x_min":-56,"x_max":1303,"o":"m 690 1195 l 601 1310 q 593 1325 594 1319 q 603 1338 592 1330 l 618 1347 q 636 1355 631 1356 q 651 1346 641 1353 l 744 1275 q 778 1261 763 1262 q 818 1275 794 1261 l 951 1356 q 968 1361 963 1363 q 980 1349 973 1359 l 985 1344 q 994 1329 993 1335 q 983 1314 994 1324 l 833 1190 q 818 1178 824 1183 q 795 1174 812 1174 l 740 1174 q 708 1180 718 1174 q 690 1195 698 1185 m 260 965 l 192 965 q 172 969 177 965 q 167 987 167 972 l 167 1022 q 172 1038 167 1034 q 188 1042 176 1042 l 429 1042 q 460 1037 451 1042 q 475 1019 468 1033 l 872 283 q 883 259 880 269 q 892 250 886 250 q 899 258 897 250 q 903 284 900 266 l 1043 941 q 1039 960 1047 956 q 1015 965 1032 965 l 919 965 q 897 971 901 965 q 893 995 893 976 l 893 1019 q 899 1038 893 1034 q 918 1042 904 1042 l 1281 1042 q 1299 1037 1296 1042 q 1303 1016 1303 1032 l 1303 988 q 1299 970 1303 974 q 1279 965 1294 965 l 1160 965 q 1139 962 1142 965 q 1132 944 1135 958 l 933 1 q 929 -10 932 -7 q 916 -14 926 -14 l 908 -14 q 891 -10 897 -14 q 881 1 885 -6 l 391 866 q 380 887 383 880 q 372 894 376 894 q 366 886 367 894 q 362 862 365 878 l 199 98 q 200 78 195 80 q 225 76 204 76 l 335 76 q 354 73 347 76 q 361 56 361 70 l 361 28 q 354 4 361 8 q 328 0 347 0 l -33 0 q -51 3 -47 0 q -56 19 -56 6 l -56 52 q -52 72 -56 67 q -35 76 -49 76 l 86 76 q 106 81 103 76 q 111 98 108 85 l 290 933 q 290 959 294 953 q 260 965 286 965 "},"O":{"ha":1153,"x_min":63,"x_max":1090,"o":"m 674 1056 q 901 1004 808 1056 q 1042 856 994 952 q 1090 625 1090 759 q 1043 389 1090 503 q 911 184 995 275 q 716 40 827 93 q 479 -14 606 -14 l 479 56 q 629 91 560 56 q 754 185 699 126 q 849 317 810 244 q 910 468 889 390 q 931 618 931 547 q 908 807 931 724 q 830 938 885 890 q 674 986 774 986 l 674 1056 m 479 -14 q 252 38 345 -14 q 111 186 159 90 q 63 417 63 283 q 110 652 63 538 q 242 858 158 767 q 436 1002 326 949 q 674 1056 547 1056 l 674 986 q 524 951 593 986 q 399 857 454 916 q 303 725 343 798 q 243 573 264 651 q 222 424 222 495 q 245 235 222 318 q 323 103 267 151 q 479 56 379 56 l 479 -14 "},"Ò":{"ha":1153,"x_min":63,"x_max":1090,"o":"m 560 1333 q 587 1356 570 1349 q 622 1360 603 1363 q 652 1344 640 1358 l 787 1213 q 788 1188 799 1201 l 764 1163 q 755 1156 758 1157 q 743 1159 751 1154 l 579 1255 q 553 1286 562 1265 q 560 1333 545 1308 m 674 1056 q 901 1004 808 1056 q 1042 856 994 952 q 1090 625 1090 759 q 1043 389 1090 503 q 911 184 995 275 q 716 40 827 93 q 479 -14 606 -14 l 479 56 q 629 91 560 56 q 754 185 699 126 q 849 317 810 244 q 910 468 889 390 q 931 618 931 547 q 908 807 931 724 q 830 938 885 890 q 674 986 774 986 l 674 1056 m 479 -14 q 252 38 345 -14 q 111 186 159 90 q 63 417 63 283 q 110 652 63 538 q 242 858 158 767 q 436 1002 326 949 q 674 1056 547 1056 l 674 986 q 524 951 593 986 q 399 857 454 916 q 303 725 343 798 q 243 573 264 651 q 222 424 222 495 q 245 235 222 318 q 323 103 267 151 q 479 56 379 56 l 479 -14 "},"Ó":{"ha":1153,"x_min":63,"x_max":1090,"o":"m 885 1333 q 893 1286 901 1308 q 867 1255 885 1265 l 708 1163 q 694 1157 699 1157 q 681 1165 689 1156 l 658 1190 q 658 1212 647 1201 l 794 1344 q 825 1360 807 1358 q 859 1356 842 1363 q 885 1333 876 1349 m 674 1056 q 901 1004 808 1056 q 1042 856 994 952 q 1090 625 1090 759 q 1043 389 1090 503 q 911 184 995 275 q 716 40 827 93 q 479 -14 606 -14 l 479 56 q 629 91 560 56 q 754 185 699 126 q 849 317 810 244 q 910 468 889 390 q 931 618 931 547 q 908 807 931 724 q 830 938 885 890 q 674 986 774 986 l 674 1056 m 479 -14 q 252 38 345 -14 q 111 186 159 90 q 63 417 63 283 q 110 652 63 538 q 242 858 158 767 q 436 1002 326 949 q 674 1056 547 1056 l 674 986 q 524 951 593 986 q 399 857 454 916 q 303 725 343 798 q 243 573 264 651 q 222 424 222 495 q 245 235 222 318 q 323 103 267 151 q 479 56 379 56 l 479 -14 "},"Ô":{"ha":1153,"x_min":63,"x_max":1090,"o":"m 532 1174 l 522 1190 q 516 1201 515 1198 q 526 1211 517 1203 l 685 1342 q 701 1351 694 1349 q 724 1353 708 1353 l 783 1353 q 802 1351 797 1353 q 813 1342 808 1348 l 917 1208 q 922 1201 922 1203 q 915 1194 922 1199 l 894 1177 q 883 1170 885 1169 q 872 1176 880 1170 l 765 1271 q 731 1272 750 1284 l 556 1169 q 542 1165 547 1164 q 532 1174 538 1167 m 674 1056 q 901 1004 808 1056 q 1042 856 994 952 q 1090 625 1090 759 q 1043 389 1090 503 q 911 184 995 275 q 716 40 827 93 q 479 -14 606 -14 l 479 56 q 629 91 560 56 q 754 185 699 126 q 849 317 810 244 q 910 468 889 390 q 931 618 931 547 q 908 807 931 724 q 830 938 885 890 q 674 986 774 986 l 674 1056 m 479 -14 q 252 38 345 -14 q 111 186 159 90 q 63 417 63 283 q 110 652 63 538 q 242 858 158 767 q 436 1002 326 949 q 674 1056 547 1056 l 674 986 q 524 951 593 986 q 399 857 454 916 q 303 725 343 798 q 243 573 264 651 q 222 424 222 495 q 245 235 222 318 q 323 103 267 151 q 479 56 379 56 l 479 -14 "},"Õ":{"ha":1153,"x_min":63,"x_max":1090,"o":"m 828 1167 q 747 1183 774 1167 q 703 1222 720 1200 q 672 1258 690 1239 q 617 1276 653 1276 q 567 1254 588 1276 q 535 1190 545 1232 q 519 1181 531 1181 l 490 1181 q 477 1186 478 1181 q 480 1201 477 1191 q 515 1281 494 1246 q 569 1336 535 1316 q 652 1357 602 1357 q 734 1341 706 1357 q 776 1302 761 1324 q 803 1266 788 1285 q 851 1247 818 1247 q 899 1268 878 1247 q 931 1328 919 1289 q 936 1340 933 1336 q 949 1343 940 1343 l 979 1343 q 990 1340 989 1343 q 989 1328 991 1336 q 956 1240 976 1276 q 904 1185 935 1204 q 828 1167 873 1167 m 674 1056 q 901 1004 808 1056 q 1042 856 994 952 q 1090 625 1090 759 q 1043 389 1090 503 q 911 184 995 275 q 716 40 827 93 q 479 -14 606 -14 l 479 56 q 629 91 560 56 q 754 185 699 126 q 849 317 810 244 q 910 468 889 390 q 931 618 931 547 q 908 807 931 724 q 830 938 885 890 q 674 986 774 986 l 674 1056 m 479 -14 q 252 38 345 -14 q 111 186 159 90 q 63 417 63 283 q 110 652 63 538 q 242 858 158 767 q 436 1002 326 949 q 674 1056 547 1056 l 674 986 q 524 951 593 986 q 399 857 454 916 q 303 725 343 798 q 243 573 264 651 q 222 424 222 495 q 245 235 222 318 q 323 103 267 151 q 479 56 379 56 l 479 -14 "},"Ö":{"ha":1153,"x_min":63,"x_max":1090,"o":"m 837 1174 q 790 1193 809 1174 q 770 1240 770 1213 q 790 1288 770 1268 q 837 1308 809 1308 q 884 1288 865 1308 q 903 1240 903 1268 q 884 1193 903 1213 q 837 1174 865 1174 m 615 1174 q 567 1193 587 1174 q 548 1240 548 1213 q 567 1288 548 1268 q 615 1308 587 1308 q 662 1288 642 1308 q 681 1240 681 1268 q 662 1193 681 1213 q 615 1174 642 1174 m 674 1056 q 901 1004 808 1056 q 1042 856 994 952 q 1090 625 1090 759 q 1043 389 1090 503 q 911 184 995 275 q 716 40 827 93 q 479 -14 606 -14 l 479 56 q 629 91 560 56 q 754 185 699 126 q 849 317 810 244 q 910 468 889 390 q 931 618 931 547 q 908 807 931 724 q 830 938 885 890 q 674 986 774 986 l 674 1056 m 479 -14 q 252 38 345 -14 q 111 186 159 90 q 63 417 63 283 q 110 652 63 538 q 242 858 158 767 q 436 1002 326 949 q 674 1056 547 1056 l 674 986 q 524 951 593 986 q 399 857 454 916 q 303 725 343 798 q 243 573 264 651 q 222 424 222 495 q 245 235 222 318 q 323 103 267 151 q 479 56 379 56 l 479 -14 "},"Ō":{"ha":1153,"x_min":63,"x_max":1090,"o":"m 552 1189 l 552 1212 q 555 1226 552 1222 q 566 1231 557 1231 l 862 1231 q 880 1227 875 1231 q 885 1209 885 1223 l 885 1188 q 883 1172 885 1176 q 870 1167 881 1167 l 576 1167 q 558 1170 563 1167 q 552 1189 552 1174 m 674 1056 q 901 1004 808 1056 q 1042 856 994 952 q 1090 625 1090 759 q 1043 389 1090 503 q 911 184 995 275 q 716 40 827 93 q 479 -14 606 -14 l 479 56 q 629 91 560 56 q 754 185 699 126 q 849 317 810 244 q 910 468 889 390 q 931 618 931 547 q 908 807 931 724 q 830 938 885 890 q 674 986 774 986 l 674 1056 m 479 -14 q 252 38 345 -14 q 111 186 159 90 q 63 417 63 283 q 110 652 63 538 q 242 858 158 767 q 436 1002 326 949 q 674 1056 547 1056 l 674 986 q 524 951 593 986 q 399 857 454 916 q 303 725 343 798 q 243 573 264 651 q 222 424 222 495 q 245 235 222 318 q 323 103 267 151 q 479 56 379 56 l 479 -14 "},"Ŏ":{"ha":1153,"x_min":63,"x_max":1090,"o":"m 724 1167 q 625 1188 658 1167 q 585 1245 592 1208 q 588 1333 578 1283 q 606 1346 590 1346 l 616 1346 q 626 1335 628 1346 q 646 1266 620 1288 q 723 1243 672 1243 q 807 1263 771 1243 q 858 1326 843 1283 q 863 1341 862 1335 q 876 1346 864 1346 l 895 1346 q 907 1343 906 1346 q 906 1329 908 1340 q 845 1211 888 1256 q 724 1167 802 1167 m 674 1056 q 901 1004 808 1056 q 1042 856 994 952 q 1090 625 1090 759 q 1043 389 1090 503 q 911 184 995 275 q 716 40 827 93 q 479 -14 606 -14 l 479 56 q 629 91 560 56 q 754 185 699 126 q 849 317 810 244 q 910 468 889 390 q 931 618 931 547 q 908 807 931 724 q 830 938 885 890 q 674 986 774 986 l 674 1056 m 479 -14 q 252 38 345 -14 q 111 186 159 90 q 63 417 63 283 q 110 652 63 538 q 242 858 158 767 q 436 1002 326 949 q 674 1056 547 1056 l 674 986 q 524 951 593 986 q 399 857 454 916 q 303 725 343 798 q 243 573 264 651 q 222 424 222 495 q 245 235 222 318 q 323 103 267 151 q 479 56 379 56 l 479 -14 "},"Ő":{"ha":1153,"x_min":63,"x_max":1090,"o":"m 840 1167 l 824 1184 q 812 1200 813 1196 q 822 1215 811 1204 l 954 1344 q 987 1362 969 1360 q 1021 1357 1005 1364 q 1047 1336 1037 1349 q 1055 1292 1061 1317 q 1027 1255 1049 1268 l 865 1160 q 851 1157 856 1155 q 840 1167 847 1158 m 550 1170 l 535 1185 q 527 1203 524 1197 q 541 1219 530 1209 l 669 1344 q 701 1362 684 1360 q 733 1358 718 1365 q 758 1338 749 1351 q 769 1294 773 1319 q 742 1255 766 1269 l 596 1172 q 571 1159 579 1162 q 550 1170 563 1156 m 674 1056 q 901 1004 808 1056 q 1042 856 994 952 q 1090 625 1090 759 q 1043 389 1090 503 q 911 184 995 275 q 716 40 827 93 q 479 -14 606 -14 l 479 56 q 629 91 560 56 q 754 185 699 126 q 849 317 810 244 q 910 468 889 390 q 931 618 931 547 q 908 807 931 724 q 830 938 885 890 q 674 986 774 986 l 674 1056 m 479 -14 q 252 38 345 -14 q 111 186 159 90 q 63 417 63 283 q 110 652 63 538 q 242 858 158 767 q 436 1002 326 949 q 674 1056 547 1056 l 674 986 q 524 951 593 986 q 399 857 454 916 q 303 725 343 798 q 243 573 264 651 q 222 424 222 495 q 245 235 222 318 q 323 103 267 151 q 479 56 379 56 l 479 -14 "},"P":{"ha":954,"x_min":-56,"x_max":954,"o":"m 372 535 l 524 535 q 654 565 590 535 q 760 656 718 595 q 801 806 801 716 q 791 877 801 840 q 748 940 781 914 q 649 965 715 965 l 456 965 q 433 962 437 965 q 426 943 430 959 l 346 565 q 345 540 342 544 q 372 535 348 535 m 314 424 l 249 111 q 247 83 244 90 q 278 76 250 76 l 376 76 q 398 72 392 76 q 403 50 403 67 l 403 19 q 397 3 403 6 q 376 0 390 0 l -31 0 q -50 3 -44 0 q -56 19 -56 6 l -56 53 q -49 74 -56 71 q -25 76 -42 76 l 75 76 q 103 85 101 76 q 110 113 106 93 l 288 940 q 288 961 291 957 q 264 965 285 965 l 174 965 q 157 970 160 965 q 153 986 153 974 l 153 1018 q 159 1038 153 1034 q 181 1042 165 1042 l 649 1042 q 840 1009 774 1042 q 930 922 906 976 q 954 806 954 868 q 923 652 954 717 q 833 543 891 586 q 697 480 776 501 q 524 458 618 458 l 358 458 q 326 451 333 458 q 314 424 319 444 "},"Q":{"ha":1153,"x_min":63,"x_max":1090,"o":"m 222 424 q 245 235 222 318 q 323 103 267 151 q 479 56 379 56 q 629 91 560 56 q 754 185 699 126 q 849 317 810 244 q 910 468 889 390 q 931 618 931 547 q 908 807 931 724 q 830 938 885 890 q 674 986 774 986 q 524 951 593 986 q 399 857 454 916 q 303 725 343 798 q 243 573 264 651 q 222 424 222 495 m 111 -228 q 123 -163 111 -192 q 157 -110 135 -133 q 207 -70 178 -87 q 267 -46 235 -54 q 332 -37 299 -37 q 435 -62 390 -37 q 517 -124 481 -87 q 583 -197 553 -160 q 641 -258 613 -233 q 696 -283 668 -283 q 742 -268 729 -283 q 754 -235 754 -252 q 744 -205 754 -215 q 723 -183 733 -195 q 713 -146 713 -171 q 726 -102 713 -120 q 758 -75 739 -84 q 796 -65 777 -65 q 841 -77 822 -65 q 870 -107 860 -88 q 881 -150 881 -126 q 869 -221 881 -190 q 837 -276 858 -253 q 790 -316 817 -300 q 731 -339 763 -331 q 667 -347 699 -347 q 560 -322 604 -347 q 482 -261 515 -297 q 419 -188 448 -224 q 362 -126 391 -151 q 296 -101 333 -101 q 251 -115 264 -101 q 238 -147 238 -129 q 248 -176 238 -165 q 269 -200 258 -187 q 279 -239 279 -214 q 254 -298 279 -277 q 200 -319 228 -319 q 136 -293 162 -319 q 111 -228 111 -267 m 63 417 q 110 652 63 538 q 242 858 158 767 q 436 1002 326 949 q 674 1056 547 1056 q 901 1004 808 1056 q 1042 856 994 952 q 1090 625 1090 759 q 1043 389 1090 503 q 911 184 995 275 q 716 40 827 93 q 479 -14 606 -14 q 252 38 345 -14 q 111 186 159 90 q 63 417 63 283 "},"R":{"ha":1075,"x_min":-56,"x_max":1005,"o":"m 1000 99 q 964 40 988 66 q 908 0 941 15 q 832 -14 874 -14 q 715 25 744 -14 q 686 121 686 64 q 699 233 686 173 q 711 344 711 292 q 699 413 711 383 q 657 461 688 444 q 568 479 626 479 l 353 479 q 330 474 337 479 q 320 456 324 469 l 247 100 q 247 81 244 85 q 269 76 251 76 l 381 76 q 397 73 391 76 q 403 58 403 70 l 403 28 q 400 6 403 12 q 381 0 397 0 l -37 0 q -52 4 -48 0 q -56 19 -56 8 l -56 53 q -51 72 -56 67 q -33 76 -47 76 l 79 76 q 102 82 100 76 q 108 104 105 88 l 288 942 q 289 961 292 958 q 268 965 286 965 l 178 965 q 157 971 160 965 q 153 994 153 977 l 153 1017 q 159 1038 153 1035 q 183 1042 165 1042 l 680 1042 q 865 1009 799 1042 q 958 922 931 976 q 985 806 985 868 q 929 640 985 713 q 764 531 874 566 q 736 524 746 526 q 726 519 726 523 q 736 513 726 514 q 764 503 745 511 q 836 442 817 481 q 854 356 854 403 q 847 276 854 317 q 832 199 840 235 q 825 138 825 163 q 839 98 825 115 q 876 82 853 82 q 918 90 896 82 q 956 124 940 99 q 966 135 962 134 q 981 131 970 137 l 990 125 q 1003 116 1001 119 q 1000 99 1005 113 m 381 563 l 582 563 q 667 579 622 563 q 753 627 713 596 q 820 704 794 659 q 846 806 846 749 q 807 922 846 878 q 679 965 769 965 l 458 965 q 435 960 441 965 q 426 940 430 956 l 351 589 q 352 566 347 570 q 381 563 357 563 "},"Ŕ":{"ha":1075,"x_min":-56,"x_max":1005,"o":"m 781 1333 q 789 1286 797 1308 q 763 1255 781 1265 l 604 1163 q 590 1157 595 1157 q 577 1165 585 1156 l 553 1190 q 553 1212 542 1201 l 690 1344 q 720 1360 703 1358 q 755 1356 738 1363 q 781 1333 772 1349 m 1000 99 q 964 40 988 66 q 908 0 941 15 q 832 -14 874 -14 q 715 25 744 -14 q 686 121 686 64 q 699 233 686 173 q 711 344 711 292 q 699 413 711 383 q 657 461 688 444 q 568 479 626 479 l 353 479 q 330 474 337 479 q 320 456 324 469 l 247 100 q 247 81 244 85 q 269 76 251 76 l 381 76 q 397 73 391 76 q 403 58 403 70 l 403 28 q 400 6 403 12 q 381 0 397 0 l -37 0 q -52 4 -48 0 q -56 19 -56 8 l -56 53 q -51 72 -56 67 q -33 76 -47 76 l 79 76 q 102 82 100 76 q 108 104 105 88 l 288 942 q 289 961 292 958 q 268 965 286 965 l 178 965 q 157 971 160 965 q 153 994 153 977 l 153 1017 q 159 1038 153 1035 q 183 1042 165 1042 l 680 1042 q 865 1009 799 1042 q 958 922 931 976 q 985 806 985 868 q 929 640 985 713 q 764 531 874 566 q 736 524 746 526 q 726 519 726 523 q 736 513 726 514 q 764 503 745 511 q 836 442 817 481 q 854 356 854 403 q 847 276 854 317 q 832 199 840 235 q 825 138 825 163 q 839 98 825 115 q 876 82 853 82 q 918 90 896 82 q 956 124 940 99 q 966 135 962 134 q 981 131 970 137 l 990 125 q 1003 116 1001 119 q 1000 99 1005 113 m 381 563 l 582 563 q 667 579 622 563 q 753 627 713 596 q 820 704 794 659 q 846 806 846 749 q 807 922 846 878 q 679 965 769 965 l 458 965 q 435 960 441 965 q 426 940 430 956 l 351 589 q 352 566 347 570 q 381 563 357 563 "},"Ŗ":{"ha":1075,"x_min":-56,"x_max":1005,"o":"m 383 -206 q 404 -159 383 -178 q 457 -140 426 -140 q 497 -151 479 -140 q 524 -186 514 -162 q 535 -244 535 -209 q 519 -313 535 -281 q 476 -372 503 -346 q 416 -413 449 -397 q 349 -433 383 -429 q 339 -432 342 -433 q 336 -424 336 -431 l 336 -400 q 340 -391 336 -393 q 350 -387 344 -388 q 406 -366 375 -383 q 458 -323 437 -349 q 476 -265 480 -297 q 472 -260 476 -258 q 465 -264 469 -261 q 452 -269 459 -267 q 436 -271 445 -271 q 395 -252 408 -271 q 383 -206 383 -233 m 1000 99 q 964 40 988 66 q 908 0 941 15 q 832 -14 874 -14 q 715 25 744 -14 q 686 121 686 64 q 699 233 686 173 q 711 344 711 292 q 699 413 711 383 q 657 461 688 444 q 568 479 626 479 l 353 479 q 330 474 337 479 q 320 456 324 469 l 247 100 q 247 81 244 85 q 269 76 251 76 l 381 76 q 397 73 391 76 q 403 58 403 70 l 403 28 q 400 6 403 12 q 381 0 397 0 l -37 0 q -52 4 -48 0 q -56 19 -56 8 l -56 53 q -51 72 -56 67 q -33 76 -47 76 l 79 76 q 102 82 100 76 q 108 104 105 88 l 288 942 q 289 961 292 958 q 268 965 286 965 l 178 965 q 157 971 160 965 q 153 994 153 977 l 153 1017 q 159 1038 153 1035 q 183 1042 165 1042 l 680 1042 q 865 1009 799 1042 q 958 922 931 976 q 985 806 985 868 q 929 640 985 713 q 764 531 874 566 q 736 524 746 526 q 726 519 726 523 q 736 513 726 514 q 764 503 745 511 q 836 442 817 481 q 854 356 854 403 q 847 276 854 317 q 832 199 840 235 q 825 138 825 163 q 839 98 825 115 q 876 82 853 82 q 918 90 896 82 q 956 124 940 99 q 966 135 962 134 q 981 131 970 137 l 990 125 q 1003 116 1001 119 q 1000 99 1005 113 m 381 563 l 582 563 q 667 579 622 563 q 753 627 713 596 q 820 704 794 659 q 846 806 846 749 q 807 922 846 878 q 679 965 769 965 l 458 965 q 435 960 441 965 q 426 940 430 956 l 351 589 q 352 566 347 570 q 381 563 357 563 "},"Ř":{"ha":1075,"x_min":-56,"x_max":1005,"o":"m 538 1195 l 448 1310 q 440 1325 441 1319 q 451 1338 440 1330 l 465 1347 q 483 1355 478 1356 q 499 1346 488 1353 l 592 1275 q 626 1261 610 1262 q 665 1275 642 1261 l 798 1356 q 815 1361 810 1363 q 827 1349 820 1359 l 833 1344 q 841 1329 840 1335 q 830 1314 842 1324 l 681 1190 q 665 1178 672 1183 q 642 1174 659 1174 l 587 1174 q 555 1180 565 1174 q 538 1195 545 1185 m 1000 99 q 964 40 988 66 q 908 0 941 15 q 832 -14 874 -14 q 715 25 744 -14 q 686 121 686 64 q 699 233 686 173 q 711 344 711 292 q 699 413 711 383 q 657 461 688 444 q 568 479 626 479 l 353 479 q 330 474 337 479 q 320 456 324 469 l 247 100 q 247 81 244 85 q 269 76 251 76 l 381 76 q 397 73 391 76 q 403 58 403 70 l 403 28 q 400 6 403 12 q 381 0 397 0 l -37 0 q -52 4 -48 0 q -56 19 -56 8 l -56 53 q -51 72 -56 67 q -33 76 -47 76 l 79 76 q 102 82 100 76 q 108 104 105 88 l 288 942 q 289 961 292 958 q 268 965 286 965 l 178 965 q 157 971 160 965 q 153 994 153 977 l 153 1017 q 159 1038 153 1035 q 183 1042 165 1042 l 680 1042 q 865 1009 799 1042 q 958 922 931 976 q 985 806 985 868 q 929 640 985 713 q 764 531 874 566 q 736 524 746 526 q 726 519 726 523 q 736 513 726 514 q 764 503 745 511 q 836 442 817 481 q 854 356 854 403 q 847 276 854 317 q 832 199 840 235 q 825 138 825 163 q 839 98 825 115 q 876 82 853 82 q 918 90 896 82 q 956 124 940 99 q 966 135 962 134 q 981 131 970 137 l 990 125 q 1003 116 1001 119 q 1000 99 1005 113 m 381 563 l 582 563 q 667 579 622 563 q 753 627 713 596 q 820 704 794 659 q 846 806 846 749 q 807 922 846 878 q 679 965 769 965 l 458 965 q 435 960 441 965 q 426 940 430 956 l 351 589 q 352 566 347 570 q 381 563 357 563 "},"Ȓ":{"ha":1075,"x_min":-56,"x_max":1005,"o":"m 633 1346 q 753 1300 722 1346 q 769 1180 784 1255 q 751 1167 767 1167 l 741 1167 q 731 1178 729 1167 q 711 1247 737 1225 q 634 1269 685 1269 q 550 1249 586 1269 q 499 1187 514 1229 q 494 1172 495 1177 q 481 1167 493 1167 l 462 1167 q 450 1170 451 1167 q 451 1183 449 1173 q 512 1301 469 1256 q 633 1346 555 1346 m 1000 99 q 964 40 988 66 q 908 0 941 15 q 832 -14 874 -14 q 715 25 744 -14 q 686 121 686 64 q 699 233 686 173 q 711 344 711 292 q 699 413 711 383 q 657 461 688 444 q 568 479 626 479 l 353 479 q 330 474 337 479 q 320 456 324 469 l 247 100 q 247 81 244 85 q 269 76 251 76 l 381 76 q 397 73 391 76 q 403 58 403 70 l 403 28 q 400 6 403 12 q 381 0 397 0 l -37 0 q -52 4 -48 0 q -56 19 -56 8 l -56 53 q -51 72 -56 67 q -33 76 -47 76 l 79 76 q 102 82 100 76 q 108 104 105 88 l 288 942 q 289 961 292 958 q 268 965 286 965 l 178 965 q 157 971 160 965 q 153 994 153 977 l 153 1017 q 159 1038 153 1035 q 183 1042 165 1042 l 680 1042 q 865 1009 799 1042 q 958 922 931 976 q 985 806 985 868 q 929 640 985 713 q 764 531 874 566 q 736 524 746 526 q 726 519 726 523 q 736 513 726 514 q 764 503 745 511 q 836 442 817 481 q 854 356 854 403 q 847 276 854 317 q 832 199 840 235 q 825 138 825 163 q 839 98 825 115 q 876 82 853 82 q 918 90 896 82 q 956 124 940 99 q 966 135 962 134 q 981 131 970 137 l 990 125 q 1003 116 1001 119 q 1000 99 1005 113 m 381 563 l 582 563 q 667 579 622 563 q 753 627 713 596 q 820 704 794 659 q 846 806 846 749 q 807 922 846 878 q 679 965 769 965 l 458 965 q 435 960 441 965 q 426 940 430 956 l 351 589 q 352 566 347 570 q 381 563 357 563 "},"S":{"ha":901,"x_min":-40,"x_max":941,"o":"m 294 792 q 323 713 294 744 q 399 659 351 681 q 502 618 446 638 q 615 576 558 599 q 718 520 671 553 q 794 437 765 488 q 822 313 822 387 q 770 134 822 208 q 625 19 719 59 q 406 -21 531 -21 q 223 7 292 -21 q 119 82 153 35 q 106 93 110 94 q 93 77 103 92 l 53 13 q 41 -2 48 3 q 18 -7 34 -7 l -16 -7 q -36 -4 -32 -7 q -37 12 -40 -1 l 44 338 q 52 351 47 347 q 68 354 57 354 l 111 354 q 121 351 117 354 q 124 343 125 349 q 123 201 104 257 q 186 112 142 144 q 289 67 231 80 q 406 54 347 54 q 552 77 497 54 q 635 135 607 100 q 674 209 664 171 q 683 278 683 247 q 655 377 683 338 q 580 442 626 416 q 477 489 533 469 q 366 530 422 509 q 263 580 310 551 q 188 652 217 609 q 160 761 160 696 q 197 896 160 840 q 293 990 234 953 q 418 1045 351 1027 q 544 1063 485 1063 q 680 1040 621 1063 q 781 976 739 1018 q 805 958 797 960 q 826 978 813 957 l 854 1023 q 864 1037 860 1033 q 884 1042 868 1042 l 910 1042 q 937 1037 933 1042 q 938 1015 941 1033 l 875 722 q 866 705 872 708 q 842 701 859 701 l 817 701 q 793 708 795 701 q 792 731 790 714 q 774 861 801 804 q 686 952 746 919 q 539 985 626 985 q 415 960 470 985 q 327 892 360 935 q 294 792 294 849 "},"Ś":{"ha":901,"x_min":-40,"x_max":941,"o":"m 781 1333 q 789 1286 797 1308 q 763 1255 781 1265 l 604 1163 q 590 1157 595 1157 q 577 1165 585 1156 l 553 1190 q 553 1212 542 1201 l 690 1344 q 720 1360 703 1358 q 755 1356 738 1363 q 781 1333 772 1349 m 294 792 q 323 713 294 744 q 399 659 351 681 q 502 618 446 638 q 615 576 558 599 q 718 520 671 553 q 794 437 765 488 q 822 313 822 387 q 770 134 822 208 q 625 19 719 59 q 406 -21 531 -21 q 223 7 292 -21 q 119 82 153 35 q 106 93 110 94 q 93 77 103 92 l 53 13 q 41 -2 48 3 q 18 -7 34 -7 l -16 -7 q -36 -4 -32 -7 q -37 12 -40 -1 l 44 338 q 52 351 47 347 q 68 354 57 354 l 111 354 q 121 351 117 354 q 124 343 125 349 q 123 201 104 257 q 186 112 142 144 q 289 67 231 80 q 406 54 347 54 q 552 77 497 54 q 635 135 607 100 q 674 209 664 171 q 683 278 683 247 q 655 377 683 338 q 580 442 626 416 q 477 489 533 469 q 366 530 422 509 q 263 580 310 551 q 188 652 217 609 q 160 761 160 696 q 197 896 160 840 q 293 990 234 953 q 418 1045 351 1027 q 544 1063 485 1063 q 680 1040 621 1063 q 781 976 739 1018 q 805 958 797 960 q 826 978 813 957 l 854 1023 q 864 1037 860 1033 q 884 1042 868 1042 l 910 1042 q 937 1037 933 1042 q 938 1015 941 1033 l 875 722 q 866 705 872 708 q 842 701 859 701 l 817 701 q 793 708 795 701 q 792 731 790 714 q 774 861 801 804 q 686 952 746 919 q 539 985 626 985 q 415 960 470 985 q 327 892 360 935 q 294 792 294 849 "},"Ŝ":{"ha":901,"x_min":-40,"x_max":941,"o":"m 428 1174 l 417 1190 q 412 1201 411 1198 q 422 1211 413 1203 l 581 1342 q 597 1351 590 1349 q 619 1353 604 1353 l 678 1353 q 698 1351 692 1353 q 708 1342 703 1348 l 813 1208 q 817 1201 817 1203 q 810 1194 817 1199 l 790 1177 q 778 1170 781 1169 q 768 1176 776 1170 l 661 1271 q 626 1272 646 1284 l 452 1169 q 438 1165 443 1164 q 428 1174 433 1167 m 294 792 q 323 713 294 744 q 399 659 351 681 q 502 618 446 638 q 615 576 558 599 q 718 520 671 553 q 794 437 765 488 q 822 313 822 387 q 770 134 822 208 q 625 19 719 59 q 406 -21 531 -21 q 223 7 292 -21 q 119 82 153 35 q 106 93 110 94 q 93 77 103 92 l 53 13 q 41 -2 48 3 q 18 -7 34 -7 l -16 -7 q -36 -4 -32 -7 q -37 12 -40 -1 l 44 338 q 52 351 47 347 q 68 354 57 354 l 111 354 q 121 351 117 354 q 124 343 125 349 q 123 201 104 257 q 186 112 142 144 q 289 67 231 80 q 406 54 347 54 q 552 77 497 54 q 635 135 607 100 q 674 209 664 171 q 683 278 683 247 q 655 377 683 338 q 580 442 626 416 q 477 489 533 469 q 366 530 422 509 q 263 580 310 551 q 188 652 217 609 q 160 761 160 696 q 197 896 160 840 q 293 990 234 953 q 418 1045 351 1027 q 544 1063 485 1063 q 680 1040 621 1063 q 781 976 739 1018 q 805 958 797 960 q 826 978 813 957 l 854 1023 q 864 1037 860 1033 q 884 1042 868 1042 l 910 1042 q 937 1037 933 1042 q 938 1015 941 1033 l 875 722 q 866 705 872 708 q 842 701 859 701 l 817 701 q 793 708 795 701 q 792 731 790 714 q 774 861 801 804 q 686 952 746 919 q 539 985 626 985 q 415 960 470 985 q 327 892 360 935 q 294 792 294 849 "},"Ş":{"ha":901,"x_min":-40,"x_max":941,"o":"m 215 -333 l 218 -322 q 227 -307 221 -310 q 243 -303 233 -303 q 300 -293 272 -301 q 348 -271 328 -285 q 373 -233 368 -256 q 365 -190 379 -206 q 323 -168 350 -175 q 266 -159 297 -162 q 244 -152 247 -157 q 251 -139 242 -148 l 386 1 q 408 8 392 8 l 426 8 q 445 5 442 8 q 442 -6 449 2 l 363 -87 q 353 -101 351 -99 q 372 -104 354 -103 q 458 -133 428 -109 q 475 -215 488 -157 q 443 -279 467 -253 q 384 -321 419 -305 q 310 -344 350 -337 q 228 -353 269 -352 q 215 -333 210 -354 m 294 792 q 323 713 294 744 q 399 659 351 681 q 502 618 446 638 q 615 576 558 599 q 718 520 671 553 q 794 437 765 488 q 822 313 822 387 q 770 134 822 208 q 625 19 719 59 q 406 -21 531 -21 q 223 7 292 -21 q 119 82 153 35 q 106 93 110 94 q 93 77 103 92 l 53 13 q 41 -2 48 3 q 18 -7 34 -7 l -16 -7 q -36 -4 -32 -7 q -37 12 -40 -1 l 44 338 q 52 351 47 347 q 68 354 57 354 l 111 354 q 121 351 117 354 q 124 343 125 349 q 123 201 104 257 q 186 112 142 144 q 289 67 231 80 q 406 54 347 54 q 552 77 497 54 q 635 135 607 100 q 674 209 664 171 q 683 278 683 247 q 655 377 683 338 q 580 442 626 416 q 477 489 533 469 q 366 530 422 509 q 263 580 310 551 q 188 652 217 609 q 160 761 160 696 q 197 896 160 840 q 293 990 234 953 q 418 1045 351 1027 q 544 1063 485 1063 q 680 1040 621 1063 q 781 976 739 1018 q 805 958 797 960 q 826 978 813 957 l 854 1023 q 864 1037 860 1033 q 884 1042 868 1042 l 910 1042 q 937 1037 933 1042 q 938 1015 941 1033 l 875 722 q 866 705 872 708 q 842 701 859 701 l 817 701 q 793 708 795 701 q 792 731 790 714 q 774 861 801 804 q 686 952 746 919 q 539 985 626 985 q 415 960 470 985 q 327 892 360 935 q 294 792 294 849 "},"Š":{"ha":901,"x_min":-40,"x_max":941,"o":"m 538 1195 l 448 1310 q 440 1325 441 1319 q 451 1338 440 1330 l 465 1347 q 483 1355 478 1356 q 499 1346 488 1353 l 592 1275 q 626 1261 610 1262 q 665 1275 642 1261 l 798 1356 q 815 1361 810 1363 q 827 1349 820 1359 l 833 1344 q 841 1329 840 1335 q 830 1314 842 1324 l 681 1190 q 665 1178 672 1183 q 642 1174 659 1174 l 587 1174 q 555 1180 565 1174 q 538 1195 545 1185 m 294 792 q 323 713 294 744 q 399 659 351 681 q 502 618 446 638 q 615 576 558 599 q 718 520 671 553 q 794 437 765 488 q 822 313 822 387 q 770 134 822 208 q 625 19 719 59 q 406 -21 531 -21 q 223 7 292 -21 q 119 82 153 35 q 106 93 110 94 q 93 77 103 92 l 53 13 q 41 -2 48 3 q 18 -7 34 -7 l -16 -7 q -36 -4 -32 -7 q -37 12 -40 -1 l 44 338 q 52 351 47 347 q 68 354 57 354 l 111 354 q 121 351 117 354 q 124 343 125 349 q 123 201 104 257 q 186 112 142 144 q 289 67 231 80 q 406 54 347 54 q 552 77 497 54 q 635 135 607 100 q 674 209 664 171 q 683 278 683 247 q 655 377 683 338 q 580 442 626 416 q 477 489 533 469 q 366 530 422 509 q 263 580 310 551 q 188 652 217 609 q 160 761 160 696 q 197 896 160 840 q 293 990 234 953 q 418 1045 351 1027 q 544 1063 485 1063 q 680 1040 621 1063 q 781 976 739 1018 q 805 958 797 960 q 826 978 813 957 l 854 1023 q 864 1037 860 1033 q 884 1042 868 1042 l 910 1042 q 937 1037 933 1042 q 938 1015 941 1033 l 875 722 q 866 705 872 708 q 842 701 859 701 l 817 701 q 793 708 795 701 q 792 731 790 714 q 774 861 801 804 q 686 952 746 919 q 539 985 626 985 q 415 960 470 985 q 327 892 360 935 q 294 792 294 849 "},"Ș":{"ha":901,"x_min":-40,"x_max":941,"o":"m 299 -206 q 320 -159 299 -178 q 373 -140 342 -140 q 413 -151 395 -140 q 440 -186 430 -162 q 451 -244 451 -209 q 435 -313 451 -281 q 392 -372 419 -346 q 332 -413 365 -397 q 265 -433 299 -429 q 255 -432 258 -433 q 252 -424 252 -431 l 252 -400 q 256 -391 252 -393 q 266 -387 260 -388 q 322 -366 291 -383 q 374 -323 353 -349 q 392 -265 396 -297 q 388 -260 392 -258 q 381 -264 385 -261 q 368 -269 375 -267 q 352 -271 361 -271 q 311 -252 324 -271 q 299 -206 299 -233 m 294 792 q 323 713 294 744 q 399 659 351 681 q 502 618 446 638 q 615 576 558 599 q 718 520 671 553 q 794 437 765 488 q 822 313 822 387 q 770 134 822 208 q 625 19 719 59 q 406 -21 531 -21 q 223 7 292 -21 q 119 82 153 35 q 106 93 110 94 q 93 77 103 92 l 53 13 q 41 -2 48 3 q 18 -7 34 -7 l -16 -7 q -36 -4 -32 -7 q -37 12 -40 -1 l 44 338 q 52 351 47 347 q 68 354 57 354 l 111 354 q 121 351 117 354 q 124 343 125 349 q 123 201 104 257 q 186 112 142 144 q 289 67 231 80 q 406 54 347 54 q 552 77 497 54 q 635 135 607 100 q 674 209 664 171 q 683 278 683 247 q 655 377 683 338 q 580 442 626 416 q 477 489 533 469 q 366 530 422 509 q 263 580 310 551 q 188 652 217 609 q 160 761 160 696 q 197 896 160 840 q 293 990 234 953 q 418 1045 351 1027 q 544 1063 485 1063 q 680 1040 621 1063 q 781 976 739 1018 q 805 958 797 960 q 826 978 813 957 l 854 1023 q 864 1037 860 1033 q 884 1042 868 1042 l 910 1042 q 937 1037 933 1042 q 938 1015 941 1033 l 875 722 q 866 705 872 708 q 842 701 859 701 l 817 701 q 793 708 795 701 q 792 731 790 714 q 774 861 801 804 q 686 952 746 919 q 539 985 626 985 q 415 960 470 985 q 327 892 360 935 q 294 792 294 849 "},"T":{"ha":1026,"x_min":73,"x_max":1093,"o":"m 168 24 l 168 57 q 170 72 168 67 q 183 76 173 76 l 301 76 q 332 82 324 76 q 344 106 340 87 l 524 944 q 524 967 527 961 q 499 972 522 972 l 447 972 q 300 949 356 972 q 208 869 243 925 q 146 714 173 813 q 139 695 143 703 q 118 688 134 688 l 91 688 q 74 697 74 688 q 76 717 73 706 l 143 1015 q 152 1036 147 1031 q 178 1042 158 1042 l 1058 1042 q 1089 1036 1085 1042 q 1088 1010 1093 1031 l 1019 710 q 1013 691 1016 695 q 991 688 1010 688 l 973 688 q 949 692 951 688 q 949 715 946 697 q 964 870 969 815 q 915 949 958 926 q 781 972 872 972 l 701 972 q 674 967 681 972 q 663 946 667 963 l 483 106 q 483 82 479 88 q 510 76 487 76 l 624 76 q 644 71 640 76 q 647 49 647 65 l 647 28 q 641 4 647 8 q 616 0 634 0 l 187 0 q 171 5 174 0 q 168 24 168 10 "},"Ţ":{"ha":1026,"x_min":73,"x_max":1093,"o":"m 223 -333 l 226 -322 q 234 -307 228 -310 q 251 -303 240 -303 q 307 -293 279 -301 q 356 -271 335 -285 q 381 -233 376 -256 q 372 -190 387 -206 q 331 -168 358 -175 q 274 -159 304 -162 q 252 -152 254 -157 q 259 -139 250 -148 l 394 1 q 416 8 400 8 l 433 8 q 453 5 449 8 q 449 -6 457 2 l 370 -87 q 360 -101 359 -99 q 380 -104 362 -103 q 465 -133 435 -109 q 483 -215 495 -157 q 450 -279 474 -253 q 392 -321 426 -305 q 317 -344 358 -337 q 236 -353 277 -352 q 223 -333 218 -354 m 168 24 l 168 57 q 170 72 168 67 q 183 76 173 76 l 301 76 q 332 82 324 76 q 344 106 340 87 l 524 944 q 524 967 527 961 q 499 972 522 972 l 447 972 q 300 949 356 972 q 208 869 243 925 q 146 714 173 813 q 139 695 143 703 q 118 688 134 688 l 91 688 q 74 697 74 688 q 76 717 73 706 l 143 1015 q 152 1036 147 1031 q 178 1042 158 1042 l 1058 1042 q 1089 1036 1085 1042 q 1088 1010 1093 1031 l 1019 710 q 1013 691 1016 695 q 991 688 1010 688 l 973 688 q 949 692 951 688 q 949 715 946 697 q 964 870 969 815 q 915 949 958 926 q 781 972 872 972 l 701 972 q 674 967 681 972 q 663 946 667 963 l 483 106 q 483 82 479 88 q 510 76 487 76 l 624 76 q 644 71 640 76 q 647 49 647 65 l 647 28 q 641 4 647 8 q 616 0 634 0 l 187 0 q 171 5 174 0 q 168 24 168 10 "},"Ť":{"ha":1026,"x_min":73,"x_max":1093,"o":"m 599 1195 l 510 1310 q 502 1325 503 1319 q 513 1338 501 1330 l 527 1347 q 545 1355 540 1356 q 560 1346 550 1353 l 653 1275 q 688 1261 672 1262 q 727 1275 703 1261 l 860 1356 q 877 1361 872 1363 q 889 1349 882 1359 l 894 1344 q 903 1329 902 1335 q 892 1314 903 1324 l 742 1190 q 727 1178 733 1183 q 704 1174 721 1174 l 649 1174 q 617 1180 627 1174 q 599 1195 607 1185 m 168 24 l 168 57 q 170 72 168 67 q 183 76 173 76 l 301 76 q 332 82 324 76 q 344 106 340 87 l 524 944 q 524 967 527 961 q 499 972 522 972 l 447 972 q 300 949 356 972 q 208 869 243 925 q 146 714 173 813 q 139 695 143 703 q 118 688 134 688 l 91 688 q 74 697 74 688 q 76 717 73 706 l 143 1015 q 152 1036 147 1031 q 178 1042 158 1042 l 1058 1042 q 1089 1036 1085 1042 q 1088 1010 1093 1031 l 1019 710 q 1013 691 1016 695 q 991 688 1010 688 l 973 688 q 949 692 951 688 q 949 715 946 697 q 964 870 969 815 q 915 949 958 926 q 781 972 872 972 l 701 972 q 674 967 681 972 q 663 946 667 963 l 483 106 q 483 82 479 88 q 510 76 487 76 l 624 76 q 644 71 640 76 q 647 49 647 65 l 647 28 q 641 4 647 8 q 616 0 634 0 l 187 0 q 171 5 174 0 q 168 24 168 10 "},"Ț":{"ha":1026,"x_min":73,"x_max":1093,"o":"m 306 -206 q 328 -159 306 -178 q 381 -140 349 -140 q 420 -151 403 -140 q 448 -186 438 -162 q 458 -244 458 -209 q 443 -313 458 -281 q 400 -372 427 -346 q 340 -413 373 -397 q 272 -433 307 -429 q 263 -432 266 -433 q 260 -424 260 -431 l 260 -400 q 264 -391 260 -393 q 274 -387 267 -388 q 330 -366 299 -383 q 382 -323 360 -349 q 400 -265 403 -297 q 396 -260 399 -258 q 388 -264 392 -261 q 376 -269 383 -267 q 360 -271 369 -271 q 319 -252 332 -271 q 306 -206 306 -233 m 168 24 l 168 57 q 170 72 168 67 q 183 76 173 76 l 301 76 q 332 82 324 76 q 344 106 340 87 l 524 944 q 524 967 527 961 q 499 972 522 972 l 447 972 q 300 949 356 972 q 208 869 243 925 q 146 714 173 813 q 139 695 143 703 q 118 688 134 688 l 91 688 q 74 697 74 688 q 76 717 73 706 l 143 1015 q 152 1036 147 1031 q 178 1042 158 1042 l 1058 1042 q 1089 1036 1085 1042 q 1088 1010 1093 1031 l 1019 710 q 1013 691 1016 695 q 991 688 1010 688 l 973 688 q 949 692 951 688 q 949 715 946 697 q 964 870 969 815 q 915 949 958 926 q 781 972 872 972 l 701 972 q 674 967 681 972 q 663 946 667 963 l 483 106 q 483 82 479 88 q 510 76 487 76 l 624 76 q 644 71 640 76 q 647 49 647 65 l 647 28 q 641 4 647 8 q 616 0 634 0 l 187 0 q 171 5 174 0 q 168 24 168 10 "},"U":{"ha":1156,"x_min":125,"x_max":1225,"o":"m 414 942 l 286 431 q 268 344 275 386 q 261 264 261 301 q 308 119 261 176 q 474 63 354 63 q 655 101 581 63 q 778 219 729 140 q 856 417 826 297 l 983 938 q 984 960 987 954 q 958 965 981 965 l 851 965 q 832 971 835 965 q 829 992 829 976 l 829 1021 q 831 1036 829 1031 q 844 1042 833 1042 l 1191 1042 q 1217 1038 1210 1042 q 1225 1014 1225 1034 l 1225 989 q 1219 969 1225 974 q 1199 965 1214 965 l 1103 965 q 1075 961 1080 965 q 1066 938 1071 956 l 939 417 q 843 178 904 276 q 686 30 781 81 q 453 -21 590 -21 q 258 14 330 -21 q 156 111 187 49 q 125 253 125 173 q 131 333 125 292 q 147 417 137 374 l 274 935 q 276 959 279 953 q 251 965 274 965 l 160 965 q 139 971 143 965 q 135 993 135 977 l 135 1019 q 140 1038 135 1035 q 160 1042 145 1042 l 552 1042 q 575 1036 570 1042 q 579 1013 579 1031 l 579 986 q 575 969 579 974 q 558 965 571 965 l 441 965 q 420 960 423 965 q 414 942 417 956 "},"Ù":{"ha":1156,"x_min":125,"x_max":1225,"o":"m 595 1333 q 622 1356 605 1349 q 656 1360 638 1363 q 687 1344 674 1358 l 822 1213 q 822 1188 834 1201 l 799 1163 q 789 1156 793 1157 q 778 1159 785 1154 l 614 1255 q 588 1286 597 1265 q 595 1333 580 1308 m 414 942 l 286 431 q 268 344 275 386 q 261 264 261 301 q 308 119 261 176 q 474 63 354 63 q 655 101 581 63 q 778 219 729 140 q 856 417 826 297 l 983 938 q 984 960 987 954 q 958 965 981 965 l 851 965 q 832 971 835 965 q 829 992 829 976 l 829 1021 q 831 1036 829 1031 q 844 1042 833 1042 l 1191 1042 q 1217 1038 1210 1042 q 1225 1014 1225 1034 l 1225 989 q 1219 969 1225 974 q 1199 965 1214 965 l 1103 965 q 1075 961 1080 965 q 1066 938 1071 956 l 939 417 q 843 178 904 276 q 686 30 781 81 q 453 -21 590 -21 q 258 14 330 -21 q 156 111 187 49 q 125 253 125 173 q 131 333 125 292 q 147 417 137 374 l 274 935 q 276 959 279 953 q 251 965 274 965 l 160 965 q 139 971 143 965 q 135 993 135 977 l 135 1019 q 140 1038 135 1035 q 160 1042 145 1042 l 552 1042 q 575 1036 570 1042 q 579 1013 579 1031 l 579 986 q 575 969 579 974 q 558 965 571 965 l 441 965 q 420 960 423 965 q 414 942 417 956 "},"Ú":{"ha":1156,"x_min":125,"x_max":1225,"o":"m 920 1333 q 927 1286 935 1308 q 901 1255 919 1265 l 743 1163 q 729 1157 734 1157 q 716 1165 724 1156 l 692 1190 q 692 1212 681 1201 l 828 1344 q 859 1360 842 1358 q 894 1356 877 1363 q 920 1333 911 1349 m 414 942 l 286 431 q 268 344 275 386 q 261 264 261 301 q 308 119 261 176 q 474 63 354 63 q 655 101 581 63 q 778 219 729 140 q 856 417 826 297 l 983 938 q 984 960 987 954 q 958 965 981 965 l 851 965 q 832 971 835 965 q 829 992 829 976 l 829 1021 q 831 1036 829 1031 q 844 1042 833 1042 l 1191 1042 q 1217 1038 1210 1042 q 1225 1014 1225 1034 l 1225 989 q 1219 969 1225 974 q 1199 965 1214 965 l 1103 965 q 1075 961 1080 965 q 1066 938 1071 956 l 939 417 q 843 178 904 276 q 686 30 781 81 q 453 -21 590 -21 q 258 14 330 -21 q 156 111 187 49 q 125 253 125 173 q 131 333 125 292 q 147 417 137 374 l 274 935 q 276 959 279 953 q 251 965 274 965 l 160 965 q 139 971 143 965 q 135 993 135 977 l 135 1019 q 140 1038 135 1035 q 160 1042 145 1042 l 552 1042 q 575 1036 570 1042 q 579 1013 579 1031 l 579 986 q 575 969 579 974 q 558 965 571 965 l 441 965 q 420 960 423 965 q 414 942 417 956 "},"Û":{"ha":1156,"x_min":125,"x_max":1225,"o":"m 567 1174 l 556 1190 q 551 1201 550 1198 q 561 1211 552 1203 l 719 1342 q 736 1351 728 1349 q 758 1353 743 1353 l 817 1353 q 837 1351 831 1353 q 847 1342 842 1348 l 952 1208 q 956 1201 956 1203 q 949 1194 956 1199 l 929 1177 q 917 1170 920 1169 q 907 1176 915 1170 l 800 1271 q 765 1272 785 1284 l 591 1169 q 577 1165 582 1164 q 567 1174 572 1167 m 414 942 l 286 431 q 268 344 275 386 q 261 264 261 301 q 308 119 261 176 q 474 63 354 63 q 655 101 581 63 q 778 219 729 140 q 856 417 826 297 l 983 938 q 984 960 987 954 q 958 965 981 965 l 851 965 q 832 971 835 965 q 829 992 829 976 l 829 1021 q 831 1036 829 1031 q 844 1042 833 1042 l 1191 1042 q 1217 1038 1210 1042 q 1225 1014 1225 1034 l 1225 989 q 1219 969 1225 974 q 1199 965 1214 965 l 1103 965 q 1075 961 1080 965 q 1066 938 1071 956 l 939 417 q 843 178 904 276 q 686 30 781 81 q 453 -21 590 -21 q 258 14 330 -21 q 156 111 187 49 q 125 253 125 173 q 131 333 125 292 q 147 417 137 374 l 274 935 q 276 959 279 953 q 251 965 274 965 l 160 965 q 139 971 143 965 q 135 993 135 977 l 135 1019 q 140 1038 135 1035 q 160 1042 145 1042 l 552 1042 q 575 1036 570 1042 q 579 1013 579 1031 l 579 986 q 575 969 579 974 q 558 965 571 965 l 441 965 q 420 960 423 965 q 414 942 417 956 "},"Ü":{"ha":1156,"x_min":125,"x_max":1225,"o":"m 872 1174 q 824 1193 844 1174 q 805 1240 805 1213 q 824 1288 805 1268 q 872 1308 844 1308 q 919 1288 899 1308 q 938 1240 938 1268 q 919 1193 938 1213 q 872 1174 899 1174 m 649 1174 q 602 1193 622 1174 q 583 1240 583 1213 q 602 1288 583 1268 q 649 1308 622 1308 q 697 1288 677 1308 q 716 1240 716 1268 q 697 1193 716 1213 q 649 1174 677 1174 m 414 942 l 286 431 q 268 344 275 386 q 261 264 261 301 q 308 119 261 176 q 474 63 354 63 q 655 101 581 63 q 778 219 729 140 q 856 417 826 297 l 983 938 q 984 960 987 954 q 958 965 981 965 l 851 965 q 832 971 835 965 q 829 992 829 976 l 829 1021 q 831 1036 829 1031 q 844 1042 833 1042 l 1191 1042 q 1217 1038 1210 1042 q 1225 1014 1225 1034 l 1225 989 q 1219 969 1225 974 q 1199 965 1214 965 l 1103 965 q 1075 961 1080 965 q 1066 938 1071 956 l 939 417 q 843 178 904 276 q 686 30 781 81 q 453 -21 590 -21 q 258 14 330 -21 q 156 111 187 49 q 125 253 125 173 q 131 333 125 292 q 147 417 137 374 l 274 935 q 276 959 279 953 q 251 965 274 965 l 160 965 q 139 971 143 965 q 135 993 135 977 l 135 1019 q 140 1038 135 1035 q 160 1042 145 1042 l 552 1042 q 575 1036 570 1042 q 579 1013 579 1031 l 579 986 q 575 969 579 974 q 558 965 571 965 l 441 965 q 420 960 423 965 q 414 942 417 956 "},"Ũ":{"ha":1156,"x_min":125,"x_max":1225,"o":"m 863 1167 q 782 1183 809 1167 q 738 1222 755 1200 q 706 1258 724 1239 q 651 1276 688 1276 q 601 1254 623 1276 q 569 1190 580 1232 q 553 1181 566 1181 l 524 1181 q 512 1186 513 1181 q 515 1201 512 1191 q 549 1281 528 1246 q 603 1336 570 1316 q 687 1357 637 1357 q 768 1341 741 1357 q 811 1302 796 1324 q 838 1266 823 1285 q 885 1247 853 1247 q 934 1268 913 1247 q 965 1328 954 1289 q 971 1340 967 1336 q 984 1343 974 1343 l 1014 1343 q 1025 1340 1024 1343 q 1024 1328 1026 1336 q 990 1240 1011 1276 q 939 1185 969 1204 q 863 1167 908 1167 m 414 942 l 286 431 q 268 344 275 386 q 261 264 261 301 q 308 119 261 176 q 474 63 354 63 q 655 101 581 63 q 778 219 729 140 q 856 417 826 297 l 983 938 q 984 960 987 954 q 958 965 981 965 l 851 965 q 832 971 835 965 q 829 992 829 976 l 829 1021 q 831 1036 829 1031 q 844 1042 833 1042 l 1191 1042 q 1217 1038 1210 1042 q 1225 1014 1225 1034 l 1225 989 q 1219 969 1225 974 q 1199 965 1214 965 l 1103 965 q 1075 961 1080 965 q 1066 938 1071 956 l 939 417 q 843 178 904 276 q 686 30 781 81 q 453 -21 590 -21 q 258 14 330 -21 q 156 111 187 49 q 125 253 125 173 q 131 333 125 292 q 147 417 137 374 l 274 935 q 276 959 279 953 q 251 965 274 965 l 160 965 q 139 971 143 965 q 135 993 135 977 l 135 1019 q 140 1038 135 1035 q 160 1042 145 1042 l 552 1042 q 575 1036 570 1042 q 579 1013 579 1031 l 579 986 q 575 969 579 974 q 558 965 571 965 l 441 965 q 420 960 423 965 q 414 942 417 956 "},"Ū":{"ha":1156,"x_min":125,"x_max":1225,"o":"m 587 1189 l 587 1212 q 589 1226 587 1222 q 601 1231 592 1231 l 897 1231 q 915 1227 910 1231 q 920 1209 920 1223 l 920 1188 q 918 1172 920 1176 q 905 1167 916 1167 l 611 1167 q 592 1170 598 1167 q 587 1189 587 1174 m 414 942 l 286 431 q 268 344 275 386 q 261 264 261 301 q 308 119 261 176 q 474 63 354 63 q 655 101 581 63 q 778 219 729 140 q 856 417 826 297 l 983 938 q 984 960 987 954 q 958 965 981 965 l 851 965 q 832 971 835 965 q 829 992 829 976 l 829 1021 q 831 1036 829 1031 q 844 1042 833 1042 l 1191 1042 q 1217 1038 1210 1042 q 1225 1014 1225 1034 l 1225 989 q 1219 969 1225 974 q 1199 965 1214 965 l 1103 965 q 1075 961 1080 965 q 1066 938 1071 956 l 939 417 q 843 178 904 276 q 686 30 781 81 q 453 -21 590 -21 q 258 14 330 -21 q 156 111 187 49 q 125 253 125 173 q 131 333 125 292 q 147 417 137 374 l 274 935 q 276 959 279 953 q 251 965 274 965 l 160 965 q 139 971 143 965 q 135 993 135 977 l 135 1019 q 140 1038 135 1035 q 160 1042 145 1042 l 552 1042 q 575 1036 570 1042 q 579 1013 579 1031 l 579 986 q 575 969 579 974 q 558 965 571 965 l 441 965 q 420 960 423 965 q 414 942 417 956 "},"Ŭ":{"ha":1156,"x_min":125,"x_max":1225,"o":"m 724 1167 q 625 1188 658 1167 q 585 1245 592 1208 q 588 1333 578 1283 q 606 1346 590 1346 l 616 1346 q 626 1335 628 1346 q 646 1266 620 1288 q 723 1243 672 1243 q 807 1263 771 1243 q 858 1326 843 1283 q 863 1341 862 1335 q 876 1346 864 1346 l 895 1346 q 907 1343 906 1346 q 906 1329 908 1340 q 845 1211 888 1256 q 724 1167 802 1167 m 414 942 l 286 431 q 268 344 275 386 q 261 264 261 301 q 308 119 261 176 q 474 63 354 63 q 655 101 581 63 q 778 219 729 140 q 856 417 826 297 l 983 938 q 984 960 987 954 q 958 965 981 965 l 851 965 q 832 971 835 965 q 829 992 829 976 l 829 1021 q 831 1036 829 1031 q 844 1042 833 1042 l 1191 1042 q 1217 1038 1210 1042 q 1225 1014 1225 1034 l 1225 989 q 1219 969 1225 974 q 1199 965 1214 965 l 1103 965 q 1075 961 1080 965 q 1066 938 1071 956 l 939 417 q 843 178 904 276 q 686 30 781 81 q 453 -21 590 -21 q 258 14 330 -21 q 156 111 187 49 q 125 253 125 173 q 131 333 125 292 q 147 417 137 374 l 274 935 q 276 959 279 953 q 251 965 274 965 l 160 965 q 139 971 143 965 q 135 993 135 977 l 135 1019 q 140 1038 135 1035 q 160 1042 145 1042 l 552 1042 q 575 1036 570 1042 q 579 1013 579 1031 l 579 986 q 575 969 579 974 q 558 965 571 965 l 441 965 q 420 960 423 965 q 414 942 417 956 "},"Ů":{"ha":1156,"x_min":125,"x_max":1225,"o":"m 722 1218 q 777 1238 753 1218 q 808 1291 801 1258 q 799 1345 815 1324 q 753 1366 784 1366 q 698 1345 722 1366 q 667 1291 674 1324 q 675 1238 660 1258 q 722 1218 690 1218 m 710 1167 q 630 1202 658 1167 q 613 1291 601 1238 q 643 1355 620 1326 q 697 1400 665 1383 q 764 1417 729 1417 q 845 1381 817 1417 q 862 1291 874 1344 q 832 1228 855 1256 q 777 1183 809 1199 q 710 1167 746 1167 m 414 942 l 286 431 q 268 344 275 386 q 261 264 261 301 q 308 119 261 176 q 474 63 354 63 q 655 101 581 63 q 778 219 729 140 q 856 417 826 297 l 983 938 q 984 960 987 954 q 958 965 981 965 l 851 965 q 832 971 835 965 q 829 992 829 976 l 829 1021 q 831 1036 829 1031 q 844 1042 833 1042 l 1191 1042 q 1217 1038 1210 1042 q 1225 1014 1225 1034 l 1225 989 q 1219 969 1225 974 q 1199 965 1214 965 l 1103 965 q 1075 961 1080 965 q 1066 938 1071 956 l 939 417 q 843 178 904 276 q 686 30 781 81 q 453 -21 590 -21 q 258 14 330 -21 q 156 111 187 49 q 125 253 125 173 q 131 333 125 292 q 147 417 137 374 l 274 935 q 276 959 279 953 q 251 965 274 965 l 160 965 q 139 971 143 965 q 135 993 135 977 l 135 1019 q 140 1038 135 1035 q 160 1042 145 1042 l 552 1042 q 575 1036 570 1042 q 579 1013 579 1031 l 579 986 q 575 969 579 974 q 558 965 571 965 l 441 965 q 420 960 423 965 q 414 942 417 956 "},"Ű":{"ha":1156,"x_min":125,"x_max":1225,"o":"m 840 1167 l 824 1184 q 812 1200 813 1196 q 822 1215 811 1204 l 954 1344 q 987 1362 969 1360 q 1021 1357 1005 1364 q 1047 1336 1037 1349 q 1055 1292 1061 1317 q 1027 1255 1049 1268 l 865 1160 q 851 1157 856 1155 q 840 1167 847 1158 m 550 1170 l 535 1185 q 527 1203 524 1197 q 541 1219 530 1209 l 669 1344 q 701 1362 684 1360 q 733 1358 718 1365 q 758 1338 749 1351 q 769 1294 773 1319 q 742 1255 766 1269 l 596 1172 q 571 1159 579 1162 q 550 1170 563 1156 m 414 942 l 286 431 q 268 344 275 386 q 261 264 261 301 q 308 119 261 176 q 474 63 354 63 q 655 101 581 63 q 778 219 729 140 q 856 417 826 297 l 983 938 q 984 960 987 954 q 958 965 981 965 l 851 965 q 832 971 835 965 q 829 992 829 976 l 829 1021 q 831 1036 829 1031 q 844 1042 833 1042 l 1191 1042 q 1217 1038 1210 1042 q 1225 1014 1225 1034 l 1225 989 q 1219 969 1225 974 q 1199 965 1214 965 l 1103 965 q 1075 961 1080 965 q 1066 938 1071 956 l 939 417 q 843 178 904 276 q 686 30 781 81 q 453 -21 590 -21 q 258 14 330 -21 q 156 111 187 49 q 125 253 125 173 q 131 333 125 292 q 147 417 137 374 l 274 935 q 276 959 279 953 q 251 965 274 965 l 160 965 q 139 971 143 965 q 135 993 135 977 l 135 1019 q 140 1038 135 1035 q 160 1042 145 1042 l 552 1042 q 575 1036 570 1042 q 579 1013 579 1031 l 579 986 q 575 969 579 974 q 558 965 571 965 l 441 965 q 420 960 423 965 q 414 942 417 956 "},"Ų":{"ha":1156,"x_min":125,"x_max":1225,"o":"m 497 -291 q 425 -281 458 -291 q 377 -248 393 -272 q 369 -185 360 -225 q 398 -128 375 -156 q 453 -74 421 -100 q 522 -26 486 -49 q 589 16 557 -3 q 611 26 602 24 q 624 23 621 28 q 621 10 627 17 q 605 -8 615 2 q 565 -48 585 -26 q 528 -97 544 -71 q 506 -151 512 -122 q 510 -200 500 -177 q 556 -224 520 -224 q 603 -211 582 -224 q 639 -181 624 -198 q 660 -176 651 -167 l 668 -183 q 673 -192 674 -188 q 667 -203 672 -195 q 598 -266 638 -241 q 497 -291 558 -291 m 414 942 l 286 431 q 268 344 275 386 q 261 264 261 301 q 308 119 261 176 q 474 63 354 63 q 655 101 581 63 q 778 219 729 140 q 856 417 826 297 l 983 938 q 984 960 987 954 q 958 965 981 965 l 851 965 q 832 971 835 965 q 829 992 829 976 l 829 1021 q 831 1036 829 1031 q 844 1042 833 1042 l 1191 1042 q 1217 1038 1210 1042 q 1225 1014 1225 1034 l 1225 989 q 1219 969 1225 974 q 1199 965 1214 965 l 1103 965 q 1075 961 1080 965 q 1066 938 1071 956 l 939 417 q 843 178 904 276 q 686 30 781 81 q 453 -21 590 -21 q 258 14 330 -21 q 156 111 187 49 q 125 253 125 173 q 131 333 125 292 q 147 417 137 374 l 274 935 q 276 959 279 953 q 251 965 274 965 l 160 965 q 139 971 143 965 q 135 993 135 977 l 135 1019 q 140 1038 135 1035 q 160 1042 145 1042 l 552 1042 q 575 1036 570 1042 q 579 1013 579 1031 l 579 986 q 575 969 579 974 q 558 965 571 965 l 441 965 q 420 960 423 965 q 414 942 417 956 "},"V":{"ha":1174,"x_min":97,"x_max":1278,"o":"m 418 9 l 242 938 q 233 960 239 954 q 206 965 227 965 l 122 965 q 101 971 106 965 q 97 992 97 977 l 97 1017 q 103 1039 97 1035 q 127 1042 110 1042 l 516 1042 q 538 1035 535 1042 q 542 1010 542 1029 l 542 990 q 536 969 542 973 q 513 965 531 965 l 413 965 q 390 960 394 965 q 390 937 387 955 l 502 256 q 513 183 510 205 q 522 161 515 161 q 552 188 532 161 q 595 253 572 215 l 1026 940 q 1032 961 1037 958 q 1002 965 1026 965 l 916 965 q 895 968 901 965 q 889 987 889 972 l 889 1023 q 894 1039 889 1037 q 913 1042 900 1042 l 1249 1042 q 1271 1038 1264 1042 q 1278 1019 1278 1035 l 1278 995 q 1274 971 1278 977 q 1252 965 1270 965 l 1173 965 q 1142 961 1149 965 q 1126 944 1135 958 l 532 3 q 515 -15 524 -10 q 484 -21 506 -21 l 458 -21 q 428 -15 435 -21 q 418 9 422 -10 "},"W":{"ha":1624,"x_min":97,"x_max":1728,"o":"m 542 276 l 852 793 q 865 820 862 809 q 866 856 869 831 l 856 949 q 850 963 856 960 q 833 965 845 965 l 747 965 q 729 968 734 965 q 724 985 724 972 l 724 1011 q 729 1036 724 1031 q 754 1042 735 1042 l 1093 1042 q 1109 1037 1106 1042 q 1113 1019 1113 1033 l 1113 989 q 1107 969 1113 973 q 1085 965 1101 965 l 1018 965 q 995 961 999 965 q 994 938 992 956 l 1050 324 q 1053 252 1054 278 q 1053 215 1052 226 q 1064 204 1054 204 q 1083 223 1072 204 q 1107 269 1094 242 q 1133 321 1120 297 l 1467 940 q 1472 962 1476 958 q 1439 965 1467 965 l 1371 965 q 1351 970 1356 965 q 1347 990 1347 976 l 1347 1026 q 1349 1040 1347 1038 q 1363 1042 1351 1042 l 1700 1042 q 1720 1039 1713 1042 q 1728 1021 1728 1035 l 1728 990 q 1724 971 1728 977 q 1706 965 1720 965 l 1588 965 q 1567 961 1571 965 q 1558 947 1564 958 l 1057 7 q 1045 -8 1052 -3 q 1022 -14 1038 -14 l 983 -14 q 959 -10 965 -14 q 951 10 952 -7 l 895 564 q 892 649 890 615 q 877 683 894 683 q 848 649 864 683 q 804 569 831 615 l 468 7 q 453 -9 461 -5 q 425 -14 445 -14 l 388 -14 q 369 -10 372 -14 q 365 7 367 -6 l 236 942 q 231 958 235 953 q 220 964 227 963 q 200 965 213 965 l 125 965 q 102 971 106 965 q 97 996 97 976 l 97 1018 q 100 1037 97 1032 q 117 1042 103 1042 l 504 1042 q 523 1038 518 1042 q 528 1019 528 1034 l 528 997 q 524 972 528 978 q 503 965 521 965 l 399 965 q 376 960 379 965 q 374 939 372 955 l 458 282 q 463 210 464 239 q 479 182 463 182 q 505 208 492 182 q 542 276 517 234 "},"Ŵ":{"ha":1624,"x_min":97,"x_max":1728,"o":"m 810 1174 l 799 1190 q 794 1201 793 1198 q 804 1211 795 1203 l 963 1342 q 979 1351 972 1349 q 1001 1353 986 1353 l 1060 1353 q 1080 1351 1074 1353 q 1090 1342 1085 1348 l 1195 1208 q 1199 1201 1199 1203 q 1192 1194 1199 1199 l 1172 1177 q 1160 1170 1163 1169 q 1150 1176 1158 1170 l 1043 1271 q 1008 1272 1028 1284 l 834 1169 q 820 1165 825 1164 q 810 1174 815 1167 m 542 276 l 852 793 q 865 820 862 809 q 866 856 869 831 l 856 949 q 850 963 856 960 q 833 965 845 965 l 747 965 q 729 968 734 965 q 724 985 724 972 l 724 1011 q 729 1036 724 1031 q 754 1042 735 1042 l 1093 1042 q 1109 1037 1106 1042 q 1113 1019 1113 1033 l 1113 989 q 1107 969 1113 973 q 1085 965 1101 965 l 1018 965 q 995 961 999 965 q 994 938 992 956 l 1050 324 q 1053 252 1054 278 q 1053 215 1052 226 q 1064 204 1054 204 q 1083 223 1072 204 q 1107 269 1094 242 q 1133 321 1120 297 l 1467 940 q 1472 962 1476 958 q 1439 965 1467 965 l 1371 965 q 1351 970 1356 965 q 1347 990 1347 976 l 1347 1026 q 1349 1040 1347 1038 q 1363 1042 1351 1042 l 1700 1042 q 1720 1039 1713 1042 q 1728 1021 1728 1035 l 1728 990 q 1724 971 1728 977 q 1706 965 1720 965 l 1588 965 q 1567 961 1571 965 q 1558 947 1564 958 l 1057 7 q 1045 -8 1052 -3 q 1022 -14 1038 -14 l 983 -14 q 959 -10 965 -14 q 951 10 952 -7 l 895 564 q 892 649 890 615 q 877 683 894 683 q 848 649 864 683 q 804 569 831 615 l 468 7 q 453 -9 461 -5 q 425 -14 445 -14 l 388 -14 q 369 -10 372 -14 q 365 7 367 -6 l 236 942 q 231 958 235 953 q 220 964 227 963 q 200 965 213 965 l 125 965 q 102 971 106 965 q 97 996 97 976 l 97 1018 q 100 1037 97 1032 q 117 1042 103 1042 l 504 1042 q 523 1038 518 1042 q 528 1019 528 1034 l 528 997 q 524 972 528 978 q 503 965 521 965 l 399 965 q 376 960 379 965 q 374 939 372 955 l 458 282 q 463 210 464 239 q 479 182 463 182 q 505 208 492 182 q 542 276 517 234 "},"Ẁ":{"ha":1624,"x_min":97,"x_max":1728,"o":"m 838 1333 q 865 1356 848 1349 q 899 1360 881 1363 q 930 1344 917 1358 l 1065 1213 q 1065 1188 1077 1201 l 1042 1163 q 1032 1156 1036 1157 q 1021 1159 1028 1154 l 857 1255 q 831 1286 840 1265 q 838 1333 823 1308 m 542 276 l 852 793 q 865 820 862 809 q 866 856 869 831 l 856 949 q 850 963 856 960 q 833 965 845 965 l 747 965 q 729 968 734 965 q 724 985 724 972 l 724 1011 q 729 1036 724 1031 q 754 1042 735 1042 l 1093 1042 q 1109 1037 1106 1042 q 1113 1019 1113 1033 l 1113 989 q 1107 969 1113 973 q 1085 965 1101 965 l 1018 965 q 995 961 999 965 q 994 938 992 956 l 1050 324 q 1053 252 1054 278 q 1053 215 1052 226 q 1064 204 1054 204 q 1083 223 1072 204 q 1107 269 1094 242 q 1133 321 1120 297 l 1467 940 q 1472 962 1476 958 q 1439 965 1467 965 l 1371 965 q 1351 970 1356 965 q 1347 990 1347 976 l 1347 1026 q 1349 1040 1347 1038 q 1363 1042 1351 1042 l 1700 1042 q 1720 1039 1713 1042 q 1728 1021 1728 1035 l 1728 990 q 1724 971 1728 977 q 1706 965 1720 965 l 1588 965 q 1567 961 1571 965 q 1558 947 1564 958 l 1057 7 q 1045 -8 1052 -3 q 1022 -14 1038 -14 l 983 -14 q 959 -10 965 -14 q 951 10 952 -7 l 895 564 q 892 649 890 615 q 877 683 894 683 q 848 649 864 683 q 804 569 831 615 l 468 7 q 453 -9 461 -5 q 425 -14 445 -14 l 388 -14 q 369 -10 372 -14 q 365 7 367 -6 l 236 942 q 231 958 235 953 q 220 964 227 963 q 200 965 213 965 l 125 965 q 102 971 106 965 q 97 996 97 976 l 97 1018 q 100 1037 97 1032 q 117 1042 103 1042 l 504 1042 q 523 1038 518 1042 q 528 1019 528 1034 l 528 997 q 524 972 528 978 q 503 965 521 965 l 399 965 q 376 960 379 965 q 374 939 372 955 l 458 282 q 463 210 464 239 q 479 182 463 182 q 505 208 492 182 q 542 276 517 234 "},"Ẃ":{"ha":1624,"x_min":97,"x_max":1728,"o":"m 1163 1333 q 1170 1286 1178 1308 q 1144 1255 1163 1265 l 986 1163 q 972 1157 977 1157 q 959 1165 967 1156 l 935 1190 q 935 1212 924 1201 l 1072 1344 q 1102 1360 1085 1358 q 1137 1356 1120 1363 q 1163 1333 1154 1349 m 542 276 l 852 793 q 865 820 862 809 q 866 856 869 831 l 856 949 q 850 963 856 960 q 833 965 845 965 l 747 965 q 729 968 734 965 q 724 985 724 972 l 724 1011 q 729 1036 724 1031 q 754 1042 735 1042 l 1093 1042 q 1109 1037 1106 1042 q 1113 1019 1113 1033 l 1113 989 q 1107 969 1113 973 q 1085 965 1101 965 l 1018 965 q 995 961 999 965 q 994 938 992 956 l 1050 324 q 1053 252 1054 278 q 1053 215 1052 226 q 1064 204 1054 204 q 1083 223 1072 204 q 1107 269 1094 242 q 1133 321 1120 297 l 1467 940 q 1472 962 1476 958 q 1439 965 1467 965 l 1371 965 q 1351 970 1356 965 q 1347 990 1347 976 l 1347 1026 q 1349 1040 1347 1038 q 1363 1042 1351 1042 l 1700 1042 q 1720 1039 1713 1042 q 1728 1021 1728 1035 l 1728 990 q 1724 971 1728 977 q 1706 965 1720 965 l 1588 965 q 1567 961 1571 965 q 1558 947 1564 958 l 1057 7 q 1045 -8 1052 -3 q 1022 -14 1038 -14 l 983 -14 q 959 -10 965 -14 q 951 10 952 -7 l 895 564 q 892 649 890 615 q 877 683 894 683 q 848 649 864 683 q 804 569 831 615 l 468 7 q 453 -9 461 -5 q 425 -14 445 -14 l 388 -14 q 369 -10 372 -14 q 365 7 367 -6 l 236 942 q 231 958 235 953 q 220 964 227 963 q 200 965 213 965 l 125 965 q 102 971 106 965 q 97 996 97 976 l 97 1018 q 100 1037 97 1032 q 117 1042 103 1042 l 504 1042 q 523 1038 518 1042 q 528 1019 528 1034 l 528 997 q 524 972 528 978 q 503 965 521 965 l 399 965 q 376 960 379 965 q 374 939 372 955 l 458 282 q 463 210 464 239 q 479 182 463 182 q 505 208 492 182 q 542 276 517 234 "},"Ẅ":{"ha":1624,"x_min":97,"x_max":1728,"o":"m 1115 1174 q 1067 1193 1087 1174 q 1048 1240 1048 1213 q 1067 1288 1048 1268 q 1115 1308 1087 1308 q 1162 1288 1142 1308 q 1181 1240 1181 1268 q 1162 1193 1181 1213 q 1115 1174 1142 1174 m 892 1174 q 845 1193 865 1174 q 826 1240 826 1213 q 845 1288 826 1268 q 892 1308 865 1308 q 940 1288 920 1308 q 959 1240 959 1268 q 940 1193 959 1213 q 892 1174 920 1174 m 542 276 l 852 793 q 865 820 862 809 q 866 856 869 831 l 856 949 q 850 963 856 960 q 833 965 845 965 l 747 965 q 729 968 734 965 q 724 985 724 972 l 724 1011 q 729 1036 724 1031 q 754 1042 735 1042 l 1093 1042 q 1109 1037 1106 1042 q 1113 1019 1113 1033 l 1113 989 q 1107 969 1113 973 q 1085 965 1101 965 l 1018 965 q 995 961 999 965 q 994 938 992 956 l 1050 324 q 1053 252 1054 278 q 1053 215 1052 226 q 1064 204 1054 204 q 1083 223 1072 204 q 1107 269 1094 242 q 1133 321 1120 297 l 1467 940 q 1472 962 1476 958 q 1439 965 1467 965 l 1371 965 q 1351 970 1356 965 q 1347 990 1347 976 l 1347 1026 q 1349 1040 1347 1038 q 1363 1042 1351 1042 l 1700 1042 q 1720 1039 1713 1042 q 1728 1021 1728 1035 l 1728 990 q 1724 971 1728 977 q 1706 965 1720 965 l 1588 965 q 1567 961 1571 965 q 1558 947 1564 958 l 1057 7 q 1045 -8 1052 -3 q 1022 -14 1038 -14 l 983 -14 q 959 -10 965 -14 q 951 10 952 -7 l 895 564 q 892 649 890 615 q 877 683 894 683 q 848 649 864 683 q 804 569 831 615 l 468 7 q 453 -9 461 -5 q 425 -14 445 -14 l 388 -14 q 369 -10 372 -14 q 365 7 367 -6 l 236 942 q 231 958 235 953 q 220 964 227 963 q 200 965 213 965 l 125 965 q 102 971 106 965 q 97 996 97 976 l 97 1018 q 100 1037 97 1032 q 117 1042 103 1042 l 504 1042 q 523 1038 518 1042 q 528 1019 528 1034 l 528 997 q 524 972 528 978 q 503 965 521 965 l 399 965 q 376 960 379 965 q 374 939 372 955 l 458 282 q 463 210 464 239 q 479 182 463 182 q 505 208 492 182 q 542 276 517 234 "},"Ẇ":{"ha":1624,"x_min":97,"x_max":1728,"o":"m 1013 1201 q 954 1226 978 1201 q 929 1285 929 1251 q 954 1344 929 1319 q 1013 1368 978 1368 q 1072 1344 1047 1368 q 1096 1285 1096 1319 q 1072 1226 1096 1251 q 1013 1201 1047 1201 m 542 276 l 852 793 q 865 820 862 809 q 866 856 869 831 l 856 949 q 850 963 856 960 q 833 965 845 965 l 747 965 q 729 968 734 965 q 724 985 724 972 l 724 1011 q 729 1036 724 1031 q 754 1042 735 1042 l 1093 1042 q 1109 1037 1106 1042 q 1113 1019 1113 1033 l 1113 989 q 1107 969 1113 973 q 1085 965 1101 965 l 1018 965 q 995 961 999 965 q 994 938 992 956 l 1050 324 q 1053 252 1054 278 q 1053 215 1052 226 q 1064 204 1054 204 q 1083 223 1072 204 q 1107 269 1094 242 q 1133 321 1120 297 l 1467 940 q 1472 962 1476 958 q 1439 965 1467 965 l 1371 965 q 1351 970 1356 965 q 1347 990 1347 976 l 1347 1026 q 1349 1040 1347 1038 q 1363 1042 1351 1042 l 1700 1042 q 1720 1039 1713 1042 q 1728 1021 1728 1035 l 1728 990 q 1724 971 1728 977 q 1706 965 1720 965 l 1588 965 q 1567 961 1571 965 q 1558 947 1564 958 l 1057 7 q 1045 -8 1052 -3 q 1022 -14 1038 -14 l 983 -14 q 959 -10 965 -14 q 951 10 952 -7 l 895 564 q 892 649 890 615 q 877 683 894 683 q 848 649 864 683 q 804 569 831 615 l 468 7 q 453 -9 461 -5 q 425 -14 445 -14 l 388 -14 q 369 -10 372 -14 q 365 7 367 -6 l 236 942 q 231 958 235 953 q 220 964 227 963 q 200 965 213 965 l 125 965 q 102 971 106 965 q 97 996 97 976 l 97 1018 q 100 1037 97 1032 q 117 1042 103 1042 l 504 1042 q 523 1038 518 1042 q 528 1019 528 1034 l 528 997 q 524 972 528 978 q 503 965 521 965 l 399 965 q 376 960 379 965 q 374 939 372 955 l 458 282 q 463 210 464 239 q 479 182 463 182 q 505 208 492 182 q 542 276 517 234 "},"Ẉ":{"ha":1624,"x_min":97,"x_max":1728,"o":"m 672 -285 q 613 -260 638 -285 q 588 -201 588 -235 q 613 -142 588 -166 q 672 -117 638 -117 q 731 -142 706 -117 q 755 -201 755 -166 q 731 -260 755 -235 q 672 -285 706 -285 m 542 276 l 852 793 q 865 820 862 809 q 866 856 869 831 l 856 949 q 850 963 856 960 q 833 965 845 965 l 747 965 q 729 968 734 965 q 724 985 724 972 l 724 1011 q 729 1036 724 1031 q 754 1042 735 1042 l 1093 1042 q 1109 1037 1106 1042 q 1113 1019 1113 1033 l 1113 989 q 1107 969 1113 973 q 1085 965 1101 965 l 1018 965 q 995 961 999 965 q 994 938 992 956 l 1050 324 q 1053 252 1054 278 q 1053 215 1052 226 q 1064 204 1054 204 q 1083 223 1072 204 q 1107 269 1094 242 q 1133 321 1120 297 l 1467 940 q 1472 962 1476 958 q 1439 965 1467 965 l 1371 965 q 1351 970 1356 965 q 1347 990 1347 976 l 1347 1026 q 1349 1040 1347 1038 q 1363 1042 1351 1042 l 1700 1042 q 1720 1039 1713 1042 q 1728 1021 1728 1035 l 1728 990 q 1724 971 1728 977 q 1706 965 1720 965 l 1588 965 q 1567 961 1571 965 q 1558 947 1564 958 l 1057 7 q 1045 -8 1052 -3 q 1022 -14 1038 -14 l 983 -14 q 959 -10 965 -14 q 951 10 952 -7 l 895 564 q 892 649 890 615 q 877 683 894 683 q 848 649 864 683 q 804 569 831 615 l 468 7 q 453 -9 461 -5 q 425 -14 445 -14 l 388 -14 q 369 -10 372 -14 q 365 7 367 -6 l 236 942 q 231 958 235 953 q 220 964 227 963 q 200 965 213 965 l 125 965 q 102 971 106 965 q 97 996 97 976 l 97 1018 q 100 1037 97 1032 q 117 1042 103 1042 l 504 1042 q 523 1038 518 1042 q 528 1019 528 1034 l 528 997 q 524 972 528 978 q 503 965 521 965 l 399 965 q 376 960 379 965 q 374 939 372 955 l 458 282 q 463 210 464 239 q 479 182 463 182 q 505 208 492 182 q 542 276 517 234 "},"X":{"ha":1208,"x_min":-83,"x_max":1271,"o":"m 288 965 l 215 965 q 192 970 197 965 q 188 992 188 975 l 188 1015 q 192 1037 188 1032 q 213 1042 197 1042 l 620 1042 q 640 1038 634 1042 q 646 1019 646 1035 l 646 992 q 641 970 646 975 q 620 965 636 965 l 523 965 q 491 958 497 965 q 492 938 484 951 l 633 676 q 648 648 643 658 q 664 639 652 639 q 684 651 674 639 q 715 681 695 663 l 977 940 q 992 954 986 949 q 992 963 997 960 q 965 965 988 965 l 883 965 q 859 970 865 965 q 854 992 854 974 l 854 1018 q 859 1038 854 1034 q 881 1042 865 1042 l 1247 1042 q 1267 1036 1264 1042 q 1271 1013 1271 1031 l 1271 986 q 1265 968 1271 971 q 1244 965 1260 965 l 1145 965 q 1105 959 1115 965 q 1081 940 1095 953 l 744 610 q 712 577 724 590 q 700 551 700 564 q 713 520 700 537 q 742 475 726 503 l 937 113 q 955 86 946 96 q 991 76 964 76 l 1074 76 q 1094 71 1090 76 q 1097 49 1097 65 l 1097 35 q 1091 6 1097 11 q 1063 0 1085 0 l 669 0 q 645 3 651 0 q 639 24 639 6 l 639 49 q 644 72 639 67 q 666 76 649 76 l 751 76 q 785 84 781 76 q 778 108 788 91 l 619 407 q 602 447 606 432 q 590 461 599 461 q 570 448 583 461 q 540 419 556 435 l 217 100 q 203 84 206 89 q 209 78 200 79 q 241 76 217 76 l 302 76 q 327 72 320 76 q 333 49 333 68 l 333 24 q 330 5 333 10 q 313 0 327 0 l -58 0 q -78 4 -74 0 q -83 24 -83 8 l -83 58 q -78 74 -83 71 q -60 76 -74 76 l 45 76 q 89 84 78 76 q 115 106 99 91 l 495 485 q 530 521 517 507 q 543 549 543 535 q 531 580 543 563 q 503 626 518 598 l 333 946 q 317 962 326 959 q 288 965 308 965 "},"Y":{"ha":1083,"x_min":97,"x_max":1188,"o":"m 214 28 l 214 53 q 219 72 214 68 q 238 76 224 76 l 358 76 q 388 88 385 76 q 395 119 390 99 l 457 388 q 465 434 464 417 q 453 475 465 451 l 231 947 q 222 962 226 959 q 200 965 218 965 l 126 965 q 103 969 110 965 q 97 992 97 974 l 97 1019 q 103 1039 97 1036 q 126 1042 110 1042 l 503 1042 q 523 1038 517 1042 q 528 1021 528 1035 l 528 997 q 523 971 528 977 q 499 965 519 965 l 411 965 q 387 960 390 965 q 392 939 385 955 l 549 597 q 561 556 558 578 q 574 533 564 533 q 594 552 582 533 q 620 588 606 570 l 917 936 q 924 959 931 953 q 886 965 917 965 l 801 965 q 775 970 779 965 q 771 998 771 976 l 771 1015 q 774 1036 771 1031 q 793 1042 778 1042 l 1164 1042 q 1182 1039 1177 1042 q 1188 1024 1188 1037 l 1188 993 q 1183 970 1188 976 q 1163 965 1179 965 l 1074 965 q 1045 961 1051 965 q 1029 944 1039 956 l 646 497 q 619 461 629 478 q 601 414 609 445 l 533 115 q 534 85 528 94 q 569 76 540 76 l 661 76 q 687 72 681 76 q 693 47 693 67 l 693 29 q 686 5 693 9 q 660 0 679 0 l 247 0 q 220 4 227 0 q 214 28 214 8 "},"Ý":{"ha":1083,"x_min":97,"x_max":1188,"o":"m 878 1333 q 886 1286 894 1308 q 860 1255 878 1265 l 701 1163 q 687 1157 692 1157 q 674 1165 682 1156 l 651 1190 q 651 1212 640 1201 l 787 1344 q 818 1360 800 1358 q 852 1356 835 1363 q 878 1333 869 1349 m 214 28 l 214 53 q 219 72 214 68 q 238 76 224 76 l 358 76 q 388 88 385 76 q 395 119 390 99 l 457 388 q 465 434 464 417 q 453 475 465 451 l 231 947 q 222 962 226 959 q 200 965 218 965 l 126 965 q 103 969 110 965 q 97 992 97 974 l 97 1019 q 103 1039 97 1036 q 126 1042 110 1042 l 503 1042 q 523 1038 517 1042 q 528 1021 528 1035 l 528 997 q 523 971 528 977 q 499 965 519 965 l 411 965 q 387 960 390 965 q 392 939 385 955 l 549 597 q 561 556 558 578 q 574 533 564 533 q 594 552 582 533 q 620 588 606 570 l 917 936 q 924 959 931 953 q 886 965 917 965 l 801 965 q 775 970 779 965 q 771 998 771 976 l 771 1015 q 774 1036 771 1031 q 793 1042 778 1042 l 1164 1042 q 1182 1039 1177 1042 q 1188 1024 1188 1037 l 1188 993 q 1183 970 1188 976 q 1163 965 1179 965 l 1074 965 q 1045 961 1051 965 q 1029 944 1039 956 l 646 497 q 619 461 629 478 q 601 414 609 445 l 533 115 q 534 85 528 94 q 569 76 540 76 l 661 76 q 687 72 681 76 q 693 47 693 67 l 693 29 q 686 5 693 9 q 660 0 679 0 l 247 0 q 220 4 227 0 q 214 28 214 8 "},"Ŷ":{"ha":1083,"x_min":97,"x_max":1188,"o":"m 525 1174 l 515 1190 q 509 1201 508 1198 q 519 1211 510 1203 l 678 1342 q 694 1351 687 1349 q 717 1353 701 1353 l 776 1353 q 795 1351 790 1353 q 806 1342 801 1348 l 910 1208 q 915 1201 915 1203 q 908 1194 915 1199 l 888 1177 q 876 1170 878 1169 q 865 1176 873 1170 l 758 1271 q 724 1272 743 1284 l 549 1169 q 535 1165 540 1164 q 525 1174 531 1167 m 214 28 l 214 53 q 219 72 214 68 q 238 76 224 76 l 358 76 q 388 88 385 76 q 395 119 390 99 l 457 388 q 465 434 464 417 q 453 475 465 451 l 231 947 q 222 962 226 959 q 200 965 218 965 l 126 965 q 103 969 110 965 q 97 992 97 974 l 97 1019 q 103 1039 97 1036 q 126 1042 110 1042 l 503 1042 q 523 1038 517 1042 q 528 1021 528 1035 l 528 997 q 523 971 528 977 q 499 965 519 965 l 411 965 q 387 960 390 965 q 392 939 385 955 l 549 597 q 561 556 558 578 q 574 533 564 533 q 594 552 582 533 q 620 588 606 570 l 917 936 q 924 959 931 953 q 886 965 917 965 l 801 965 q 775 970 779 965 q 771 998 771 976 l 771 1015 q 774 1036 771 1031 q 793 1042 778 1042 l 1164 1042 q 1182 1039 1177 1042 q 1188 1024 1188 1037 l 1188 993 q 1183 970 1188 976 q 1163 965 1179 965 l 1074 965 q 1045 961 1051 965 q 1029 944 1039 956 l 646 497 q 619 461 629 478 q 601 414 609 445 l 533 115 q 534 85 528 94 q 569 76 540 76 l 661 76 q 687 72 681 76 q 693 47 693 67 l 693 29 q 686 5 693 9 q 660 0 679 0 l 247 0 q 220 4 227 0 q 214 28 214 8 "},"Ÿ":{"ha":1083,"x_min":97,"x_max":1188,"o":"m 830 1174 q 783 1193 802 1174 q 763 1240 763 1213 q 783 1288 763 1268 q 830 1308 802 1308 q 877 1288 858 1308 q 897 1240 897 1268 q 877 1193 897 1213 q 830 1174 858 1174 m 608 1174 q 560 1193 580 1174 q 541 1240 541 1213 q 560 1288 541 1268 q 608 1308 580 1308 q 655 1288 635 1308 q 674 1240 674 1268 q 655 1193 674 1213 q 608 1174 635 1174 m 214 28 l 214 53 q 219 72 214 68 q 238 76 224 76 l 358 76 q 388 88 385 76 q 395 119 390 99 l 457 388 q 465 434 464 417 q 453 475 465 451 l 231 947 q 222 962 226 959 q 200 965 218 965 l 126 965 q 103 969 110 965 q 97 992 97 974 l 97 1019 q 103 1039 97 1036 q 126 1042 110 1042 l 503 1042 q 523 1038 517 1042 q 528 1021 528 1035 l 528 997 q 523 971 528 977 q 499 965 519 965 l 411 965 q 387 960 390 965 q 392 939 385 955 l 549 597 q 561 556 558 578 q 574 533 564 533 q 594 552 582 533 q 620 588 606 570 l 917 936 q 924 959 931 953 q 886 965 917 965 l 801 965 q 775 970 779 965 q 771 998 771 976 l 771 1015 q 774 1036 771 1031 q 793 1042 778 1042 l 1164 1042 q 1182 1039 1177 1042 q 1188 1024 1188 1037 l 1188 993 q 1183 970 1188 976 q 1163 965 1179 965 l 1074 965 q 1045 961 1051 965 q 1029 944 1039 956 l 646 497 q 619 461 629 478 q 601 414 609 445 l 533 115 q 534 85 528 94 q 569 76 540 76 l 661 76 q 687 72 681 76 q 693 47 693 67 l 693 29 q 686 5 693 9 q 660 0 679 0 l 247 0 q 220 4 227 0 q 214 28 214 8 "},"Ỳ":{"ha":1083,"x_min":97,"x_max":1188,"o":"m 553 1333 q 580 1356 563 1349 q 615 1360 597 1363 q 645 1344 633 1358 l 780 1213 q 781 1188 792 1201 l 757 1163 q 748 1156 751 1157 q 736 1159 744 1154 l 572 1255 q 547 1286 555 1265 q 553 1333 538 1308 m 214 28 l 214 53 q 219 72 214 68 q 238 76 224 76 l 358 76 q 388 88 385 76 q 395 119 390 99 l 457 388 q 465 434 464 417 q 453 475 465 451 l 231 947 q 222 962 226 959 q 200 965 218 965 l 126 965 q 103 969 110 965 q 97 992 97 974 l 97 1019 q 103 1039 97 1036 q 126 1042 110 1042 l 503 1042 q 523 1038 517 1042 q 528 1021 528 1035 l 528 997 q 523 971 528 977 q 499 965 519 965 l 411 965 q 387 960 390 965 q 392 939 385 955 l 549 597 q 561 556 558 578 q 574 533 564 533 q 594 552 582 533 q 620 588 606 570 l 917 936 q 924 959 931 953 q 886 965 917 965 l 801 965 q 775 970 779 965 q 771 998 771 976 l 771 1015 q 774 1036 771 1031 q 793 1042 778 1042 l 1164 1042 q 1182 1039 1177 1042 q 1188 1024 1188 1037 l 1188 993 q 1183 970 1188 976 q 1163 965 1179 965 l 1074 965 q 1045 961 1051 965 q 1029 944 1039 956 l 646 497 q 619 461 629 478 q 601 414 609 445 l 533 115 q 534 85 528 94 q 569 76 540 76 l 661 76 q 687 72 681 76 q 693 47 693 67 l 693 29 q 686 5 693 9 q 660 0 679 0 l 247 0 q 220 4 227 0 q 214 28 214 8 "},"Z":{"ha":1021,"x_min":-62,"x_max":1021,"o":"m -62 25 l -62 54 q -55 83 -62 76 q -37 101 -48 90 l 790 916 q 805 929 798 924 q 817 939 812 935 q 825 947 822 943 q 828 957 828 951 q 815 966 828 967 q 769 965 801 965 l 493 965 q 347 945 403 965 q 256 877 290 925 q 197 747 221 830 q 186 723 192 731 q 163 715 181 715 l 146 715 q 123 722 126 715 q 124 743 121 728 l 188 1012 q 198 1035 192 1029 q 226 1042 204 1042 l 985 1042 q 1011 1039 1002 1042 q 1021 1016 1021 1035 l 1021 995 q 1013 959 1021 967 q 992 938 1006 951 l 167 124 q 148 108 156 114 q 135 98 140 102 q 131 88 131 93 q 145 78 131 79 q 193 76 160 76 l 549 76 q 695 97 638 76 q 791 168 753 117 q 856 311 829 219 q 864 341 862 328 q 891 354 867 354 l 906 354 q 932 347 931 354 q 930 322 934 340 l 861 31 q 851 5 856 10 q 820 0 847 0 l -32 0 q -56 3 -50 0 q -62 25 -62 7 "},"Ź":{"ha":1021,"x_min":-62,"x_max":1021,"o":"m 823 1333 q 830 1286 838 1308 q 804 1255 822 1265 l 646 1163 q 632 1157 637 1157 q 619 1165 626 1156 l 595 1190 q 595 1212 584 1201 l 731 1344 q 762 1360 744 1358 q 797 1356 780 1363 q 823 1333 814 1349 m -62 25 l -62 54 q -55 83 -62 76 q -37 101 -48 90 l 790 916 q 805 929 798 924 q 817 939 812 935 q 825 947 822 943 q 828 957 828 951 q 815 966 828 967 q 769 965 801 965 l 493 965 q 347 945 403 965 q 256 877 290 925 q 197 747 221 830 q 186 723 192 731 q 163 715 181 715 l 146 715 q 123 722 126 715 q 124 743 121 728 l 188 1012 q 198 1035 192 1029 q 226 1042 204 1042 l 985 1042 q 1011 1039 1002 1042 q 1021 1016 1021 1035 l 1021 995 q 1013 959 1021 967 q 992 938 1006 951 l 167 124 q 148 108 156 114 q 135 98 140 102 q 131 88 131 93 q 145 78 131 79 q 193 76 160 76 l 549 76 q 695 97 638 76 q 791 168 753 117 q 856 311 829 219 q 864 341 862 328 q 891 354 867 354 l 906 354 q 932 347 931 354 q 930 322 934 340 l 861 31 q 851 5 856 10 q 820 0 847 0 l -32 0 q -56 3 -50 0 q -62 25 -62 7 "},"Ż":{"ha":1021,"x_min":-62,"x_max":1021,"o":"m 672 1201 q 614 1226 638 1201 q 589 1285 589 1251 q 614 1344 589 1319 q 672 1368 638 1368 q 731 1344 707 1368 q 756 1285 756 1319 q 731 1226 756 1251 q 672 1201 707 1201 m -62 25 l -62 54 q -55 83 -62 76 q -37 101 -48 90 l 790 916 q 805 929 798 924 q 817 939 812 935 q 825 947 822 943 q 828 957 828 951 q 815 966 828 967 q 769 965 801 965 l 493 965 q 347 945 403 965 q 256 877 290 925 q 197 747 221 830 q 186 723 192 731 q 163 715 181 715 l 146 715 q 123 722 126 715 q 124 743 121 728 l 188 1012 q 198 1035 192 1029 q 226 1042 204 1042 l 985 1042 q 1011 1039 1002 1042 q 1021 1016 1021 1035 l 1021 995 q 1013 959 1021 967 q 992 938 1006 951 l 167 124 q 148 108 156 114 q 135 98 140 102 q 131 88 131 93 q 145 78 131 79 q 193 76 160 76 l 549 76 q 695 97 638 76 q 791 168 753 117 q 856 311 829 219 q 864 341 862 328 q 891 354 867 354 l 906 354 q 932 347 931 354 q 930 322 934 340 l 861 31 q 851 5 856 10 q 820 0 847 0 l -32 0 q -56 3 -50 0 q -62 25 -62 7 "},"Ž":{"ha":1021,"x_min":-62,"x_max":1021,"o":"m 579 1195 l 490 1310 q 482 1325 483 1319 q 492 1338 481 1330 l 507 1347 q 525 1355 520 1356 q 540 1346 530 1353 l 633 1275 q 667 1261 651 1262 q 707 1275 683 1261 l 840 1356 q 857 1361 852 1363 q 869 1349 862 1359 l 874 1344 q 883 1329 882 1335 q 872 1314 883 1324 l 722 1190 q 707 1178 713 1183 q 684 1174 701 1174 l 628 1174 q 597 1180 607 1174 q 579 1195 587 1185 m -62 25 l -62 54 q -55 83 -62 76 q -37 101 -48 90 l 790 916 q 805 929 798 924 q 817 939 812 935 q 825 947 822 943 q 828 957 828 951 q 815 966 828 967 q 769 965 801 965 l 493 965 q 347 945 403 965 q 256 877 290 925 q 197 747 221 830 q 186 723 192 731 q 163 715 181 715 l 146 715 q 123 722 126 715 q 124 743 121 728 l 188 1012 q 198 1035 192 1029 q 226 1042 204 1042 l 985 1042 q 1011 1039 1002 1042 q 1021 1016 1021 1035 l 1021 995 q 1013 959 1021 967 q 992 938 1006 951 l 167 124 q 148 108 156 114 q 135 98 140 102 q 131 88 131 93 q 145 78 131 79 q 193 76 160 76 l 549 76 q 695 97 638 76 q 791 168 753 117 q 856 311 829 219 q 864 341 862 328 q 891 354 867 354 l 906 354 q 932 347 931 354 q 930 322 934 340 l 861 31 q 851 5 856 10 q 820 0 847 0 l -32 0 q -56 3 -50 0 q -62 25 -62 7 "},"Æ":{"ha":1763,"x_min":-69,"x_max":1816,"o":"m 976 965 q 952 961 962 965 q 932 948 942 957 q 908 922 922 938 l 474 415 q 457 391 462 401 q 485 382 452 382 l 942 382 l 949 306 l 411 306 q 384 304 394 306 q 369 292 375 302 l 207 100 q 202 83 199 90 q 226 76 205 76 l 296 76 q 314 73 308 76 q 319 57 319 69 l 319 26 q 315 5 319 9 q 292 0 310 0 l -50 0 q -68 4 -66 0 q -69 24 -69 8 l -69 50 q -67 71 -69 65 q -49 76 -64 76 l 47 76 q 74 83 67 76 q 90 100 81 90 l 883 1022 q 896 1036 891 1031 q 919 1042 901 1042 l 964 1042 l 976 965 m 1092 481 l 1008 108 q 1008 82 1003 87 q 1042 76 1014 76 l 1303 76 q 1453 98 1394 76 q 1550 175 1513 120 q 1615 328 1588 230 q 1623 348 1619 342 q 1646 354 1626 354 l 1667 354 q 1686 351 1683 354 q 1688 336 1690 348 l 1616 32 q 1604 6 1611 12 q 1571 0 1597 0 l 719 0 q 701 3 707 0 q 694 21 694 7 l 694 44 q 699 70 694 65 q 722 76 703 76 l 832 76 q 860 81 856 76 q 868 106 864 86 l 1057 934 q 1055 960 1062 956 q 1022 965 1049 965 l 922 965 q 899 972 903 965 q 894 997 894 978 l 894 1019 q 905 1038 894 1035 q 928 1042 915 1042 l 1772 1042 q 1809 1037 1803 1042 q 1810 1008 1816 1033 l 1750 744 q 1741 720 1745 725 q 1713 715 1737 715 l 1692 715 q 1676 725 1675 715 q 1680 746 1678 734 q 1686 877 1696 829 q 1638 945 1677 925 q 1521 965 1598 965 l 1243 965 q 1204 958 1209 965 q 1192 924 1199 950 l 1119 599 q 1118 572 1114 578 q 1150 567 1123 567 l 1213 567 q 1343 602 1293 567 q 1417 696 1392 638 q 1424 717 1422 708 q 1444 726 1427 726 l 1465 726 q 1486 721 1484 726 q 1484 700 1488 715 l 1406 369 q 1401 350 1403 356 q 1382 344 1399 344 l 1360 344 q 1342 356 1342 344 q 1343 379 1342 367 q 1320 474 1349 436 q 1213 511 1292 511 l 1132 511 q 1102 506 1106 511 q 1092 481 1097 501 "},"Ð":{"ha":1136,"x_min":-56,"x_max":1074,"o":"m 76 583 l 606 583 q 624 580 620 583 q 627 564 627 576 l 627 530 q 624 512 627 517 q 603 507 620 507 l 75 507 q 56 511 59 507 q 53 528 53 515 l 53 564 q 58 580 53 576 q 76 583 63 583 m -56 22 l -56 54 q -49 74 -56 71 q -26 76 -43 76 l 79 76 q 102 84 97 76 q 110 106 107 92 l 285 929 q 285 960 291 954 q 249 965 280 965 l 161 965 q 138 972 142 965 q 135 997 135 978 l 135 1013 q 139 1036 135 1031 q 160 1042 142 1042 l 657 1042 q 859 1006 778 1042 q 987 913 940 971 q 1054 785 1034 855 q 1074 646 1074 715 q 1020 385 1074 503 q 877 181 967 267 q 676 47 788 94 q 449 0 565 0 l -33 0 q -51 4 -47 0 q -56 22 -56 8 m 276 76 l 449 76 q 629 122 544 76 q 777 249 713 167 q 877 439 841 331 q 914 674 914 548 q 905 784 914 732 q 871 878 897 837 q 794 942 845 919 q 657 965 742 965 l 476 965 q 438 959 447 965 q 424 929 430 953 l 249 106 q 249 82 244 88 q 276 76 253 76 "},"Ø":{"ha":1153,"x_min":63,"x_max":1090,"o":"m 674 1056 q 901 1004 808 1056 q 1042 856 994 952 q 1090 625 1090 759 q 1043 389 1090 503 q 911 184 995 275 q 716 40 827 93 q 479 -14 606 -14 l 479 56 q 629 91 560 56 q 754 185 699 126 q 849 317 810 244 q 910 468 889 390 q 931 618 931 547 q 908 807 931 724 q 830 938 885 890 q 674 986 774 986 l 674 1056 m 479 -14 q 252 38 345 -14 q 111 186 159 90 q 63 417 63 283 q 110 652 63 538 q 242 858 158 767 q 436 1002 326 949 q 674 1056 547 1056 l 674 986 q 524 951 593 986 q 399 857 454 916 q 303 725 343 798 q 243 573 264 651 q 222 424 222 495 q 245 235 222 318 q 323 103 267 151 q 479 56 379 56 l 479 -14 m 949 1153 l 980 1153 q 1004 1148 1000 1153 q 1000 1132 1008 1144 l 245 -117 q 230 -134 237 -130 q 202 -139 224 -139 l 180 -139 q 149 -132 154 -139 q 152 -110 143 -124 l 910 1129 q 923 1148 917 1142 q 949 1153 928 1153 "},"Þ":{"ha":954,"x_min":-56,"x_max":906,"o":"m 381 728 l 294 326 q 299 315 292 317 q 324 313 306 313 l 475 313 q 606 343 542 313 q 711 434 669 374 q 753 583 753 494 q 742 655 753 617 q 699 717 732 692 q 600 743 667 743 l 407 743 q 389 741 394 743 q 381 728 383 739 m -56 24 l -56 57 q -51 73 -56 69 q -35 76 -46 76 l 65 76 q 96 81 90 76 q 108 105 103 85 l 285 936 q 284 961 290 956 q 253 965 279 965 l 169 965 q 154 969 156 965 q 151 987 151 974 l 151 1017 q 156 1037 151 1033 q 175 1042 160 1042 l 563 1042 q 582 1038 577 1042 q 588 1018 588 1034 l 588 988 q 582 969 588 972 q 561 965 577 965 l 454 965 q 430 959 433 965 q 424 935 427 952 l 402 832 q 401 821 400 823 q 414 819 403 819 l 600 819 q 792 786 726 819 q 882 700 858 753 q 906 583 906 646 q 874 430 906 495 q 785 321 842 364 q 648 257 727 278 q 475 236 569 236 l 296 236 q 277 233 281 236 q 272 223 274 231 l 248 104 q 249 80 243 84 q 281 76 256 76 l 372 76 q 399 70 394 76 q 403 42 403 64 l 403 26 q 399 6 403 11 q 381 0 396 0 l -29 0 q -50 4 -45 0 q -56 24 -56 8 "},"Đ":{"ha":1136,"x_min":-56,"x_max":1074,"o":"m -56 22 l -56 54 q -49 74 -56 71 q -26 76 -43 76 l 79 76 q 102 84 97 76 q 110 106 107 92 l 285 929 q 285 960 291 954 q 249 965 280 965 l 161 965 q 138 972 142 965 q 135 997 135 978 l 135 1013 q 139 1036 135 1031 q 160 1042 142 1042 l 657 1042 q 859 1006 778 1042 q 987 913 940 971 q 1054 785 1034 855 q 1074 646 1074 715 q 1020 385 1074 503 q 877 181 967 267 q 676 47 788 94 q 449 0 565 0 l -33 0 q -51 4 -47 0 q -56 22 -56 8 m 276 76 l 449 76 q 629 122 544 76 q 777 249 713 167 q 877 439 841 331 q 914 674 914 548 q 905 784 914 732 q 871 878 897 837 q 794 942 845 919 q 657 965 742 965 l 476 965 q 438 959 447 965 q 424 929 430 953 l 249 106 q 249 82 244 88 q 276 76 253 76 m 76 583 l 606 583 q 624 580 620 583 q 627 564 627 576 l 627 530 q 624 512 627 517 q 603 507 620 507 l 75 507 q 56 511 59 507 q 53 528 53 515 l 53 564 q 58 580 53 576 q 76 583 63 583 "},"Ħ":{"ha":1246,"x_min":-56,"x_max":1301,"o":"m 154 826 l 1190 826 q 1225 823 1218 826 q 1233 807 1233 819 l 1233 773 q 1225 755 1233 760 q 1186 750 1218 750 l 151 750 q 114 754 120 750 q 108 771 108 758 l 108 807 q 118 823 108 819 q 154 826 128 826 m -56 31 l -56 56 q -48 73 -56 70 q -28 76 -41 76 l 63 76 q 105 81 92 76 q 122 111 117 86 l 300 939 q 299 961 303 956 q 275 965 294 965 l 163 965 q 141 968 147 965 q 135 988 135 972 l 135 1017 q 138 1036 135 1031 q 154 1042 140 1042 l 583 1042 q 604 1036 601 1042 q 607 1013 607 1030 l 607 993 q 602 970 607 976 q 581 965 598 965 l 482 965 q 448 960 455 965 q 437 933 442 955 l 367 606 q 367 581 363 586 q 396 576 372 576 l 882 576 q 909 583 906 576 q 916 608 912 590 l 986 936 q 986 960 990 955 q 961 965 983 965 l 856 965 q 835 969 840 965 q 829 988 829 972 l 829 1019 q 834 1038 829 1033 q 853 1042 840 1042 l 1278 1042 q 1299 1039 1296 1042 q 1301 1018 1301 1036 l 1301 996 q 1296 970 1301 976 q 1271 965 1291 965 l 1169 965 q 1135 960 1141 965 q 1124 932 1130 956 l 948 108 q 948 82 943 88 q 979 76 952 76 l 1089 76 q 1108 71 1104 76 q 1111 50 1111 66 l 1111 22 q 1107 5 1111 9 q 1089 0 1103 0 l 669 0 q 645 4 652 0 q 639 26 639 8 l 639 51 q 646 73 639 69 q 669 76 653 76 l 771 76 q 800 81 795 76 q 808 104 804 85 l 886 467 q 887 494 891 488 q 856 500 883 500 l 375 500 q 344 491 347 500 q 336 460 341 482 l 259 103 q 259 82 256 87 q 283 76 263 76 l 390 76 q 413 70 410 76 q 417 44 417 64 l 417 26 q 413 5 417 10 q 393 0 409 0 l -26 0 q -51 6 -46 0 q -56 31 -56 12 "},"Ĳ":{"ha":1380,"x_min":-56,"x_max":1474,"o":"m -56 24 l -56 57 q -51 73 -56 69 q -35 76 -46 76 l 79 76 q 110 81 103 76 q 122 105 117 85 l 306 936 q 305 961 310 956 q 274 965 300 965 l 168 965 q 152 969 155 965 q 150 987 150 974 l 150 1017 q 154 1037 150 1033 q 174 1042 158 1042 l 583 1042 q 603 1038 598 1042 q 608 1018 608 1034 l 608 988 q 603 969 608 972 q 582 965 598 965 l 475 965 q 451 959 453 965 q 444 935 448 952 l 262 104 q 263 80 257 84 q 294 76 269 76 l 386 76 q 413 70 408 76 q 417 42 417 64 l 417 26 q 413 6 417 11 q 394 0 410 0 l -29 0 q -50 4 -45 0 q -56 24 -56 8 m 521 201 q 537 274 521 244 q 578 318 553 303 q 631 333 603 333 q 693 311 667 333 q 719 251 719 289 q 710 206 719 221 q 689 184 701 192 q 668 166 677 176 q 658 133 658 156 q 667 105 658 122 q 699 75 676 88 q 765 63 722 63 q 911 129 840 63 q 1015 333 983 195 l 1153 946 q 1152 963 1157 960 q 1129 965 1147 965 l 1010 965 q 986 968 992 965 q 981 989 981 972 l 981 1014 q 986 1037 981 1033 q 1010 1042 992 1042 l 1449 1042 q 1466 1039 1458 1042 q 1474 1025 1474 1036 l 1474 992 q 1469 970 1474 974 q 1446 965 1464 965 l 1318 965 q 1296 960 1299 965 q 1290 939 1293 954 l 1154 375 q 1072 176 1126 264 q 941 37 1018 88 q 765 -14 863 -14 q 617 20 670 -14 q 542 103 564 53 q 521 201 521 153 "},"Ŀ":{"ha":994,"x_min":-56,"x_max":923,"o":"m -56 22 l -56 58 q -48 73 -56 70 q -29 76 -40 76 l 82 76 q 114 81 108 76 q 124 107 119 85 l 303 942 q 303 962 307 958 q 282 965 300 965 l 165 965 q 147 971 150 965 q 144 992 144 976 l 144 1017 q 147 1036 144 1031 q 164 1042 150 1042 l 588 1042 q 606 1038 601 1042 q 611 1018 611 1033 l 611 989 q 608 970 611 975 q 590 965 604 965 l 467 965 q 447 960 449 965 q 441 942 444 956 l 265 115 q 266 84 260 92 q 303 76 273 76 l 536 76 q 686 98 627 76 q 783 175 745 120 q 848 326 821 229 q 859 348 853 342 q 886 354 865 354 l 906 354 q 920 350 917 354 q 921 338 923 347 l 849 29 q 838 6 844 12 q 810 0 832 0 l -28 0 q -50 3 -44 0 q -56 22 -56 6 m 608 646 q 619 688 608 669 q 649 718 631 706 q 691 729 668 729 q 733 718 714 729 q 763 688 752 706 q 774 646 774 669 q 763 604 774 623 q 733 574 752 585 q 691 563 714 563 q 649 574 668 563 q 619 604 631 585 q 608 646 608 623 "},"Ł":{"ha":1010,"x_min":-56,"x_max":923,"o":"m 100 511 l 540 791 q 557 803 551 798 q 563 786 563 808 l 563 752 q 561 728 563 734 q 547 716 558 723 l 104 434 q 89 424 94 428 q 83 440 83 419 l 83 483 q 87 502 83 499 q 100 511 91 506 m -56 22 l -56 58 q -48 73 -56 70 q -29 76 -40 76 l 82 76 q 114 81 108 76 q 124 107 119 85 l 303 942 q 303 962 307 958 q 282 965 300 965 l 165 965 q 147 971 150 965 q 144 992 144 976 l 144 1017 q 147 1036 144 1031 q 164 1042 150 1042 l 588 1042 q 606 1038 601 1042 q 611 1018 611 1033 l 611 989 q 608 970 611 975 q 590 965 604 965 l 467 965 q 447 960 449 965 q 441 942 444 956 l 265 115 q 266 84 260 92 q 303 76 273 76 l 536 76 q 686 98 627 76 q 783 175 745 120 q 848 326 821 229 q 859 348 853 342 q 886 354 865 354 l 906 354 q 920 350 917 354 q 921 338 923 347 l 849 29 q 838 6 844 12 q 810 0 832 0 l -28 0 q -50 3 -44 0 q -56 22 -56 6 "},"Ŋ":{"ha":1246,"x_min":-24,"x_max":1094,"o":"m 219 1042 l 435 1042 q 466 1037 461 1042 q 465 1012 470 1032 l 435 881 q 432 845 428 847 q 461 881 435 843 q 537 964 490 924 q 647 1029 584 1003 q 786 1054 710 1054 q 946 1034 882 1054 q 1045 971 1010 1013 q 1088 864 1081 928 q 1076 710 1094 799 l 928 15 q 863 -175 906 -90 q 751 -311 819 -260 q 585 -361 683 -361 q 486 -339 523 -361 q 433 -279 449 -316 q 417 -199 417 -242 q 429 -149 417 -172 q 463 -110 442 -125 q 513 -96 485 -96 q 570 -117 548 -96 q 593 -174 593 -139 q 583 -211 593 -198 q 563 -235 573 -225 q 553 -260 553 -246 q 562 -286 553 -273 q 599 -300 571 -300 q 667 -270 637 -300 q 720 -190 697 -240 q 761 -81 743 -140 q 793 38 779 -22 q 817 144 806 97 l 958 810 q 928 932 974 884 q 761 981 881 981 q 615 941 682 981 q 497 836 549 901 q 410 697 445 772 q 359 552 375 622 l 244 34 q 235 9 240 18 q 208 0 230 0 l -9 0 q -22 5 -20 0 q -24 21 -24 10 l -24 56 q -23 72 -24 67 q -10 76 -21 76 l 92 76 q 106 79 104 76 q 111 91 108 81 l 303 941 q 302 962 308 959 q 275 965 297 965 l 218 965 q 198 972 201 965 q 194 995 194 978 l 194 1015 q 199 1037 194 1032 q 219 1042 203 1042 "},"Œ":{"ha":1568,"x_min":44,"x_max":1622,"o":"m 840 1042 l 823 965 l 670 965 q 456 907 542 965 q 316 748 369 849 q 235 521 263 647 q 222 294 209 394 q 298 135 235 193 q 481 76 360 76 l 634 76 l 618 0 l 465 0 q 213 69 310 0 q 80 255 115 138 q 76 521 44 373 q 156 727 99 632 q 294 892 213 822 q 476 1002 376 963 q 687 1042 576 1042 l 840 1042 m 898 481 l 813 108 q 814 82 808 87 q 847 76 819 76 l 1108 76 q 1259 98 1200 76 q 1356 175 1318 120 q 1421 328 1394 230 q 1428 348 1425 342 q 1451 354 1431 354 l 1472 354 q 1492 351 1488 354 q 1493 336 1496 348 l 1422 32 q 1409 6 1417 12 q 1376 0 1402 0 l 525 0 q 506 3 513 0 q 500 21 500 7 l 500 44 q 504 70 500 65 q 528 76 508 76 l 638 76 q 666 81 662 76 q 674 106 669 86 l 863 934 q 861 960 867 956 q 828 965 854 965 l 728 965 q 704 972 708 965 q 700 997 700 978 l 700 1019 q 710 1038 700 1035 q 733 1042 720 1042 l 1578 1042 q 1615 1037 1608 1042 q 1616 1008 1622 1033 l 1556 744 q 1547 720 1551 725 q 1518 715 1542 715 l 1498 715 q 1482 725 1481 715 q 1485 746 1483 734 q 1492 877 1501 829 q 1443 945 1483 925 q 1326 965 1403 965 l 1049 965 q 1009 958 1015 965 q 998 924 1004 950 l 924 599 q 924 572 919 578 q 956 567 928 567 l 1018 567 q 1148 602 1099 567 q 1222 696 1198 638 q 1230 717 1227 708 q 1249 726 1233 726 l 1271 726 q 1291 721 1290 726 q 1290 700 1293 715 l 1212 369 q 1207 350 1209 356 q 1188 344 1205 344 l 1165 344 q 1148 356 1148 344 q 1149 379 1148 367 q 1126 474 1154 436 q 1018 511 1097 511 l 938 511 q 907 506 912 511 q 898 481 903 501 "},"Ŧ":{"ha":1027,"x_min":73,"x_max":1093,"o":"m 274 569 l 803 569 q 821 566 817 569 q 824 550 824 563 l 824 516 q 821 498 824 503 q 801 493 817 493 l 272 493 q 253 497 256 493 q 250 514 250 501 l 250 550 q 255 566 250 562 q 274 569 260 569 m 168 24 l 168 57 q 170 72 168 67 q 183 76 173 76 l 301 76 q 332 82 324 76 q 344 106 340 87 l 524 944 q 524 967 527 961 q 499 972 522 972 l 447 972 q 300 949 356 972 q 208 869 243 925 q 146 714 173 813 q 139 695 143 703 q 118 688 134 688 l 91 688 q 74 697 74 688 q 76 717 73 706 l 143 1015 q 152 1036 147 1031 q 178 1042 158 1042 l 1058 1042 q 1089 1036 1085 1042 q 1088 1010 1093 1031 l 1019 710 q 1013 691 1016 695 q 991 688 1010 688 l 973 688 q 949 692 951 688 q 949 715 946 697 q 964 870 969 815 q 915 949 958 926 q 781 972 872 972 l 701 972 q 674 967 681 972 q 663 946 667 963 l 483 106 q 483 82 479 88 q 510 76 487 76 l 624 76 q 644 71 640 76 q 647 49 647 65 l 647 28 q 641 4 647 8 q 616 0 634 0 l 187 0 q 171 5 174 0 q 168 24 168 10 "},"ẞ":{"ha":1314,"x_min":-56,"x_max":1301,"o":"m -56 0 l -56 76 l 71 76 l 174 613 q 249 796 194 715 q 390 936 303 878 q 591 1025 476 994 q 845 1056 706 1056 q 1000 1041 925 1056 q 1137 1004 1075 1026 q 1242 959 1199 982 q 1301 918 1285 935 l 938 578 q 1102 524 1042 563 q 1185 431 1161 485 q 1210 313 1210 376 q 1183 186 1210 245 q 1107 82 1156 126 q 990 11 1058 37 q 842 -14 923 -14 q 701 3 768 -14 q 583 49 635 20 q 502 115 531 78 q 472 188 472 151 q 483 239 472 217 q 515 274 494 261 q 563 286 535 286 q 623 263 600 286 q 645 201 645 239 q 631 157 645 176 q 595 130 617 138 q 695 83 631 98 q 815 67 760 67 q 950 101 894 67 q 1035 191 1006 135 q 1064 313 1064 247 q 1034 422 1064 378 q 943 488 1004 466 q 790 510 883 510 l 790 589 l 1118 901 q 999 956 1076 935 q 845 977 922 977 q 628 950 721 977 q 472 874 535 924 q 369 754 408 824 q 313 598 330 684 l 210 76 l 334 76 l 334 0 l -56 0 "},"Δ":{"ha":1194,"x_min":2,"x_max":956,"o":"m 772 76 q 789 84 788 76 q 789 101 790 92 l 663 872 q 657 894 660 893 q 642 876 653 894 l 153 110 q 143 85 142 93 q 167 76 144 76 l 772 76 m 908 0 l 39 0 q 8 7 13 0 q 11 28 2 13 l 674 1056 q 681 1061 678 1060 q 690 1063 683 1063 l 746 1063 q 758 1061 754 1063 q 763 1054 762 1060 l 952 31 q 948 7 956 14 q 908 0 940 0 "},"Ω":{"ha":1078,"x_min":19,"x_max":1033,"o":"m 803 208 l 882 208 l 838 0 l 533 0 l 592 282 q 752 403 688 319 q 846 625 817 488 q 831 885 881 788 q 636 981 781 981 q 401 885 492 981 q 276 625 310 788 q 274 400 247 488 q 382 276 302 313 l 324 0 l 19 0 l 63 208 l 142 208 q 140 155 135 176 q 164 123 144 133 q 219 113 183 113 l 272 113 l 297 234 q 212 294 251 257 q 146 381 173 331 q 110 492 119 431 q 117 625 101 553 q 220 852 144 756 q 407 1002 296 949 q 652 1056 518 1056 q 875 1002 787 1056 q 998 852 964 949 q 1005 625 1033 756 q 955 493 990 553 q 872 383 920 432 q 769 298 824 334 q 660 240 715 262 l 633 113 l 686 113 q 745 123 722 113 q 783 155 769 133 q 803 208 797 176 "},"a":{"ha":883,"x_min":28,"x_max":840,"o":"m 567 444 q 556 553 567 503 q 516 633 546 603 q 431 664 487 664 q 341 628 387 664 q 255 532 294 592 q 191 399 215 472 q 167 250 167 325 q 203 110 167 163 q 306 58 239 58 q 399 95 353 58 q 484 192 446 133 q 544 318 522 251 q 567 444 567 385 m 837 214 q 732 50 797 115 q 594 -14 667 -14 q 521 12 546 -14 q 496 74 496 38 q 497 97 496 89 q 499 110 498 105 q 498 118 501 118 q 489 110 494 118 q 388 21 444 56 q 267 -14 331 -14 q 150 11 205 -14 q 62 95 96 37 q 28 250 28 153 q 67 443 28 354 q 167 597 106 531 q 295 698 228 662 q 419 735 363 735 q 530 704 490 735 q 590 619 571 673 q 605 592 601 589 q 613 617 608 594 l 632 704 q 639 718 634 714 q 656 722 643 722 l 732 722 q 758 717 754 722 q 758 696 762 713 l 621 124 q 619 111 619 118 q 618 99 618 104 q 643 72 618 72 q 692 94 665 72 q 742 151 718 115 q 783 230 767 188 q 789 242 787 240 q 801 240 791 244 l 829 231 q 840 226 839 228 q 837 214 840 224 "},"à":{"ha":883,"x_min":28,"x_max":840,"o":"m 316 1014 q 342 1037 326 1030 q 377 1041 359 1044 q 408 1025 395 1038 l 542 894 q 543 869 555 881 l 519 844 q 510 836 514 838 q 499 840 506 835 l 335 935 q 309 967 317 946 q 316 1014 301 988 m 567 444 q 556 553 567 503 q 516 633 546 603 q 431 664 487 664 q 341 628 387 664 q 255 532 294 592 q 191 399 215 472 q 167 250 167 325 q 203 110 167 163 q 306 58 239 58 q 399 95 353 58 q 484 192 446 133 q 544 318 522 251 q 567 444 567 385 m 837 214 q 732 50 797 115 q 594 -14 667 -14 q 521 12 546 -14 q 496 74 496 38 q 497 97 496 89 q 499 110 498 105 q 498 118 501 118 q 489 110 494 118 q 388 21 444 56 q 267 -14 331 -14 q 150 11 205 -14 q 62 95 96 37 q 28 250 28 153 q 67 443 28 354 q 167 597 106 531 q 295 698 228 662 q 419 735 363 735 q 530 704 490 735 q 590 619 571 673 q 605 592 601 589 q 613 617 608 594 l 632 704 q 639 718 634 714 q 656 722 643 722 l 732 722 q 758 717 754 722 q 758 696 762 713 l 621 124 q 619 111 619 118 q 618 99 618 104 q 643 72 618 72 q 692 94 665 72 q 742 151 718 115 q 783 230 767 188 q 789 242 787 240 q 801 240 791 244 l 829 231 q 840 226 839 228 q 837 214 840 224 "},"á":{"ha":883,"x_min":28,"x_max":840,"o":"m 641 1014 q 648 967 656 988 q 622 935 640 946 l 464 843 q 450 837 455 838 q 437 845 444 837 l 413 870 q 413 892 402 882 l 549 1025 q 580 1041 563 1038 q 615 1037 598 1044 q 641 1014 632 1030 m 567 444 q 556 553 567 503 q 516 633 546 603 q 431 664 487 664 q 341 628 387 664 q 255 532 294 592 q 191 399 215 472 q 167 250 167 325 q 203 110 167 163 q 306 58 239 58 q 399 95 353 58 q 484 192 446 133 q 544 318 522 251 q 567 444 567 385 m 837 214 q 732 50 797 115 q 594 -14 667 -14 q 521 12 546 -14 q 496 74 496 38 q 497 97 496 89 q 499 110 498 105 q 498 118 501 118 q 489 110 494 118 q 388 21 444 56 q 267 -14 331 -14 q 150 11 205 -14 q 62 95 96 37 q 28 250 28 153 q 67 443 28 354 q 167 597 106 531 q 295 698 228 662 q 419 735 363 735 q 530 704 490 735 q 590 619 571 673 q 605 592 601 589 q 613 617 608 594 l 632 704 q 639 718 634 714 q 656 722 643 722 l 732 722 q 758 717 754 722 q 758 696 762 713 l 621 124 q 619 111 619 118 q 618 99 618 104 q 643 72 618 72 q 692 94 665 72 q 742 151 718 115 q 783 230 767 188 q 789 242 787 240 q 801 240 791 244 l 829 231 q 840 226 839 228 q 837 214 840 224 "},"â":{"ha":883,"x_min":28,"x_max":840,"o":"m 288 854 l 277 871 q 272 881 271 878 q 282 892 273 884 l 440 1022 q 457 1032 449 1030 q 479 1034 464 1034 l 538 1034 q 558 1031 552 1034 q 568 1022 563 1028 l 673 889 q 677 882 677 884 q 670 874 677 880 l 650 858 q 638 850 641 850 q 628 857 635 851 l 521 951 q 486 952 506 965 l 312 850 q 298 846 303 844 q 288 854 293 847 m 567 444 q 556 553 567 503 q 516 633 546 603 q 431 664 487 664 q 341 628 387 664 q 255 532 294 592 q 191 399 215 472 q 167 250 167 325 q 203 110 167 163 q 306 58 239 58 q 399 95 353 58 q 484 192 446 133 q 544 318 522 251 q 567 444 567 385 m 837 214 q 732 50 797 115 q 594 -14 667 -14 q 521 12 546 -14 q 496 74 496 38 q 497 97 496 89 q 499 110 498 105 q 498 118 501 118 q 489 110 494 118 q 388 21 444 56 q 267 -14 331 -14 q 150 11 205 -14 q 62 95 96 37 q 28 250 28 153 q 67 443 28 354 q 167 597 106 531 q 295 698 228 662 q 419 735 363 735 q 530 704 490 735 q 590 619 571 673 q 605 592 601 589 q 613 617 608 594 l 632 704 q 639 718 634 714 q 656 722 643 722 l 732 722 q 758 717 754 722 q 758 696 762 713 l 621 124 q 619 111 619 118 q 618 99 618 104 q 643 72 618 72 q 692 94 665 72 q 742 151 718 115 q 783 230 767 188 q 789 242 787 240 q 801 240 791 244 l 829 231 q 840 226 839 228 q 837 214 840 224 "},"ã":{"ha":883,"x_min":28,"x_max":840,"o":"m 584 847 q 503 864 530 847 q 458 902 476 881 q 427 938 445 919 q 372 957 409 957 q 322 935 344 957 q 290 871 301 913 q 274 861 287 861 l 245 861 q 233 866 233 861 q 235 882 233 872 q 270 961 249 926 q 324 1017 291 997 q 408 1038 358 1038 q 489 1021 462 1038 q 532 983 517 1005 q 559 947 544 966 q 606 928 574 928 q 655 949 634 928 q 686 1008 675 969 q 692 1020 688 1017 q 705 1024 695 1024 l 735 1024 q 745 1020 744 1024 q 744 1008 747 1017 q 711 921 732 957 q 659 866 690 885 q 584 847 628 847 m 567 444 q 556 553 567 503 q 516 633 546 603 q 431 664 487 664 q 341 628 387 664 q 255 532 294 592 q 191 399 215 472 q 167 250 167 325 q 203 110 167 163 q 306 58 239 58 q 399 95 353 58 q 484 192 446 133 q 544 318 522 251 q 567 444 567 385 m 837 214 q 732 50 797 115 q 594 -14 667 -14 q 521 12 546 -14 q 496 74 496 38 q 497 97 496 89 q 499 110 498 105 q 498 118 501 118 q 489 110 494 118 q 388 21 444 56 q 267 -14 331 -14 q 150 11 205 -14 q 62 95 96 37 q 28 250 28 153 q 67 443 28 354 q 167 597 106 531 q 295 698 228 662 q 419 735 363 735 q 530 704 490 735 q 590 619 571 673 q 605 592 601 589 q 613 617 608 594 l 632 704 q 639 718 634 714 q 656 722 643 722 l 732 722 q 758 717 754 722 q 758 696 762 713 l 621 124 q 619 111 619 118 q 618 99 618 104 q 643 72 618 72 q 692 94 665 72 q 742 151 718 115 q 783 230 767 188 q 789 242 787 240 q 801 240 791 244 l 829 231 q 840 226 839 228 q 837 214 840 224 "},"ä":{"ha":883,"x_min":28,"x_max":840,"o":"m 592 854 q 545 874 565 854 q 526 921 526 893 q 545 968 526 949 q 592 988 565 988 q 640 968 620 988 q 659 921 659 949 q 640 874 659 893 q 592 854 620 854 m 370 854 q 323 874 342 854 q 303 921 303 893 q 323 968 303 949 q 370 988 342 988 q 417 968 398 988 q 437 921 437 949 q 417 874 437 893 q 370 854 398 854 m 567 444 q 556 553 567 503 q 516 633 546 603 q 431 664 487 664 q 341 628 387 664 q 255 532 294 592 q 191 399 215 472 q 167 250 167 325 q 203 110 167 163 q 306 58 239 58 q 399 95 353 58 q 484 192 446 133 q 544 318 522 251 q 567 444 567 385 m 837 214 q 732 50 797 115 q 594 -14 667 -14 q 521 12 546 -14 q 496 74 496 38 q 497 97 496 89 q 499 110 498 105 q 498 118 501 118 q 489 110 494 118 q 388 21 444 56 q 267 -14 331 -14 q 150 11 205 -14 q 62 95 96 37 q 28 250 28 153 q 67 443 28 354 q 167 597 106 531 q 295 698 228 662 q 419 735 363 735 q 530 704 490 735 q 590 619 571 673 q 605 592 601 589 q 613 617 608 594 l 632 704 q 639 718 634 714 q 656 722 643 722 l 732 722 q 758 717 754 722 q 758 696 762 713 l 621 124 q 619 111 619 118 q 618 99 618 104 q 643 72 618 72 q 692 94 665 72 q 742 151 718 115 q 783 230 767 188 q 789 242 787 240 q 801 240 791 244 l 829 231 q 840 226 839 228 q 837 214 840 224 "},"å":{"ha":883,"x_min":28,"x_max":840,"o":"m 477 899 q 532 918 508 899 q 563 972 556 938 q 555 1025 570 1004 q 508 1047 540 1047 q 453 1025 477 1047 q 422 972 429 1004 q 431 918 415 938 q 477 899 446 899 m 466 847 q 385 883 413 847 q 368 972 357 919 q 398 1035 376 1007 q 453 1081 421 1064 q 519 1097 485 1097 q 601 1061 573 1097 q 617 972 629 1025 q 588 908 610 937 q 533 864 565 880 q 466 847 501 847 m 567 444 q 556 553 567 503 q 516 633 546 603 q 431 664 487 664 q 341 628 387 664 q 255 532 294 592 q 191 399 215 472 q 167 250 167 325 q 203 110 167 163 q 306 58 239 58 q 399 95 353 58 q 484 192 446 133 q 544 318 522 251 q 567 444 567 385 m 837 214 q 732 50 797 115 q 594 -14 667 -14 q 521 12 546 -14 q 496 74 496 38 q 497 97 496 89 q 499 110 498 105 q 498 118 501 118 q 489 110 494 118 q 388 21 444 56 q 267 -14 331 -14 q 150 11 205 -14 q 62 95 96 37 q 28 250 28 153 q 67 443 28 354 q 167 597 106 531 q 295 698 228 662 q 419 735 363 735 q 530 704 490 735 q 590 619 571 673 q 605 592 601 589 q 613 617 608 594 l 632 704 q 639 718 634 714 q 656 722 643 722 l 732 722 q 758 717 754 722 q 758 696 762 713 l 621 124 q 619 111 619 118 q 618 99 618 104 q 643 72 618 72 q 692 94 665 72 q 742 151 718 115 q 783 230 767 188 q 789 242 787 240 q 801 240 791 244 l 829 231 q 840 226 839 228 q 837 214 840 224 "},"ā":{"ha":883,"x_min":28,"x_max":840,"o":"m 308 869 l 308 892 q 310 907 308 902 q 322 911 313 911 l 617 911 q 636 907 631 911 q 641 890 641 903 l 641 868 q 639 852 641 857 q 626 847 637 847 l 332 847 q 313 851 319 847 q 308 869 308 855 m 567 444 q 556 553 567 503 q 516 633 546 603 q 431 664 487 664 q 341 628 387 664 q 255 532 294 592 q 191 399 215 472 q 167 250 167 325 q 203 110 167 163 q 306 58 239 58 q 399 95 353 58 q 484 192 446 133 q 544 318 522 251 q 567 444 567 385 m 837 214 q 732 50 797 115 q 594 -14 667 -14 q 521 12 546 -14 q 496 74 496 38 q 497 97 496 89 q 499 110 498 105 q 498 118 501 118 q 489 110 494 118 q 388 21 444 56 q 267 -14 331 -14 q 150 11 205 -14 q 62 95 96 37 q 28 250 28 153 q 67 443 28 354 q 167 597 106 531 q 295 698 228 662 q 419 735 363 735 q 530 704 490 735 q 590 619 571 673 q 605 592 601 589 q 613 617 608 594 l 632 704 q 639 718 634 714 q 656 722 643 722 l 732 722 q 758 717 754 722 q 758 696 762 713 l 621 124 q 619 111 619 118 q 618 99 618 104 q 643 72 618 72 q 692 94 665 72 q 742 151 718 115 q 783 230 767 188 q 789 242 787 240 q 801 240 791 244 l 829 231 q 840 226 839 228 q 837 214 840 224 "},"ă":{"ha":883,"x_min":28,"x_max":840,"o":"m 480 847 q 381 868 413 847 q 341 926 348 889 q 343 1013 333 963 q 362 1026 346 1026 l 372 1026 q 382 1015 383 1026 q 402 946 376 969 q 478 924 428 924 q 563 944 526 924 q 614 1006 599 964 q 618 1021 617 1016 q 632 1026 619 1026 l 651 1026 q 663 1023 662 1026 q 661 1010 664 1020 q 600 892 643 937 q 480 847 558 847 m 567 444 q 556 553 567 503 q 516 633 546 603 q 431 664 487 664 q 341 628 387 664 q 255 532 294 592 q 191 399 215 472 q 167 250 167 325 q 203 110 167 163 q 306 58 239 58 q 399 95 353 58 q 484 192 446 133 q 544 318 522 251 q 567 444 567 385 m 837 214 q 732 50 797 115 q 594 -14 667 -14 q 521 12 546 -14 q 496 74 496 38 q 497 97 496 89 q 499 110 498 105 q 498 118 501 118 q 489 110 494 118 q 388 21 444 56 q 267 -14 331 -14 q 150 11 205 -14 q 62 95 96 37 q 28 250 28 153 q 67 443 28 354 q 167 597 106 531 q 295 698 228 662 q 419 735 363 735 q 530 704 490 735 q 590 619 571 673 q 605 592 601 589 q 613 617 608 594 l 632 704 q 639 718 634 714 q 656 722 643 722 l 732 722 q 758 717 754 722 q 758 696 762 713 l 621 124 q 619 111 619 118 q 618 99 618 104 q 643 72 618 72 q 692 94 665 72 q 742 151 718 115 q 783 230 767 188 q 789 242 787 240 q 801 240 791 244 l 829 231 q 840 226 839 228 q 837 214 840 224 "},"ą":{"ha":883,"x_min":28,"x_max":840,"o":"m 563 -277 q 492 -267 524 -277 q 443 -234 460 -258 q 435 -172 427 -211 q 465 -114 442 -142 q 520 -60 488 -86 q 588 -12 553 -35 q 656 30 624 11 q 678 40 669 38 q 690 37 688 42 q 688 24 694 31 q 672 6 682 16 q 631 -34 652 -12 q 594 -83 610 -57 q 572 -137 578 -108 q 577 -186 567 -163 q 623 -210 587 -210 q 669 -197 649 -210 q 706 -167 690 -184 q 726 -162 717 -153 l 735 -169 q 740 -178 740 -174 q 733 -189 739 -181 q 664 -252 704 -227 q 563 -277 624 -277 m 567 444 q 556 553 567 503 q 516 633 546 603 q 431 664 487 664 q 341 628 387 664 q 255 532 294 592 q 191 399 215 472 q 167 250 167 325 q 203 110 167 163 q 306 58 239 58 q 399 95 353 58 q 484 192 446 133 q 544 318 522 251 q 567 444 567 385 m 837 214 q 732 50 797 115 q 594 -14 667 -14 q 521 12 546 -14 q 496 74 496 38 q 497 97 496 89 q 499 110 498 105 q 498 118 501 118 q 489 110 494 118 q 388 21 444 56 q 267 -14 331 -14 q 150 11 205 -14 q 62 95 96 37 q 28 250 28 153 q 67 443 28 354 q 167 597 106 531 q 295 698 228 662 q 419 735 363 735 q 530 704 490 735 q 590 619 571 673 q 605 592 601 589 q 613 617 608 594 l 632 704 q 639 718 634 714 q 656 722 643 722 l 732 722 q 758 717 754 722 q 758 696 762 713 l 621 124 q 619 111 619 118 q 618 99 618 104 q 643 72 618 72 q 692 94 665 72 q 742 151 718 115 q 783 230 767 188 q 789 242 787 240 q 801 240 791 244 l 829 231 q 840 226 839 228 q 837 214 840 224 "},"b":{"ha":797,"x_min":31,"x_max":728,"o":"m 160 167 q 198 89 167 120 q 283 58 228 58 q 403 94 348 58 q 501 189 459 130 q 566 318 542 247 q 589 458 589 389 q 568 605 589 546 q 492 664 548 664 q 371 625 431 664 q 265 523 311 587 q 201 383 219 459 l 163 211 q 159 190 160 201 q 160 167 159 178 m 36 203 l 215 983 q 217 1004 219 1001 q 193 1007 215 1007 l 133 1007 q 116 1015 119 1007 q 113 1036 113 1023 l 113 1061 q 116 1078 113 1074 q 131 1083 119 1083 l 336 1083 q 357 1080 353 1083 q 358 1063 361 1076 l 258 626 q 256 597 251 600 q 280 617 260 594 q 388 704 329 673 q 510 735 447 735 q 665 669 603 735 q 728 458 728 604 q 691 274 728 360 q 592 123 655 188 q 449 22 529 58 q 281 -14 369 -14 q 165 6 211 -14 q 90 60 119 26 q 40 138 61 95 q 32 169 32 156 q 36 203 31 181 "},"c":{"ha":750,"x_min":28,"x_max":681,"o":"m 681 544 q 665 481 681 504 q 626 448 649 458 q 579 438 603 438 q 526 455 550 438 q 503 511 503 473 q 514 551 503 536 q 536 579 525 567 q 547 607 547 591 q 531 653 547 635 q 468 671 514 671 q 352 635 406 671 q 257 539 298 600 q 193 400 216 478 q 169 236 169 322 q 179 143 169 185 q 214 78 189 102 q 288 54 240 54 q 390 80 342 54 q 477 145 438 106 q 542 224 516 185 q 552 237 547 233 q 573 240 558 240 l 588 240 q 615 236 608 240 q 615 218 622 232 q 534 107 584 160 q 417 20 483 54 q 271 -14 351 -14 q 139 11 194 -14 q 56 91 85 36 q 28 236 28 146 q 65 431 28 340 q 164 590 101 522 q 306 698 227 659 q 468 736 384 736 q 592 712 546 736 q 660 644 639 688 q 681 544 681 601 "},"ç":{"ha":750,"x_min":28,"x_max":681,"o":"m 100 -333 l 103 -322 q 111 -307 106 -310 q 128 -303 117 -303 q 184 -293 156 -301 q 233 -271 213 -285 q 258 -233 253 -256 q 249 -190 264 -206 q 208 -168 235 -175 q 151 -159 181 -162 q 129 -152 131 -157 q 136 -139 127 -148 l 271 1 q 293 8 277 8 l 310 8 q 330 5 326 8 q 326 -6 334 2 l 247 -87 q 238 -101 236 -99 q 257 -104 239 -103 q 342 -133 313 -109 q 360 -215 372 -157 q 327 -279 351 -253 q 269 -321 303 -305 q 194 -344 235 -337 q 113 -353 154 -352 q 100 -333 95 -354 m 681 544 q 665 481 681 504 q 626 448 649 458 q 579 438 603 438 q 526 455 550 438 q 503 511 503 473 q 514 551 503 536 q 536 579 525 567 q 547 607 547 591 q 531 653 547 635 q 468 671 514 671 q 352 635 406 671 q 257 539 298 600 q 193 400 216 478 q 169 236 169 322 q 179 143 169 185 q 214 78 189 102 q 288 54 240 54 q 390 80 342 54 q 477 145 438 106 q 542 224 516 185 q 552 237 547 233 q 573 240 558 240 l 588 240 q 615 236 608 240 q 615 218 622 232 q 534 107 584 160 q 417 20 483 54 q 271 -14 351 -14 q 139 11 194 -14 q 56 91 85 36 q 28 236 28 146 q 65 431 28 340 q 164 590 101 522 q 306 698 227 659 q 468 736 384 736 q 592 712 546 736 q 660 644 639 688 q 681 544 681 601 "},"ć":{"ha":750,"x_min":28,"x_max":681,"o":"m 654 1014 q 661 967 669 988 q 635 935 653 946 l 477 843 q 463 837 468 838 q 450 845 458 837 l 426 870 q 426 892 415 882 l 563 1025 q 593 1041 576 1038 q 628 1037 611 1044 q 654 1014 645 1030 m 681 544 q 665 481 681 504 q 626 448 649 458 q 579 438 603 438 q 526 455 550 438 q 503 511 503 473 q 514 551 503 536 q 536 579 525 567 q 547 607 547 591 q 531 653 547 635 q 468 671 514 671 q 352 635 406 671 q 257 539 298 600 q 193 400 216 478 q 169 236 169 322 q 179 143 169 185 q 214 78 189 102 q 288 54 240 54 q 390 80 342 54 q 477 145 438 106 q 542 224 516 185 q 552 237 547 233 q 573 240 558 240 l 588 240 q 615 236 608 240 q 615 218 622 232 q 534 107 584 160 q 417 20 483 54 q 271 -14 351 -14 q 139 11 194 -14 q 56 91 85 36 q 28 236 28 146 q 65 431 28 340 q 164 590 101 522 q 306 698 227 659 q 468 736 384 736 q 592 712 546 736 q 660 644 639 688 q 681 544 681 601 "},"ĉ":{"ha":750,"x_min":28,"x_max":690,"o":"m 301 854 l 290 871 q 285 881 284 878 q 295 892 286 884 l 453 1022 q 470 1032 463 1030 q 492 1034 477 1034 l 551 1034 q 571 1031 565 1034 q 581 1022 576 1028 l 686 889 q 690 882 690 884 q 683 874 690 880 l 663 858 q 651 850 654 850 q 641 857 649 851 l 534 951 q 499 952 519 965 l 325 850 q 311 846 316 844 q 301 854 306 847 m 681 544 q 665 481 681 504 q 626 448 649 458 q 579 438 603 438 q 526 455 550 438 q 503 511 503 473 q 514 551 503 536 q 536 579 525 567 q 547 607 547 591 q 531 653 547 635 q 468 671 514 671 q 352 635 406 671 q 257 539 298 600 q 193 400 216 478 q 169 236 169 322 q 179 143 169 185 q 214 78 189 102 q 288 54 240 54 q 390 80 342 54 q 477 145 438 106 q 542 224 516 185 q 552 237 547 233 q 573 240 558 240 l 588 240 q 615 236 608 240 q 615 218 622 232 q 534 107 584 160 q 417 20 483 54 q 271 -14 351 -14 q 139 11 194 -14 q 56 91 85 36 q 28 236 28 146 q 65 431 28 340 q 164 590 101 522 q 306 698 227 659 q 468 736 384 736 q 592 712 546 736 q 660 644 639 688 q 681 544 681 601 "},"ċ":{"ha":750,"x_min":28,"x_max":681,"o":"m 503 881 q 445 906 469 881 q 420 965 420 931 q 445 1024 420 1000 q 503 1049 469 1049 q 563 1024 538 1049 q 587 965 587 1000 q 563 906 587 931 q 503 881 538 881 m 681 544 q 665 481 681 504 q 626 448 649 458 q 579 438 603 438 q 526 455 550 438 q 503 511 503 473 q 514 551 503 536 q 536 579 525 567 q 547 607 547 591 q 531 653 547 635 q 468 671 514 671 q 352 635 406 671 q 257 539 298 600 q 193 400 216 478 q 169 236 169 322 q 179 143 169 185 q 214 78 189 102 q 288 54 240 54 q 390 80 342 54 q 477 145 438 106 q 542 224 516 185 q 552 237 547 233 q 573 240 558 240 l 588 240 q 615 236 608 240 q 615 218 622 232 q 534 107 584 160 q 417 20 483 54 q 271 -14 351 -14 q 139 11 194 -14 q 56 91 85 36 q 28 236 28 146 q 65 431 28 340 q 164 590 101 522 q 306 698 227 659 q 468 736 384 736 q 592 712 546 736 q 660 644 639 688 q 681 544 681 601 "},"č":{"ha":750,"x_min":28,"x_max":715,"o":"m 410 876 l 321 991 q 313 1005 314 1000 q 324 1018 313 1010 l 338 1028 q 356 1035 351 1037 q 372 1026 361 1034 l 465 956 q 499 942 483 942 q 538 956 515 942 l 671 1036 q 688 1042 683 1044 q 700 1030 693 1040 l 706 1024 q 714 1010 713 1015 q 703 994 715 1004 l 553 871 q 538 859 544 863 q 515 854 532 854 l 460 854 q 428 860 438 854 q 410 876 418 866 m 681 544 q 665 481 681 504 q 626 448 649 458 q 579 438 603 438 q 526 455 550 438 q 503 511 503 473 q 514 551 503 536 q 536 579 525 567 q 547 607 547 591 q 531 653 547 635 q 468 671 514 671 q 352 635 406 671 q 257 539 298 600 q 193 400 216 478 q 169 236 169 322 q 179 143 169 185 q 214 78 189 102 q 288 54 240 54 q 390 80 342 54 q 477 145 438 106 q 542 224 516 185 q 552 237 547 233 q 573 240 558 240 l 588 240 q 615 236 608 240 q 615 218 622 232 q 534 107 584 160 q 417 20 483 54 q 271 -14 351 -14 q 139 11 194 -14 q 56 91 85 36 q 28 236 28 146 q 65 431 28 340 q 164 590 101 522 q 306 698 227 659 q 468 736 384 736 q 592 712 546 736 q 660 644 639 688 q 681 544 681 601 "},"d":{"ha":900,"x_min":28,"x_max":857,"o":"m 581 444 q 573 553 581 503 q 536 633 565 603 q 444 664 508 664 q 352 628 401 664 q 262 532 304 592 q 193 399 219 472 q 167 250 167 325 q 196 110 167 163 q 292 58 225 58 q 390 95 339 58 q 484 192 440 133 q 554 318 527 251 q 581 444 581 385 m 849 210 q 744 49 809 113 q 608 -14 680 -14 q 533 9 560 -14 q 506 74 506 32 q 510 101 506 90 q 516 118 514 112 q 518 141 523 140 q 499 124 514 142 q 384 25 448 64 q 253 -14 321 -14 q 140 11 191 -14 q 58 95 89 37 q 28 250 28 153 q 55 407 28 333 q 127 541 82 481 q 225 644 172 601 q 334 711 279 688 q 433 735 388 735 q 548 703 509 735 q 608 620 586 672 q 619 601 615 601 q 626 619 622 601 l 707 977 q 709 998 710 989 q 691 1007 709 1007 l 611 1007 q 597 1012 600 1007 q 594 1028 594 1017 l 594 1058 q 597 1078 594 1072 q 613 1083 600 1083 l 823 1083 q 851 1080 845 1083 q 853 1058 857 1076 l 635 124 q 633 111 633 118 q 632 99 632 104 q 657 72 632 72 q 732 120 692 72 q 798 233 773 167 q 803 242 801 240 q 812 242 805 244 l 842 231 q 852 224 850 228 q 849 210 853 221 "},"ď":{"ha":1025,"x_min":28,"x_max":1106,"o":"m 916 1001 q 943 1060 916 1036 q 1009 1083 969 1083 q 1058 1069 1036 1083 q 1093 1026 1081 1055 q 1106 953 1106 997 q 1086 867 1106 908 q 1033 793 1067 826 q 958 741 999 761 q 874 717 917 722 q 862 718 866 717 q 858 728 858 719 l 858 758 q 863 770 858 767 q 875 774 867 773 q 945 800 907 778 q 1011 854 984 821 q 1033 927 1038 888 q 1028 933 1033 935 q 1018 928 1024 931 q 1002 922 1011 924 q 983 919 994 919 q 932 943 949 919 q 916 1001 916 967 m 581 444 q 573 553 581 503 q 536 633 565 603 q 444 664 508 664 q 352 628 401 664 q 262 532 304 592 q 193 399 219 472 q 167 250 167 325 q 196 110 167 163 q 292 58 225 58 q 390 95 339 58 q 484 192 440 133 q 554 318 527 251 q 581 444 581 385 m 849 210 q 744 49 809 113 q 608 -14 680 -14 q 533 9 560 -14 q 506 74 506 32 q 510 101 506 90 q 516 118 514 112 q 518 141 523 140 q 499 124 514 142 q 384 25 448 64 q 253 -14 321 -14 q 140 11 191 -14 q 58 95 89 37 q 28 250 28 153 q 55 407 28 333 q 127 541 82 481 q 225 644 172 601 q 334 711 279 688 q 433 735 388 735 q 548 703 509 735 q 608 620 586 672 q 619 601 615 601 q 626 619 622 601 l 707 977 q 709 998 710 989 q 691 1007 709 1007 l 611 1007 q 597 1012 600 1007 q 594 1028 594 1017 l 594 1058 q 597 1078 594 1072 q 613 1083 600 1083 l 823 1083 q 851 1080 845 1083 q 853 1058 857 1076 l 635 124 q 633 111 633 118 q 632 99 632 104 q 657 72 632 72 q 732 120 692 72 q 798 233 773 167 q 803 242 801 240 q 812 242 805 244 l 842 231 q 852 224 850 228 q 849 210 853 221 "},"e":{"ha":736,"x_min":28,"x_max":694,"o":"m 28 236 q 66 431 28 340 q 169 590 105 522 q 311 698 233 659 q 468 736 390 736 q 640 697 585 736 q 694 572 694 658 q 662 461 694 507 q 576 384 630 415 q 458 336 523 354 q 329 309 394 318 q 210 297 265 300 q 178 282 186 295 q 169 236 169 269 q 200 107 169 159 q 301 54 230 54 q 402 81 356 54 q 483 148 447 108 q 544 228 519 188 q 555 239 549 237 q 576 240 561 240 l 597 240 q 620 236 617 240 q 615 217 624 233 q 537 107 585 160 q 426 20 490 54 q 285 -14 363 -14 q 150 11 208 -14 q 60 91 92 36 q 28 236 28 146 m 222 360 q 333 379 274 366 q 444 416 392 392 q 528 477 496 440 q 561 572 561 515 q 538 651 561 632 q 468 671 514 671 q 359 636 413 671 q 264 542 306 601 q 197 407 222 483 q 191 368 188 380 q 222 360 194 356 "},"è":{"ha":736,"x_min":28,"x_max":694,"o":"m 311 1014 q 338 1037 321 1030 q 372 1041 354 1044 q 403 1025 390 1038 l 538 894 q 538 869 550 881 l 515 844 q 505 836 509 838 q 494 840 501 835 l 330 935 q 304 967 313 946 q 311 1014 296 988 m 28 236 q 66 431 28 340 q 169 590 105 522 q 311 698 233 659 q 468 736 390 736 q 640 697 585 736 q 694 572 694 658 q 662 461 694 507 q 576 384 630 415 q 458 336 523 354 q 329 309 394 318 q 210 297 265 300 q 178 282 186 295 q 169 236 169 269 q 200 107 169 159 q 301 54 230 54 q 402 81 356 54 q 483 148 447 108 q 544 228 519 188 q 555 239 549 237 q 576 240 561 240 l 597 240 q 620 236 617 240 q 615 217 624 233 q 537 107 585 160 q 426 20 490 54 q 285 -14 363 -14 q 150 11 208 -14 q 60 91 92 36 q 28 236 28 146 m 222 360 q 333 379 274 366 q 444 416 392 392 q 528 477 496 440 q 561 572 561 515 q 538 651 561 632 q 468 671 514 671 q 359 636 413 671 q 264 542 306 601 q 197 407 222 483 q 191 368 188 380 q 222 360 194 356 "},"é":{"ha":736,"x_min":28,"x_max":694,"o":"m 636 1014 q 643 967 651 988 q 617 935 635 946 l 459 843 q 445 837 450 838 q 432 845 440 837 l 408 870 q 408 892 397 882 l 544 1025 q 575 1041 558 1038 q 610 1037 593 1044 q 636 1014 627 1030 m 28 236 q 66 431 28 340 q 169 590 105 522 q 311 698 233 659 q 468 736 390 736 q 640 697 585 736 q 694 572 694 658 q 662 461 694 507 q 576 384 630 415 q 458 336 523 354 q 329 309 394 318 q 210 297 265 300 q 178 282 186 295 q 169 236 169 269 q 200 107 169 159 q 301 54 230 54 q 402 81 356 54 q 483 148 447 108 q 544 228 519 188 q 555 239 549 237 q 576 240 561 240 l 597 240 q 620 236 617 240 q 615 217 624 233 q 537 107 585 160 q 426 20 490 54 q 285 -14 363 -14 q 150 11 208 -14 q 60 91 92 36 q 28 236 28 146 m 222 360 q 333 379 274 366 q 444 416 392 392 q 528 477 496 440 q 561 572 561 515 q 538 651 561 632 q 468 671 514 671 q 359 636 413 671 q 264 542 306 601 q 197 407 222 483 q 191 368 188 380 q 222 360 194 356 "},"ê":{"ha":736,"x_min":28,"x_max":694,"o":"m 283 854 l 272 871 q 267 881 266 878 q 277 892 268 884 l 435 1022 q 452 1032 444 1030 q 474 1034 459 1034 l 533 1034 q 553 1031 547 1034 q 563 1022 558 1028 l 668 889 q 672 882 672 884 q 665 874 672 880 l 645 858 q 633 850 636 850 q 623 857 631 851 l 516 951 q 481 952 501 965 l 307 850 q 293 846 298 844 q 283 854 288 847 m 28 236 q 66 431 28 340 q 169 590 105 522 q 311 698 233 659 q 468 736 390 736 q 640 697 585 736 q 694 572 694 658 q 662 461 694 507 q 576 384 630 415 q 458 336 523 354 q 329 309 394 318 q 210 297 265 300 q 178 282 186 295 q 169 236 169 269 q 200 107 169 159 q 301 54 230 54 q 402 81 356 54 q 483 148 447 108 q 544 228 519 188 q 555 239 549 237 q 576 240 561 240 l 597 240 q 620 236 617 240 q 615 217 624 233 q 537 107 585 160 q 426 20 490 54 q 285 -14 363 -14 q 150 11 208 -14 q 60 91 92 36 q 28 236 28 146 m 222 360 q 333 379 274 366 q 444 416 392 392 q 528 477 496 440 q 561 572 561 515 q 538 651 561 632 q 468 671 514 671 q 359 636 413 671 q 264 542 306 601 q 197 407 222 483 q 191 368 188 380 q 222 360 194 356 "},"ë":{"ha":736,"x_min":28,"x_max":694,"o":"m 588 854 q 540 874 560 854 q 521 921 521 893 q 540 968 521 949 q 588 988 560 988 q 635 968 615 988 q 654 921 654 949 q 635 874 654 893 q 588 854 615 854 m 365 854 q 318 874 338 854 q 299 921 299 893 q 318 968 299 949 q 365 988 338 988 q 413 968 393 988 q 432 921 432 949 q 413 874 432 893 q 365 854 393 854 m 28 236 q 66 431 28 340 q 169 590 105 522 q 311 698 233 659 q 468 736 390 736 q 640 697 585 736 q 694 572 694 658 q 662 461 694 507 q 576 384 630 415 q 458 336 523 354 q 329 309 394 318 q 210 297 265 300 q 178 282 186 295 q 169 236 169 269 q 200 107 169 159 q 301 54 230 54 q 402 81 356 54 q 483 148 447 108 q 544 228 519 188 q 555 239 549 237 q 576 240 561 240 l 597 240 q 620 236 617 240 q 615 217 624 233 q 537 107 585 160 q 426 20 490 54 q 285 -14 363 -14 q 150 11 208 -14 q 60 91 92 36 q 28 236 28 146 m 222 360 q 333 379 274 366 q 444 416 392 392 q 528 477 496 440 q 561 572 561 515 q 538 651 561 632 q 468 671 514 671 q 359 636 413 671 q 264 542 306 601 q 197 407 222 483 q 191 368 188 380 q 222 360 194 356 "},"ē":{"ha":736,"x_min":28,"x_max":694,"o":"m 303 869 l 303 892 q 305 907 303 902 q 317 911 308 911 l 613 911 q 631 907 626 911 q 636 890 636 903 l 636 868 q 634 852 636 857 q 621 847 632 847 l 327 847 q 308 851 314 847 q 303 869 303 855 m 28 236 q 66 431 28 340 q 169 590 105 522 q 311 698 233 659 q 468 736 390 736 q 640 697 585 736 q 694 572 694 658 q 662 461 694 507 q 576 384 630 415 q 458 336 523 354 q 329 309 394 318 q 210 297 265 300 q 178 282 186 295 q 169 236 169 269 q 200 107 169 159 q 301 54 230 54 q 402 81 356 54 q 483 148 447 108 q 544 228 519 188 q 555 239 549 237 q 576 240 561 240 l 597 240 q 620 236 617 240 q 615 217 624 233 q 537 107 585 160 q 426 20 490 54 q 285 -14 363 -14 q 150 11 208 -14 q 60 91 92 36 q 28 236 28 146 m 222 360 q 333 379 274 366 q 444 416 392 392 q 528 477 496 440 q 561 572 561 515 q 538 651 561 632 q 468 671 514 671 q 359 636 413 671 q 264 542 306 601 q 197 407 222 483 q 191 368 188 380 q 222 360 194 356 "},"ĕ":{"ha":736,"x_min":28,"x_max":694,"o":"m 475 847 q 376 868 408 847 q 336 926 343 889 q 338 1013 328 963 q 357 1026 341 1026 l 367 1026 q 377 1015 378 1026 q 397 946 371 969 q 474 924 423 924 q 558 944 522 924 q 609 1006 594 964 q 614 1021 613 1016 q 627 1026 615 1026 l 646 1026 q 658 1023 657 1026 q 656 1010 659 1020 q 595 892 638 937 q 475 847 553 847 m 28 236 q 66 431 28 340 q 169 590 105 522 q 311 698 233 659 q 468 736 390 736 q 640 697 585 736 q 694 572 694 658 q 662 461 694 507 q 576 384 630 415 q 458 336 523 354 q 329 309 394 318 q 210 297 265 300 q 178 282 186 295 q 169 236 169 269 q 200 107 169 159 q 301 54 230 54 q 402 81 356 54 q 483 148 447 108 q 544 228 519 188 q 555 239 549 237 q 576 240 561 240 l 597 240 q 620 236 617 240 q 615 217 624 233 q 537 107 585 160 q 426 20 490 54 q 285 -14 363 -14 q 150 11 208 -14 q 60 91 92 36 q 28 236 28 146 m 222 360 q 333 379 274 366 q 444 416 392 392 q 528 477 496 440 q 561 572 561 515 q 538 651 561 632 q 468 671 514 671 q 359 636 413 671 q 264 542 306 601 q 197 407 222 483 q 191 368 188 380 q 222 360 194 356 "},"ė":{"ha":736,"x_min":28,"x_max":694,"o":"m 485 881 q 427 906 451 881 q 402 965 402 931 q 427 1024 402 1000 q 485 1049 451 1049 q 544 1024 520 1049 q 569 965 569 1000 q 544 906 569 931 q 485 881 520 881 m 28 236 q 66 431 28 340 q 169 590 105 522 q 311 698 233 659 q 468 736 390 736 q 640 697 585 736 q 694 572 694 658 q 662 461 694 507 q 576 384 630 415 q 458 336 523 354 q 329 309 394 318 q 210 297 265 300 q 178 282 186 295 q 169 236 169 269 q 200 107 169 159 q 301 54 230 54 q 402 81 356 54 q 483 148 447 108 q 544 228 519 188 q 555 239 549 237 q 576 240 561 240 l 597 240 q 620 236 617 240 q 615 217 624 233 q 537 107 585 160 q 426 20 490 54 q 285 -14 363 -14 q 150 11 208 -14 q 60 91 92 36 q 28 236 28 146 m 222 360 q 333 379 274 366 q 444 416 392 392 q 528 477 496 440 q 561 572 561 515 q 538 651 561 632 q 468 671 514 671 q 359 636 413 671 q 264 542 306 601 q 197 407 222 483 q 191 368 188 380 q 222 360 194 356 "},"ę":{"ha":736,"x_min":28,"x_max":694,"o":"m 399 -220 q 327 -210 360 -220 q 279 -177 295 -201 q 271 -115 263 -154 q 300 -57 277 -85 q 356 -3 323 -29 q 424 45 388 22 q 491 87 459 68 q 514 97 504 94 q 526 94 523 99 q 523 81 529 88 q 507 63 517 73 q 467 23 488 45 q 430 -26 446 0 q 408 -80 414 -51 q 412 -130 402 -106 q 458 -153 422 -153 q 505 -140 484 -153 q 541 -110 526 -127 q 562 -106 553 -97 l 570 -112 q 575 -121 576 -117 q 569 -132 574 -124 q 500 -195 540 -170 q 399 -220 460 -220 m 28 236 q 66 431 28 340 q 169 590 105 522 q 311 698 233 659 q 468 736 390 736 q 640 697 585 736 q 694 572 694 658 q 662 461 694 507 q 576 384 630 415 q 458 336 523 354 q 329 309 394 318 q 210 297 265 300 q 178 282 186 295 q 169 236 169 269 q 200 107 169 159 q 301 54 230 54 q 402 81 356 54 q 483 148 447 108 q 544 228 519 188 q 555 239 549 237 q 576 240 561 240 l 597 240 q 620 236 617 240 q 615 217 624 233 q 537 107 585 160 q 426 20 490 54 q 285 -14 363 -14 q 150 11 208 -14 q 60 91 92 36 q 28 236 28 146 m 222 360 q 333 379 274 366 q 444 416 392 392 q 528 477 496 440 q 561 572 561 515 q 538 651 561 632 q 468 671 514 671 q 359 636 413 671 q 264 542 306 601 q 197 407 222 483 q 191 368 188 380 q 222 360 194 356 "}}}
